{
    "asset" : {
        "generator" : "Khronos glTF Blender I/O v1.4.40",
        "version" : "2.0"
    },
    "scene" : 0,
    "scenes" : [
        {
            "name" : "Scene",
            "nodes" : [
                0
            ]
        }
    ],
    "nodes" : [
        {
            "mesh" : 0,
            "name" : "Barco.001",
            "scale" : [
                0.43993809819221497,
                0.43993809819221497,
                0.43993809819221497
            ],
            "translation" : [
                57.5318603515625,
                6.229999542236328,
                -19.081296920776367
            ]
        }
    ],
    "materials" : [
        {
            "doubleSided" : true,
            "name" : "Barco",
            "pbrMetallicRoughness" : {
                "baseColorFactor" : [
                    0.03942132368683815,
                    0.019698571413755417,
                    0.013965500518679619,
                    1
                ],
                "metallicFactor" : 0
            }
        },
        {
            "doubleSided" : true,
            "name" : "Barco vela",
            "pbrMetallicRoughness" : {
                "baseColorFactor" : [
                    0.0009105782955884933,
                    0.0003035278059542179,
                    0.05126946419477463,
                    1
                ],
                "metallicFactor" : 0
            }
        },
        {
            "doubleSided" : true,
            "name" : "Barco Escudo",
            "pbrMetallicRoughness" : {
                "baseColorFactor" : [
                    0.00367649644613266,
                    0.02121901884675026,
                    0.09989874809980392,
                    1
                ],
                "metallicFactor" : 0
            }
        },
        {
            "doubleSided" : true,
            "name" : "Metal escudo",
            "pbrMetallicRoughness" : {
                "baseColorFactor" : [
                    0.2754356265068054,
                    0.2754356265068054,
                    0.2754356265068054,
                    1
                ],
                "metallicFactor" : 0.9186992049217224,
                "roughnessFactor" : 0.6788617968559265
            }
        },
        {
            "doubleSided" : true,
            "name" : "Barco 2",
            "pbrMetallicRoughness" : {
                "baseColorFactor" : [
                    0.0378507636487484,
                    0.023031005635857582,
                    0.01007779873907566,
                    1
                ],
                "metallicFactor" : 0
            }
        }
    ],
    "meshes" : [
        {
            "name" : "Cubo.162",
            "primitives" : [
                {
                    "attributes" : {
                        "POSITION" : 0,
                        "NORMAL" : 1,
                        "TEXCOORD_0" : 2
                    },
                    "indices" : 3,
                    "material" : 0
                },
                {
                    "attributes" : {
                        "POSITION" : 4,
                        "NORMAL" : 5,
                        "TEXCOORD_0" : 6
                    },
                    "indices" : 7,
                    "material" : 1
                },
                {
                    "attributes" : {
                        "POSITION" : 8,
                        "NORMAL" : 9,
                        "TEXCOORD_0" : 10
                    },
                    "indices" : 11,
                    "material" : 2
                },
                {
                    "attributes" : {
                        "POSITION" : 12,
                        "NORMAL" : 13,
                        "TEXCOORD_0" : 14
                    },
                    "indices" : 15,
                    "material" : 3
                },
                {
                    "attributes" : {
                        "POSITION" : 16,
                        "NORMAL" : 17,
                        "TEXCOORD_0" : 18
                    },
                    "indices" : 19,
                    "material" : 4
                }
            ]
        }
    ],
    "accessors" : [
        {
            "bufferView" : 0,
            "componentType" : 5126,
            "count" : 1208,
            "max" : [
                7.474499702453613,
                4.4437384605407715,
                1.3423936367034912
            ],
            "min" : [
                -7.680816650390625,
                -1.4453507661819458,
                -1.3423936367034912
            ],
            "type" : "VEC3"
        },
        {
            "bufferView" : 1,
            "componentType" : 5126,
            "count" : 1208,
            "type" : "VEC3"
        },
        {
            "bufferView" : 2,
            "componentType" : 5126,
            "count" : 1208,
            "type" : "VEC2"
        },
        {
            "bufferView" : 3,
            "componentType" : 5123,
            "count" : 2010,
            "type" : "SCALAR"
        },
        {
            "bufferView" : 4,
            "componentType" : 5126,
            "count" : 60,
            "max" : [
                1.7969515323638916,
                5.623712539672852,
                2.083266258239746
            ],
            "min" : [
                -0.7622434496879578,
                2.1279492378234863,
                -1.8532531261444092
            ],
            "type" : "VEC3"
        },
        {
            "bufferView" : 5,
            "componentType" : 5126,
            "count" : 60,
            "type" : "VEC3"
        },
        {
            "bufferView" : 6,
            "componentType" : 5126,
            "count" : 60,
            "type" : "VEC2"
        },
        {
            "bufferView" : 7,
            "componentType" : 5123,
            "count" : 348,
            "type" : "SCALAR"
        },
        {
            "bufferView" : 8,
            "componentType" : 5126,
            "count" : 5055,
            "max" : [
                5.035767078399658,
                7.036794662475586,
                2.0449461936950684
            ],
            "min" : [
                -5.398748397827148,
                -0.09430909156799316,
                -1.8239549398422241
            ],
            "type" : "VEC3"
        },
        {
            "bufferView" : 9,
            "componentType" : 5126,
            "count" : 5055,
            "type" : "VEC3"
        },
        {
            "bufferView" : 10,
            "componentType" : 5126,
            "count" : 5055,
            "type" : "VEC2"
        },
        {
            "bufferView" : 11,
            "componentType" : 5123,
            "count" : 6960,
            "type" : "SCALAR"
        },
        {
            "bufferView" : 12,
            "componentType" : 5126,
            "count" : 22800,
            "max" : [
                5.110071659088135,
                1.3302042484283447,
                1.5389552116394043
            ],
            "min" : [
                -5.470365047454834,
                -0.15713775157928467,
                -1.5773980617523193
            ],
            "type" : "VEC3"
        },
        {
            "bufferView" : 13,
            "componentType" : 5126,
            "count" : 22800,
            "type" : "VEC3"
        },
        {
            "bufferView" : 14,
            "componentType" : 5126,
            "count" : 22800,
            "type" : "VEC2"
        },
        {
            "bufferView" : 15,
            "componentType" : 5123,
            "count" : 33600,
            "type" : "SCALAR"
        },
        {
            "bufferView" : 16,
            "componentType" : 5126,
            "count" : 404,
            "max" : [
                4.509979724884033,
                7.033309459686279,
                1.3036432266235352
            ],
            "min" : [
                -5.503306865692139,
                -0.41933247447013855,
                -1.2339955568313599
            ],
            "type" : "VEC3"
        },
        {
            "bufferView" : 17,
            "componentType" : 5126,
            "count" : 404,
            "type" : "VEC3"
        },
        {
            "bufferView" : 18,
            "componentType" : 5126,
            "count" : 404,
            "type" : "VEC2"
        },
        {
            "bufferView" : 19,
            "componentType" : 5123,
            "count" : 678,
            "type" : "SCALAR"
        }
    ],
    "bufferViews" : [
        {
            "buffer" : 0,
            "byteLength" : 14496,
            "byteOffset" : 0
        },
        {
            "buffer" : 0,
            "byteLength" : 14496,
            "byteOffset" : 14496
        },
        {
            "buffer" : 0,
            "byteLength" : 9664,
            "byteOffset" : 28992
        },
        {
            "buffer" : 0,
            "byteLength" : 4020,
            "byteOffset" : 38656
        },
        {
            "buffer" : 0,
            "byteLength" : 720,
            "byteOffset" : 42676
        },
        {
            "buffer" : 0,
            "byteLength" : 720,
            "byteOffset" : 43396
        },
        {
            "buffer" : 0,
            "byteLength" : 480,
            "byteOffset" : 44116
        },
        {
            "buffer" : 0,
            "byteLength" : 696,
            "byteOffset" : 44596
        },
        {
            "buffer" : 0,
            "byteLength" : 60660,
            "byteOffset" : 45292
        },
        {
            "buffer" : 0,
            "byteLength" : 60660,
            "byteOffset" : 105952
        },
        {
            "buffer" : 0,
            "byteLength" : 40440,
            "byteOffset" : 166612
        },
        {
            "buffer" : 0,
            "byteLength" : 13920,
            "byteOffset" : 207052
        },
        {
            "buffer" : 0,
            "byteLength" : 273600,
            "byteOffset" : 220972
        },
        {
            "buffer" : 0,
            "byteLength" : 273600,
            "byteOffset" : 494572
        },
        {
            "buffer" : 0,
            "byteLength" : 182400,
            "byteOffset" : 768172
        },
        {
            "buffer" : 0,
            "byteLength" : 67200,
            "byteOffset" : 950572
        },
        {
            "buffer" : 0,
            "byteLength" : 4848,
            "byteOffset" : 1017772
        },
        {
            "buffer" : 0,
            "byteLength" : 4848,
            "byteOffset" : 1022620
        },
        {
            "buffer" : 0,
            "byteLength" : 3232,
            "byteOffset" : 1027468
        },
        {
            "buffer" : 0,
            "byteLength" : 1356,
            "byteOffset" : 1030700
        }
    ],
    "buffers" : [
        {
            "byteLength" : 1032056,
            "uri" : "data:application/octet-stream;base64,"
        }
    ]
}
