{
    "asset" : {
        "generator" : "Khronos glTF Blender I/O v1.4.40",
        "version" : "2.0"
    },
    "scene" : 0,
    "scenes" : [
        {
            "name" : "Scene",
            "nodes" : [
                0
            ]
        }
    ],
    "nodes" : [
        {
            "mesh" : 0,
            "name" : "Casa Praia 2.001",
            "rotation" : [
                0,
                0.7123222947120667,
                0,
                0.7018525004386902
            ],
            "scale" : [
                0.6163325905799866,
                0.4429646134376526,
                0.5219258666038513
            ],
            "translation" : [
                56.036983489990234,
                7.126300811767578,
                6.324062347412109
            ]
        }
    ],
    "materials" : [
        {
            "doubleSided" : true,
            "name" : "Madeira Casa Praia 02",
            "pbrMetallicRoughness" : {
                "baseColorFactor" : [
                    0.4564034938812256,
                    0.38705942034721375,
                    0.2372225970029831,
                    1
                ],
                "metallicFactor" : 0,
                "roughnessFactor" : 0.5
            }
        },
        {
            "doubleSided" : true,
            "name" : "Folha Praia 03",
            "pbrMetallicRoughness" : {
                "baseColorFactor" : [
                    0.019700752571225166,
                    0.2833304703235626,
                    0.6444798707962036,
                    1
                ],
                "metallicFactor" : 0,
                "roughnessFactor" : 0.6869918704032898
            }
        },
        {
            "doubleSided" : true,
            "name" : "Bamboo 01",
            "pbrMetallicRoughness" : {
                "baseColorFactor" : [
                    0.4262135326862335,
                    0.2275806963443756,
                    0.10975398123264313,
                    1
                ],
                "metallicFactor" : 0,
                "roughnessFactor" : 0.5
            }
        },
        {
            "doubleSided" : true,
            "name" : "Corda 2",
            "pbrMetallicRoughness" : {
                "baseColorFactor" : [
                    0.18326260149478912,
                    0.08173036575317383,
                    0.024464068934321404,
                    1
                ],
                "metallicFactor" : 0
            }
        },
        {
            "doubleSided" : true,
            "name" : "Folha Praia 02",
            "pbrMetallicRoughness" : {
                "baseColorFactor" : [
                    0.021508000791072845,
                    0.41319599747657776,
                    0.6444799900054932,
                    1
                ],
                "metallicFactor" : 0,
                "roughnessFactor" : 0.7926828861236572
            }
        },
        {
            "doubleSided" : true,
            "name" : "Preto.003",
            "pbrMetallicRoughness" : {
                "baseColorFactor" : [
                    0.010272827930748463,
                    0.0013472543796524405,
                    0.0009946839418262243,
                    1
                ],
                "metallicFactor" : 0,
                "roughnessFactor" : 0
            }
        },
        {
            "doubleSided" : true,
            "name" : "Cortina praia",
            "pbrMetallicRoughness" : {
                "baseColorFactor" : [
                    0.00891910120844841,
                    0.03639676794409752,
                    0.05811115354299545,
                    1
                ],
                "metallicFactor" : 0
            }
        },
        {
            "doubleSided" : true,
            "name" : "Bamboo Azul 01",
            "pbrMetallicRoughness" : {
                "baseColorFactor" : [
                    0.0810990035533905,
                    0.20762300491333008,
                    0.304980993270874,
                    1
                ],
                "metallicFactor" : 0
            }
        },
        {
            "doubleSided" : true,
            "name" : "Bamboo Azul 02",
            "pbrMetallicRoughness" : {
                "baseColorFactor" : [
                    0.05828597769141197,
                    0.1479121893644333,
                    0.30498072504997253,
                    1
                ],
                "metallicFactor" : 0,
                "roughnessFactor" : 0.5
            }
        },
        {
            "doubleSided" : true,
            "name" : "Caule Folha ",
            "pbrMetallicRoughness" : {
                "baseColorFactor" : [
                    0.015832068398594856,
                    0.18391671776771545,
                    0.2754349708557129,
                    1
                ],
                "metallicFactor" : 0
            }
        },
        {
            "doubleSided" : true,
            "name" : "Folha Praia 01",
            "pbrMetallicRoughness" : {
                "baseColorFactor" : [
                    0.07687095552682877,
                    0.33628153800964355,
                    0.653924822807312,
                    1
                ],
                "metallicFactor" : 0,
                "roughnessFactor" : 0.7682926654815674
            }
        }
    ],
    "meshes" : [
        {
            "name" : "Cubo.145",
            "primitives" : [
                {
                    "attributes" : {
                        "POSITION" : 0,
                        "NORMAL" : 1,
                        "TEXCOORD_0" : 2
                    },
                    "indices" : 3,
                    "material" : 0
                },
                {
                    "attributes" : {
                        "POSITION" : 4,
                        "NORMAL" : 5,
                        "TEXCOORD_0" : 6
                    },
                    "indices" : 7,
                    "material" : 1
                },
                {
                    "attributes" : {
                        "POSITION" : 8,
                        "NORMAL" : 9,
                        "TEXCOORD_0" : 10
                    },
                    "indices" : 11,
                    "material" : 2
                },
                {
                    "attributes" : {
                        "POSITION" : 12,
                        "NORMAL" : 13,
                        "TEXCOORD_0" : 14
                    },
                    "indices" : 15,
                    "material" : 3
                },
                {
                    "attributes" : {
                        "POSITION" : 16,
                        "NORMAL" : 17,
                        "TEXCOORD_0" : 18
                    },
                    "indices" : 19,
                    "material" : 4
                },
                {
                    "attributes" : {
                        "POSITION" : 20,
                        "NORMAL" : 21,
                        "TEXCOORD_0" : 22
                    },
                    "indices" : 23,
                    "material" : 5
                },
                {
                    "attributes" : {
                        "POSITION" : 24,
                        "NORMAL" : 25,
                        "TEXCOORD_0" : 26
                    },
                    "indices" : 27,
                    "material" : 6
                },
                {
                    "attributes" : {
                        "POSITION" : 28,
                        "NORMAL" : 29,
                        "TEXCOORD_0" : 30
                    },
                    "indices" : 31,
                    "material" : 7
                },
                {
                    "attributes" : {
                        "POSITION" : 32,
                        "NORMAL" : 33,
                        "TEXCOORD_0" : 34
                    },
                    "indices" : 35,
                    "material" : 8
                },
                {
                    "attributes" : {
                        "POSITION" : 36,
                        "NORMAL" : 37,
                        "TEXCOORD_0" : 38
                    },
                    "indices" : 39,
                    "material" : 9
                },
                {
                    "attributes" : {
                        "POSITION" : 40,
                        "NORMAL" : 41,
                        "TEXCOORD_0" : 42
                    },
                    "indices" : 43,
                    "material" : 10
                }
            ]
        }
    ],
    "accessors" : [
        {
            "bufferView" : 0,
            "componentType" : 5126,
            "count" : 3840,
            "max" : [
                0.7053823471069336,
                0.5307662487030029,
                0.37445738911628723
            ],
            "min" : [
                -0.6920418739318848,
                -0.9207483530044556,
                -1.274746298789978
            ],
            "type" : "VEC3"
        },
        {
            "bufferView" : 1,
            "componentType" : 5126,
            "count" : 3840,
            "type" : "VEC3"
        },
        {
            "bufferView" : 2,
            "componentType" : 5126,
            "count" : 3840,
            "type" : "VEC2"
        },
        {
            "bufferView" : 3,
            "componentType" : 5123,
            "count" : 6354,
            "type" : "SCALAR"
        },
        {
            "bufferView" : 4,
            "componentType" : 5126,
            "count" : 6384,
            "max" : [
                0.9998037815093994,
                1.0367560386657715,
                0.7325189113616943
            ],
            "min" : [
                -0.9802689552307129,
                0.30839964747428894,
                -1.6495006084442139
            ],
            "type" : "VEC3"
        },
        {
            "bufferView" : 5,
            "componentType" : 5126,
            "count" : 6384,
            "type" : "VEC3"
        },
        {
            "bufferView" : 6,
            "componentType" : 5126,
            "count" : 6384,
            "type" : "VEC2"
        },
        {
            "bufferView" : 7,
            "componentType" : 5123,
            "count" : 9576,
            "type" : "SCALAR"
        },
        {
            "bufferView" : 8,
            "componentType" : 5126,
            "count" : 1826,
            "max" : [
                0.7472293376922607,
                0.53045654296875,
                0.44773057103157043
            ],
            "min" : [
                -0.7477691173553467,
                -0.9250190854072571,
                -1.352203369140625
            ],
            "type" : "VEC3"
        },
        {
            "bufferView" : 9,
            "componentType" : 5126,
            "count" : 1826,
            "type" : "VEC3"
        },
        {
            "bufferView" : 10,
            "componentType" : 5126,
            "count" : 1826,
            "type" : "VEC2"
        },
        {
            "bufferView" : 11,
            "componentType" : 5123,
            "count" : 2790,
            "type" : "SCALAR"
        },
        {
            "bufferView" : 12,
            "componentType" : 5126,
            "count" : 9040,
            "max" : [
                0.7549698352813721,
                0.5455843210220337,
                0.457753986120224
            ],
            "min" : [
                -0.7529582977294922,
                -0.743614137172699,
                -1.361143708229065
            ],
            "type" : "VEC3"
        },
        {
            "bufferView" : 13,
            "componentType" : 5126,
            "count" : 9040,
            "type" : "VEC3"
        },
        {
            "bufferView" : 14,
            "componentType" : 5126,
            "count" : 9040,
            "type" : "VEC2"
        },
        {
            "bufferView" : 15,
            "componentType" : 5123,
            "count" : 13176,
            "type" : "SCALAR"
        },
        {
            "bufferView" : 16,
            "componentType" : 5126,
            "count" : 5168,
            "max" : [
                0.93113112449646,
                1.0406394004821777,
                0.7312209606170654
            ],
            "min" : [
                -0.9108231067657471,
                0.3573841154575348,
                -1.6428565979003906
            ],
            "type" : "VEC3"
        },
        {
            "bufferView" : 17,
            "componentType" : 5126,
            "count" : 5168,
            "type" : "VEC3"
        },
        {
            "bufferView" : 18,
            "componentType" : 5126,
            "count" : 5168,
            "type" : "VEC2"
        },
        {
            "bufferView" : 19,
            "componentType" : 5123,
            "count" : 7752,
            "type" : "SCALAR"
        },
        {
            "bufferView" : 20,
            "componentType" : 5126,
            "count" : 20,
            "max" : [
                0.7053823471069336,
                -0.9207483530044556,
                0.37445738911628723
            ],
            "min" : [
                -0.6920418739318848,
                -0.9207483530044556,
                -1.274746298789978
            ],
            "type" : "VEC3"
        },
        {
            "bufferView" : 21,
            "componentType" : 5126,
            "count" : 20,
            "type" : "VEC3"
        },
        {
            "bufferView" : 22,
            "componentType" : 5126,
            "count" : 20,
            "type" : "VEC2"
        },
        {
            "bufferView" : 23,
            "componentType" : 5123,
            "count" : 42,
            "type" : "SCALAR"
        },
        {
            "bufferView" : 24,
            "componentType" : 5126,
            "count" : 154,
            "max" : [
                0.5501015186309814,
                -0.03912755846977234,
                0.37313422560691833
            ],
            "min" : [
                -0.5392863750457764,
                -0.9138780236244202,
                0.3381552994251251
            ],
            "type" : "VEC3"
        },
        {
            "bufferView" : 25,
            "componentType" : 5126,
            "count" : 154,
            "type" : "VEC3"
        },
        {
            "bufferView" : 26,
            "componentType" : 5126,
            "count" : 154,
            "type" : "VEC2"
        },
        {
            "bufferView" : 27,
            "componentType" : 5123,
            "count" : 252,
            "type" : "SCALAR"
        },
        {
            "bufferView" : 28,
            "componentType" : 5126,
            "count" : 8,
            "max" : [
                0.5924389958381653,
                -0.06473620980978012,
                0.41997912526130676
            ],
            "min" : [
                -0.5462858080863953,
                -0.5496758222579956,
                0.41997912526130676
            ],
            "type" : "VEC3"
        },
        {
            "bufferView" : 29,
            "componentType" : 5126,
            "count" : 8,
            "type" : "VEC3"
        },
        {
            "bufferView" : 30,
            "componentType" : 5126,
            "count" : 8,
            "type" : "VEC2"
        },
        {
            "bufferView" : 31,
            "componentType" : 5123,
            "count" : 12,
            "type" : "SCALAR"
        },
        {
            "bufferView" : 32,
            "componentType" : 5126,
            "count" : 4,
            "max" : [
                0.16355013847351074,
                -0.10061744600534439,
                0.3805236518383026
            ],
            "min" : [
                -0.1465015411376953,
                -0.8621598482131958,
                0.3805236518383026
            ],
            "type" : "VEC3"
        },
        {
            "bufferView" : 33,
            "componentType" : 5126,
            "count" : 4,
            "type" : "VEC3"
        },
        {
            "bufferView" : 34,
            "componentType" : 5126,
            "count" : 4,
            "type" : "VEC2"
        },
        {
            "bufferView" : 35,
            "componentType" : 5123,
            "count" : 6,
            "type" : "SCALAR"
        },
        {
            "bufferView" : 36,
            "componentType" : 5126,
            "count" : 5408,
            "max" : [
                1.0215599536895752,
                1.0406394004821777,
                0.7623136043548584
            ],
            "min" : [
                -1.0057978630065918,
                0.2663699686527252,
                -1.6758620738983154
            ],
            "type" : "VEC3"
        },
        {
            "bufferView" : 37,
            "componentType" : 5126,
            "count" : 5408,
            "type" : "VEC3"
        },
        {
            "bufferView" : 38,
            "componentType" : 5126,
            "count" : 5408,
            "type" : "VEC2"
        },
        {
            "bufferView" : 39,
            "componentType" : 5123,
            "count" : 8112,
            "type" : "SCALAR"
        },
        {
            "bufferView" : 40,
            "componentType" : 5126,
            "count" : 4346,
            "max" : [
                0.9525811672210693,
                1.0249191522598267,
                0.7105261087417603
            ],
            "min" : [
                -0.9445438385009766,
                0.3806638717651367,
                -1.6214325428009033
            ],
            "type" : "VEC3"
        },
        {
            "bufferView" : 41,
            "componentType" : 5126,
            "count" : 4346,
            "type" : "VEC3"
        },
        {
            "bufferView" : 42,
            "componentType" : 5126,
            "count" : 4346,
            "type" : "VEC2"
        },
        {
            "bufferView" : 43,
            "componentType" : 5123,
            "count" : 6522,
            "type" : "SCALAR"
        }
    ],
    "bufferViews" : [
        {
            "buffer" : 0,
            "byteLength" : 46080,
            "byteOffset" : 0
        },
        {
            "buffer" : 0,
            "byteLength" : 46080,
            "byteOffset" : 46080
        },
        {
            "buffer" : 0,
            "byteLength" : 30720,
            "byteOffset" : 92160
        },
        {
            "buffer" : 0,
            "byteLength" : 12708,
            "byteOffset" : 122880
        },
        {
            "buffer" : 0,
            "byteLength" : 76608,
            "byteOffset" : 135588
        },
        {
            "buffer" : 0,
            "byteLength" : 76608,
            "byteOffset" : 212196
        },
        {
            "buffer" : 0,
            "byteLength" : 51072,
            "byteOffset" : 288804
        },
        {
            "buffer" : 0,
            "byteLength" : 19152,
            "byteOffset" : 339876
        },
        {
            "buffer" : 0,
            "byteLength" : 21912,
            "byteOffset" : 359028
        },
        {
            "buffer" : 0,
            "byteLength" : 21912,
            "byteOffset" : 380940
        },
        {
            "buffer" : 0,
            "byteLength" : 14608,
            "byteOffset" : 402852
        },
        {
            "buffer" : 0,
            "byteLength" : 5580,
            "byteOffset" : 417460
        },
        {
            "buffer" : 0,
            "byteLength" : 108480,
            "byteOffset" : 423040
        },
        {
            "buffer" : 0,
            "byteLength" : 108480,
            "byteOffset" : 531520
        },
        {
            "buffer" : 0,
            "byteLength" : 72320,
            "byteOffset" : 640000
        },
        {
            "buffer" : 0,
            "byteLength" : 26352,
            "byteOffset" : 712320
        },
        {
            "buffer" : 0,
            "byteLength" : 62016,
            "byteOffset" : 738672
        },
        {
            "buffer" : 0,
            "byteLength" : 62016,
            "byteOffset" : 800688
        },
        {
            "buffer" : 0,
            "byteLength" : 41344,
            "byteOffset" : 862704
        },
        {
            "buffer" : 0,
            "byteLength" : 15504,
            "byteOffset" : 904048
        },
        {
            "buffer" : 0,
            "byteLength" : 240,
            "byteOffset" : 919552
        },
        {
            "buffer" : 0,
            "byteLength" : 240,
            "byteOffset" : 919792
        },
        {
            "buffer" : 0,
            "byteLength" : 160,
            "byteOffset" : 920032
        },
        {
            "buffer" : 0,
            "byteLength" : 84,
            "byteOffset" : 920192
        },
        {
            "buffer" : 0,
            "byteLength" : 1848,
            "byteOffset" : 920276
        },
        {
            "buffer" : 0,
            "byteLength" : 1848,
            "byteOffset" : 922124
        },
        {
            "buffer" : 0,
            "byteLength" : 1232,
            "byteOffset" : 923972
        },
        {
            "buffer" : 0,
            "byteLength" : 504,
            "byteOffset" : 925204
        },
        {
            "buffer" : 0,
            "byteLength" : 96,
            "byteOffset" : 925708
        },
        {
            "buffer" : 0,
            "byteLength" : 96,
            "byteOffset" : 925804
        },
        {
            "buffer" : 0,
            "byteLength" : 64,
            "byteOffset" : 925900
        },
        {
            "buffer" : 0,
            "byteLength" : 24,
            "byteOffset" : 925964
        },
        {
            "buffer" : 0,
            "byteLength" : 48,
            "byteOffset" : 925988
        },
        {
            "buffer" : 0,
            "byteLength" : 48,
            "byteOffset" : 926036
        },
        {
            "buffer" : 0,
            "byteLength" : 32,
            "byteOffset" : 926084
        },
        {
            "buffer" : 0,
            "byteLength" : 12,
            "byteOffset" : 926116
        },
        {
            "buffer" : 0,
            "byteLength" : 64896,
            "byteOffset" : 926128
        },
        {
            "buffer" : 0,
            "byteLength" : 64896,
            "byteOffset" : 991024
        },
        {
            "buffer" : 0,
            "byteLength" : 43264,
            "byteOffset" : 1055920
        },
        {
            "buffer" : 0,
            "byteLength" : 16224,
            "byteOffset" : 1099184
        },
        {
            "buffer" : 0,
            "byteLength" : 52152,
            "byteOffset" : 1115408
        },
        {
            "buffer" : 0,
            "byteLength" : 52152,
            "byteOffset" : 1167560
        },
        {
            "buffer" : 0,
            "byteLength" : 34768,
            "byteOffset" : 1219712
        },
        {
            "buffer" : 0,
            "byteLength" : 13044,
            "byteOffset" : 1254480
        }
    ],
    "buffers" : [
        {
            "byteLength" : 1267524,
            "uri" : "data:application/octet-stream;base64,"
        }
    ]
}
