{
    "asset" : {
        "generator" : "Khronos glTF Blender I/O v1.4.40",
        "version" : "2.0"
    },
    "scene" : 0,
    "scenes" : [
        {
            "name" : "Scene",
            "nodes" : [
                0
            ]
        }
    ],
    "nodes" : [
        {
            "mesh" : 0,
            "name" : "Casa Praia 3.001",
            "rotation" : [
                0,
                -0.7125416994094849,
                0,
                0.7016297578811646
            ],
            "scale" : [
                0.6540733575820923,
                0.47008925676345825,
                0.5538856387138367
            ],
            "translation" : [
                59.523712158203125,
                7.146934509277344,
                -9.19603443145752
            ]
        }
    ],
    "materials" : [
        {
            "doubleSided" : true,
            "name" : "Madeira Casa Praia 02",
            "pbrMetallicRoughness" : {
                "baseColorFactor" : [
                    0.4564034938812256,
                    0.38705942034721375,
                    0.2372225970029831,
                    1
                ],
                "metallicFactor" : 0,
                "roughnessFactor" : 0.5
            }
        },
        {
            "doubleSided" : true,
            "name" : "Folha Praia.010",
            "pbrMetallicRoughness" : {
                "baseColorFactor" : [
                    0.019700752571225166,
                    0.2833304703235626,
                    0.6444798707962036,
                    1
                ],
                "metallicFactor" : 0,
                "roughnessFactor" : 0.6869918704032898
            }
        },
        {
            "doubleSided" : true,
            "name" : "Bamboo.006",
            "pbrMetallicRoughness" : {
                "baseColorFactor" : [
                    0.4262135326862335,
                    0.2275806963443756,
                    0.10975398123264313,
                    1
                ],
                "metallicFactor" : 0,
                "roughnessFactor" : 0.5
            }
        },
        {
            "doubleSided" : true,
            "name" : "corda.005",
            "pbrMetallicRoughness" : {
                "baseColorFactor" : [
                    0.23698733747005463,
                    0.12657450139522552,
                    0.0453040637075901,
                    1
                ],
                "metallicFactor" : 0,
                "roughnessFactor" : 0.5
            }
        },
        {
            "doubleSided" : true,
            "name" : "Folha Praia.011",
            "pbrMetallicRoughness" : {
                "baseColorFactor" : [
                    0.021508000791072845,
                    0.41319599747657776,
                    0.6444799900054932,
                    1
                ],
                "metallicFactor" : 0,
                "roughnessFactor" : 0.7926828861236572
            }
        },
        {
            "doubleSided" : true,
            "name" : "Preto.005",
            "pbrMetallicRoughness" : {
                "baseColorFactor" : [
                    0.010272827930748463,
                    0.0013472543796524405,
                    0.0009946839418262243,
                    1
                ],
                "metallicFactor" : 0,
                "roughnessFactor" : 0
            }
        },
        {
            "doubleSided" : true,
            "name" : "Cortina praia",
            "pbrMetallicRoughness" : {
                "baseColorFactor" : [
                    0.00891910120844841,
                    0.03639676794409752,
                    0.05811115354299545,
                    1
                ],
                "metallicFactor" : 0
            }
        },
        {
            "doubleSided" : true,
            "name" : "Bamboo Azul 01",
            "pbrMetallicRoughness" : {
                "baseColorFactor" : [
                    0.0810990035533905,
                    0.20762300491333008,
                    0.304980993270874,
                    1
                ],
                "metallicFactor" : 0
            }
        },
        {
            "doubleSided" : true,
            "name" : "Bamboo Azul 02",
            "pbrMetallicRoughness" : {
                "baseColorFactor" : [
                    0.05828597769141197,
                    0.1479121893644333,
                    0.30498072504997253,
                    1
                ],
                "metallicFactor" : 0,
                "roughnessFactor" : 0.5
            }
        },
        {
            "doubleSided" : true,
            "name" : "Caule Folha ",
            "pbrMetallicRoughness" : {
                "baseColorFactor" : [
                    0.015832068398594856,
                    0.18391671776771545,
                    0.2754349708557129,
                    1
                ],
                "metallicFactor" : 0
            }
        },
        {
            "doubleSided" : true,
            "name" : "Folha Praia 01",
            "pbrMetallicRoughness" : {
                "baseColorFactor" : [
                    0.07687095552682877,
                    0.33628153800964355,
                    0.653924822807312,
                    1
                ],
                "metallicFactor" : 0,
                "roughnessFactor" : 0.7682926654815674
            }
        }
    ],
    "meshes" : [
        {
            "name" : "Cubo.144",
            "primitives" : [
                {
                    "attributes" : {
                        "POSITION" : 0,
                        "NORMAL" : 1,
                        "TEXCOORD_0" : 2
                    },
                    "indices" : 3,
                    "material" : 0
                },
                {
                    "attributes" : {
                        "POSITION" : 4,
                        "NORMAL" : 5,
                        "TEXCOORD_0" : 6
                    },
                    "indices" : 7,
                    "material" : 1
                },
                {
                    "attributes" : {
                        "POSITION" : 8,
                        "NORMAL" : 9,
                        "TEXCOORD_0" : 10
                    },
                    "indices" : 11,
                    "material" : 2
                },
                {
                    "attributes" : {
                        "POSITION" : 12,
                        "NORMAL" : 13,
                        "TEXCOORD_0" : 14
                    },
                    "indices" : 15,
                    "material" : 3
                },
                {
                    "attributes" : {
                        "POSITION" : 16,
                        "NORMAL" : 17,
                        "TEXCOORD_0" : 18
                    },
                    "indices" : 19,
                    "material" : 4
                },
                {
                    "attributes" : {
                        "POSITION" : 20,
                        "NORMAL" : 21,
                        "TEXCOORD_0" : 22
                    },
                    "indices" : 23,
                    "material" : 5
                },
                {
                    "attributes" : {
                        "POSITION" : 24,
                        "NORMAL" : 25,
                        "TEXCOORD_0" : 26
                    },
                    "indices" : 27,
                    "material" : 6
                },
                {
                    "attributes" : {
                        "POSITION" : 28,
                        "NORMAL" : 29,
                        "TEXCOORD_0" : 30
                    },
                    "indices" : 31,
                    "material" : 7
                },
                {
                    "attributes" : {
                        "POSITION" : 32,
                        "NORMAL" : 33,
                        "TEXCOORD_0" : 34
                    },
                    "indices" : 35,
                    "material" : 8
                },
                {
                    "attributes" : {
                        "POSITION" : 36,
                        "NORMAL" : 37,
                        "TEXCOORD_0" : 38
                    },
                    "indices" : 39,
                    "material" : 9
                },
                {
                    "attributes" : {
                        "POSITION" : 40,
                        "NORMAL" : 41,
                        "TEXCOORD_0" : 42
                    },
                    "indices" : 43,
                    "material" : 10
                }
            ]
        }
    ],
    "accessors" : [
        {
            "bufferView" : 0,
            "componentType" : 5126,
            "count" : 3636,
            "max" : [
                0.7053823471069336,
                0.5307662487030029,
                0.37445738911628723
            ],
            "min" : [
                -0.6920418739318848,
                -0.9207483530044556,
                -1.274746298789978
            ],
            "type" : "VEC3"
        },
        {
            "bufferView" : 1,
            "componentType" : 5126,
            "count" : 3636,
            "type" : "VEC3"
        },
        {
            "bufferView" : 2,
            "componentType" : 5126,
            "count" : 3636,
            "type" : "VEC2"
        },
        {
            "bufferView" : 3,
            "componentType" : 5123,
            "count" : 6354,
            "type" : "SCALAR"
        },
        {
            "bufferView" : 4,
            "componentType" : 5126,
            "count" : 8208,
            "max" : [
                0.9998037815093994,
                1.0367560386657715,
                1.6203031539916992
            ],
            "min" : [
                -0.9802689552307129,
                0.31604182720184326,
                -1.6495006084442139
            ],
            "type" : "VEC3"
        },
        {
            "bufferView" : 5,
            "componentType" : 5126,
            "count" : 8208,
            "type" : "VEC3"
        },
        {
            "bufferView" : 6,
            "componentType" : 5126,
            "count" : 8208,
            "type" : "VEC2"
        },
        {
            "bufferView" : 7,
            "componentType" : 5123,
            "count" : 12312,
            "type" : "SCALAR"
        },
        {
            "bufferView" : 8,
            "componentType" : 5126,
            "count" : 3631,
            "max" : [
                0.7472293376922607,
                0.5752263069152832,
                1.5890533924102783
            ],
            "min" : [
                -0.7477691173553467,
                -0.9250190854072571,
                -1.352203369140625
            ],
            "type" : "VEC3"
        },
        {
            "bufferView" : 9,
            "componentType" : 5126,
            "count" : 3631,
            "type" : "VEC3"
        },
        {
            "bufferView" : 10,
            "componentType" : 5126,
            "count" : 3631,
            "type" : "VEC2"
        },
        {
            "bufferView" : 11,
            "componentType" : 5123,
            "count" : 5382,
            "type" : "SCALAR"
        },
        {
            "bufferView" : 12,
            "componentType" : 5126,
            "count" : 10912,
            "max" : [
                0.7549698352813721,
                0.5455843210220337,
                1.4775269031524658
            ],
            "min" : [
                -0.7529582977294922,
                -0.743614137172699,
                -1.361143708229065
            ],
            "type" : "VEC3"
        },
        {
            "bufferView" : 13,
            "componentType" : 5126,
            "count" : 10912,
            "type" : "VEC3"
        },
        {
            "bufferView" : 14,
            "componentType" : 5126,
            "count" : 10912,
            "type" : "VEC2"
        },
        {
            "bufferView" : 15,
            "componentType" : 5123,
            "count" : 16008,
            "type" : "SCALAR"
        },
        {
            "bufferView" : 16,
            "componentType" : 5126,
            "count" : 6688,
            "max" : [
                0.93113112449646,
                1.0406394004821777,
                1.5987627506256104
            ],
            "min" : [
                -0.9108231067657471,
                0.3573841154575348,
                -1.6428565979003906
            ],
            "type" : "VEC3"
        },
        {
            "bufferView" : 17,
            "componentType" : 5126,
            "count" : 6688,
            "type" : "VEC3"
        },
        {
            "bufferView" : 18,
            "componentType" : 5126,
            "count" : 6688,
            "type" : "VEC2"
        },
        {
            "bufferView" : 19,
            "componentType" : 5123,
            "count" : 10032,
            "type" : "SCALAR"
        },
        {
            "bufferView" : 20,
            "componentType" : 5126,
            "count" : 20,
            "max" : [
                0.7053823471069336,
                -0.9207483530044556,
                0.37445738911628723
            ],
            "min" : [
                -0.6920418739318848,
                -0.9207483530044556,
                -1.274746298789978
            ],
            "type" : "VEC3"
        },
        {
            "bufferView" : 21,
            "componentType" : 5126,
            "count" : 20,
            "type" : "VEC3"
        },
        {
            "bufferView" : 22,
            "componentType" : 5126,
            "count" : 20,
            "type" : "VEC2"
        },
        {
            "bufferView" : 23,
            "componentType" : 5123,
            "count" : 42,
            "type" : "SCALAR"
        },
        {
            "bufferView" : 24,
            "componentType" : 5126,
            "count" : 154,
            "max" : [
                0.5501015186309814,
                -0.03912755846977234,
                0.37313422560691833
            ],
            "min" : [
                -0.5392863750457764,
                -0.9138780236244202,
                0.3381552994251251
            ],
            "type" : "VEC3"
        },
        {
            "bufferView" : 25,
            "componentType" : 5126,
            "count" : 154,
            "type" : "VEC3"
        },
        {
            "bufferView" : 26,
            "componentType" : 5126,
            "count" : 154,
            "type" : "VEC2"
        },
        {
            "bufferView" : 27,
            "componentType" : 5123,
            "count" : 252,
            "type" : "SCALAR"
        },
        {
            "bufferView" : 28,
            "componentType" : 5126,
            "count" : 4,
            "max" : [
                0.16355013847351074,
                -0.10061744600534439,
                0.3805236518383026
            ],
            "min" : [
                -0.1465015411376953,
                -0.8621141910552979,
                0.3805236518383026
            ],
            "type" : "VEC3"
        },
        {
            "bufferView" : 29,
            "componentType" : 5126,
            "count" : 4,
            "type" : "VEC3"
        },
        {
            "bufferView" : 30,
            "componentType" : 5126,
            "count" : 4,
            "type" : "VEC2"
        },
        {
            "bufferView" : 31,
            "componentType" : 5123,
            "count" : 6,
            "type" : "SCALAR"
        },
        {
            "bufferView" : 32,
            "componentType" : 5126,
            "count" : 8,
            "max" : [
                0.5933642387390137,
                -0.07016042619943619,
                0.37986376881599426
            ],
            "min" : [
                -0.5453605651855469,
                -0.5921496748924255,
                0.37986376881599426
            ],
            "type" : "VEC3"
        },
        {
            "bufferView" : 33,
            "componentType" : 5126,
            "count" : 8,
            "type" : "VEC3"
        },
        {
            "bufferView" : 34,
            "componentType" : 5126,
            "count" : 8,
            "type" : "VEC2"
        },
        {
            "bufferView" : 35,
            "componentType" : 5123,
            "count" : 12,
            "type" : "SCALAR"
        },
        {
            "bufferView" : 36,
            "componentType" : 5126,
            "count" : 6864,
            "max" : [
                1.0215599536895752,
                1.0406394004821777,
                1.6588656902313232
            ],
            "min" : [
                -1.0057978630065918,
                0.27460044622421265,
                -1.6758620738983154
            ],
            "type" : "VEC3"
        },
        {
            "bufferView" : 37,
            "componentType" : 5126,
            "count" : 6864,
            "type" : "VEC3"
        },
        {
            "bufferView" : 38,
            "componentType" : 5126,
            "count" : 6864,
            "type" : "VEC2"
        },
        {
            "bufferView" : 39,
            "componentType" : 5123,
            "count" : 10296,
            "type" : "SCALAR"
        },
        {
            "bufferView" : 40,
            "componentType" : 5126,
            "count" : 5258,
            "max" : [
                0.9525811672210693,
                1.0249191522598267,
                1.5774848461151123
            ],
            "min" : [
                -0.9445438385009766,
                0.3806638717651367,
                -1.6214325428009033
            ],
            "type" : "VEC3"
        },
        {
            "bufferView" : 41,
            "componentType" : 5126,
            "count" : 5258,
            "type" : "VEC3"
        },
        {
            "bufferView" : 42,
            "componentType" : 5126,
            "count" : 5258,
            "type" : "VEC2"
        },
        {
            "bufferView" : 43,
            "componentType" : 5123,
            "count" : 7890,
            "type" : "SCALAR"
        }
    ],
    "bufferViews" : [
        {
            "buffer" : 0,
            "byteLength" : 43632,
            "byteOffset" : 0
        },
        {
            "buffer" : 0,
            "byteLength" : 43632,
            "byteOffset" : 43632
        },
        {
            "buffer" : 0,
            "byteLength" : 29088,
            "byteOffset" : 87264
        },
        {
            "buffer" : 0,
            "byteLength" : 12708,
            "byteOffset" : 116352
        },
        {
            "buffer" : 0,
            "byteLength" : 98496,
            "byteOffset" : 129060
        },
        {
            "buffer" : 0,
            "byteLength" : 98496,
            "byteOffset" : 227556
        },
        {
            "buffer" : 0,
            "byteLength" : 65664,
            "byteOffset" : 326052
        },
        {
            "buffer" : 0,
            "byteLength" : 24624,
            "byteOffset" : 391716
        },
        {
            "buffer" : 0,
            "byteLength" : 43572,
            "byteOffset" : 416340
        },
        {
            "buffer" : 0,
            "byteLength" : 43572,
            "byteOffset" : 459912
        },
        {
            "buffer" : 0,
            "byteLength" : 29048,
            "byteOffset" : 503484
        },
        {
            "buffer" : 0,
            "byteLength" : 10764,
            "byteOffset" : 532532
        },
        {
            "buffer" : 0,
            "byteLength" : 130944,
            "byteOffset" : 543296
        },
        {
            "buffer" : 0,
            "byteLength" : 130944,
            "byteOffset" : 674240
        },
        {
            "buffer" : 0,
            "byteLength" : 87296,
            "byteOffset" : 805184
        },
        {
            "buffer" : 0,
            "byteLength" : 32016,
            "byteOffset" : 892480
        },
        {
            "buffer" : 0,
            "byteLength" : 80256,
            "byteOffset" : 924496
        },
        {
            "buffer" : 0,
            "byteLength" : 80256,
            "byteOffset" : 1004752
        },
        {
            "buffer" : 0,
            "byteLength" : 53504,
            "byteOffset" : 1085008
        },
        {
            "buffer" : 0,
            "byteLength" : 20064,
            "byteOffset" : 1138512
        },
        {
            "buffer" : 0,
            "byteLength" : 240,
            "byteOffset" : 1158576
        },
        {
            "buffer" : 0,
            "byteLength" : 240,
            "byteOffset" : 1158816
        },
        {
            "buffer" : 0,
            "byteLength" : 160,
            "byteOffset" : 1159056
        },
        {
            "buffer" : 0,
            "byteLength" : 84,
            "byteOffset" : 1159216
        },
        {
            "buffer" : 0,
            "byteLength" : 1848,
            "byteOffset" : 1159300
        },
        {
            "buffer" : 0,
            "byteLength" : 1848,
            "byteOffset" : 1161148
        },
        {
            "buffer" : 0,
            "byteLength" : 1232,
            "byteOffset" : 1162996
        },
        {
            "buffer" : 0,
            "byteLength" : 504,
            "byteOffset" : 1164228
        },
        {
            "buffer" : 0,
            "byteLength" : 48,
            "byteOffset" : 1164732
        },
        {
            "buffer" : 0,
            "byteLength" : 48,
            "byteOffset" : 1164780
        },
        {
            "buffer" : 0,
            "byteLength" : 32,
            "byteOffset" : 1164828
        },
        {
            "buffer" : 0,
            "byteLength" : 12,
            "byteOffset" : 1164860
        },
        {
            "buffer" : 0,
            "byteLength" : 96,
            "byteOffset" : 1164872
        },
        {
            "buffer" : 0,
            "byteLength" : 96,
            "byteOffset" : 1164968
        },
        {
            "buffer" : 0,
            "byteLength" : 64,
            "byteOffset" : 1165064
        },
        {
            "buffer" : 0,
            "byteLength" : 24,
            "byteOffset" : 1165128
        },
        {
            "buffer" : 0,
            "byteLength" : 82368,
            "byteOffset" : 1165152
        },
        {
            "buffer" : 0,
            "byteLength" : 82368,
            "byteOffset" : 1247520
        },
        {
            "buffer" : 0,
            "byteLength" : 54912,
            "byteOffset" : 1329888
        },
        {
            "buffer" : 0,
            "byteLength" : 20592,
            "byteOffset" : 1384800
        },
        {
            "buffer" : 0,
            "byteLength" : 63096,
            "byteOffset" : 1405392
        },
        {
            "buffer" : 0,
            "byteLength" : 63096,
            "byteOffset" : 1468488
        },
        {
            "buffer" : 0,
            "byteLength" : 42064,
            "byteOffset" : 1531584
        },
        {
            "buffer" : 0,
            "byteLength" : 15780,
            "byteOffset" : 1573648
        }
    ],
    "buffers" : [
        {
            "byteLength" : 1589428,
            "uri" : "data:application/octet-stream;base64,"
        }
    ]
}
