{
    "asset" : {
        "generator" : "Khronos glTF Blender I/O v1.4.40",
        "version" : "2.0"
    },
    "scene" : 0,
    "scenes" : [
        {
            "name" : "Scene",
            "nodes" : [
                0
            ]
        }
    ],
    "nodes" : [
        {
            "mesh" : 0,
            "name" : "Casa Praia 1.001",
            "rotation" : [
                0,
                -0.7056018114089966,
                0,
                0.7086085677146912
            ],
            "scale" : [
                0.569892942905426,
                0.4095879793167114,
                0.4825995862483978
            ],
            "translation" : [
                60.0002555847168,
                7.116977691650391,
                2.5293195247650146
            ]
        }
    ],
    "materials" : [
        {
            "doubleSided" : true,
            "name" : "Madeira Casa Praia",
            "pbrMetallicRoughness" : {
                "baseColorFactor" : [
                    0.41885310411453247,
                    0.301239937543869,
                    0.162770614027977,
                    1
                ],
                "metallicFactor" : 0,
                "roughnessFactor" : 0.5
            }
        },
        {
            "doubleSided" : true,
            "name" : "Folha Praia 03",
            "pbrMetallicRoughness" : {
                "baseColorFactor" : [
                    0.019700752571225166,
                    0.2833304703235626,
                    0.6444798707962036,
                    1
                ],
                "metallicFactor" : 0,
                "roughnessFactor" : 0.6869918704032898
            }
        },
        {
            "doubleSided" : true,
            "name" : "Bamboo 02",
            "pbrMetallicRoughness" : {
                "baseColorFactor" : [
                    0.3111017048358917,
                    0.16443419456481934,
                    0.08331851661205292,
                    1
                ],
                "metallicFactor" : 0,
                "roughnessFactor" : 0.5
            }
        },
        {
            "doubleSided" : true,
            "name" : "Corda 2",
            "pbrMetallicRoughness" : {
                "baseColorFactor" : [
                    0.18326260149478912,
                    0.08173036575317383,
                    0.024464068934321404,
                    1
                ],
                "metallicFactor" : 0
            }
        },
        {
            "doubleSided" : true,
            "name" : "Folha Praia 02",
            "pbrMetallicRoughness" : {
                "baseColorFactor" : [
                    0.021508000791072845,
                    0.41319599747657776,
                    0.6444799900054932,
                    1
                ],
                "metallicFactor" : 0,
                "roughnessFactor" : 0.7926828861236572
            }
        },
        {
            "doubleSided" : true,
            "name" : "Cortina praia",
            "pbrMetallicRoughness" : {
                "baseColorFactor" : [
                    0.00891910120844841,
                    0.03639676794409752,
                    0.05811115354299545,
                    1
                ],
                "metallicFactor" : 0
            }
        },
        {
            "doubleSided" : true,
            "name" : "Bamboo Azul 01",
            "pbrMetallicRoughness" : {
                "baseColorFactor" : [
                    0.0810990035533905,
                    0.20762300491333008,
                    0.304980993270874,
                    1
                ],
                "metallicFactor" : 0
            }
        },
        {
            "doubleSided" : true,
            "name" : "Bamboo Azul 02",
            "pbrMetallicRoughness" : {
                "baseColorFactor" : [
                    0.05828597769141197,
                    0.1479121893644333,
                    0.30498072504997253,
                    1
                ],
                "metallicFactor" : 0,
                "roughnessFactor" : 0.5
            }
        },
        {
            "doubleSided" : true,
            "name" : "Caule Folha ",
            "pbrMetallicRoughness" : {
                "baseColorFactor" : [
                    0.015832068398594856,
                    0.18391671776771545,
                    0.2754349708557129,
                    1
                ],
                "metallicFactor" : 0
            }
        },
        {
            "doubleSided" : true,
            "name" : "Folha Praia 01",
            "pbrMetallicRoughness" : {
                "baseColorFactor" : [
                    0.07687095552682877,
                    0.33628153800964355,
                    0.653924822807312,
                    1
                ],
                "metallicFactor" : 0,
                "roughnessFactor" : 0.7682926654815674
            }
        }
    ],
    "meshes" : [
        {
            "name" : "Cubo.149",
            "primitives" : [
                {
                    "attributes" : {
                        "POSITION" : 0,
                        "NORMAL" : 1,
                        "TEXCOORD_0" : 2
                    },
                    "indices" : 3,
                    "material" : 0
                },
                {
                    "attributes" : {
                        "POSITION" : 4,
                        "NORMAL" : 5,
                        "TEXCOORD_0" : 6
                    },
                    "indices" : 7,
                    "material" : 1
                },
                {
                    "attributes" : {
                        "POSITION" : 8,
                        "NORMAL" : 9,
                        "TEXCOORD_0" : 10
                    },
                    "indices" : 11,
                    "material" : 2
                },
                {
                    "attributes" : {
                        "POSITION" : 12,
                        "NORMAL" : 13,
                        "TEXCOORD_0" : 14
                    },
                    "indices" : 15,
                    "material" : 3
                },
                {
                    "attributes" : {
                        "POSITION" : 16,
                        "NORMAL" : 17,
                        "TEXCOORD_0" : 18
                    },
                    "indices" : 19,
                    "material" : 4
                },
                {
                    "attributes" : {
                        "POSITION" : 20,
                        "NORMAL" : 21,
                        "TEXCOORD_0" : 22
                    },
                    "indices" : 23,
                    "material" : 5
                },
                {
                    "attributes" : {
                        "POSITION" : 24,
                        "NORMAL" : 25,
                        "TEXCOORD_0" : 26
                    },
                    "indices" : 27,
                    "material" : 6
                },
                {
                    "attributes" : {
                        "POSITION" : 28,
                        "NORMAL" : 29,
                        "TEXCOORD_0" : 30
                    },
                    "indices" : 31,
                    "material" : 7
                },
                {
                    "attributes" : {
                        "POSITION" : 32,
                        "NORMAL" : 33,
                        "TEXCOORD_0" : 34
                    },
                    "indices" : 35,
                    "material" : 8
                },
                {
                    "attributes" : {
                        "POSITION" : 36,
                        "NORMAL" : 37,
                        "TEXCOORD_0" : 38
                    },
                    "indices" : 39,
                    "material" : 9
                }
            ]
        }
    ],
    "accessors" : [
        {
            "bufferView" : 0,
            "componentType" : 5126,
            "count" : 2850,
            "max" : [
                1.1221580505371094,
                1.2625601291656494,
                1.0122835636138916
            ],
            "min" : [
                -1.1240425109863281,
                -0.9893829226493835,
                -0.9813719987869263
            ],
            "type" : "VEC3"
        },
        {
            "bufferView" : 1,
            "componentType" : 5126,
            "count" : 2850,
            "type" : "VEC3"
        },
        {
            "bufferView" : 2,
            "componentType" : 5126,
            "count" : 2850,
            "type" : "VEC2"
        },
        {
            "bufferView" : 3,
            "componentType" : 5123,
            "count" : 4860,
            "type" : "SCALAR"
        },
        {
            "bufferView" : 4,
            "componentType" : 5126,
            "count" : 6992,
            "max" : [
                1.3384099006652832,
                1.4118976593017578,
                1.4896223545074463
            ],
            "min" : [
                -1.351324439048767,
                0.15780681371688843,
                -1.2966339588165283
            ],
            "type" : "VEC3"
        },
        {
            "bufferView" : 5,
            "componentType" : 5126,
            "count" : 6992,
            "type" : "VEC3"
        },
        {
            "bufferView" : 6,
            "componentType" : 5126,
            "count" : 6992,
            "type" : "VEC2"
        },
        {
            "bufferView" : 7,
            "componentType" : 5123,
            "count" : 10488,
            "type" : "SCALAR"
        },
        {
            "bufferView" : 8,
            "componentType" : 5126,
            "count" : 9152,
            "max" : [
                1.1834239959716797,
                1.3512494564056396,
                2.1468605995178223
            ],
            "min" : [
                -1.1834241151809692,
                -0.9979138374328613,
                -1.1521283388137817
            ],
            "type" : "VEC3"
        },
        {
            "bufferView" : 9,
            "componentType" : 5126,
            "count" : 9152,
            "type" : "VEC3"
        },
        {
            "bufferView" : 10,
            "componentType" : 5126,
            "count" : 9152,
            "type" : "VEC2"
        },
        {
            "bufferView" : 11,
            "componentType" : 5123,
            "count" : 15276,
            "type" : "SCALAR"
        },
        {
            "bufferView" : 12,
            "componentType" : 5126,
            "count" : 24780,
            "max" : [
                1.1879762411117554,
                1.1132745742797852,
                2.0206081867218018
            ],
            "min" : [
                -1.1891971826553345,
                -0.77811598777771,
                -1.0870217084884644
            ],
            "type" : "VEC3"
        },
        {
            "bufferView" : 13,
            "componentType" : 5126,
            "count" : 24780,
            "type" : "VEC3"
        },
        {
            "bufferView" : 14,
            "componentType" : 5126,
            "count" : 24780,
            "type" : "VEC2"
        },
        {
            "bufferView" : 15,
            "componentType" : 5123,
            "count" : 37500,
            "type" : "SCALAR"
        },
        {
            "bufferView" : 16,
            "componentType" : 5126,
            "count" : 8208,
            "max" : [
                1.3350869417190552,
                1.395782709121704,
                2.2704339027404785
            ],
            "min" : [
                -1.3480027914047241,
                0.18832117319107056,
                -1.1930947303771973
            ],
            "type" : "VEC3"
        },
        {
            "bufferView" : 17,
            "componentType" : 5126,
            "count" : 8208,
            "type" : "VEC3"
        },
        {
            "bufferView" : 18,
            "componentType" : 5126,
            "count" : 8208,
            "type" : "VEC2"
        },
        {
            "bufferView" : 19,
            "componentType" : 5123,
            "count" : 12312,
            "type" : "SCALAR"
        },
        {
            "bufferView" : 20,
            "componentType" : 5126,
            "count" : 114,
            "max" : [
                0.9716672897338867,
                0.3308386206626892,
                0.9962910413742065
            ],
            "min" : [
                -0.9622441530227661,
                -0.983019232749939,
                0.933291494846344
            ],
            "type" : "VEC3"
        },
        {
            "bufferView" : 21,
            "componentType" : 5126,
            "count" : 114,
            "type" : "VEC3"
        },
        {
            "bufferView" : 22,
            "componentType" : 5126,
            "count" : 114,
            "type" : "VEC2"
        },
        {
            "bufferView" : 23,
            "componentType" : 5123,
            "count" : 180,
            "type" : "SCALAR"
        },
        {
            "bufferView" : 24,
            "componentType" : 5126,
            "count" : 8,
            "max" : [
                0.967708945274353,
                -0.25266867876052856,
                1.0106793642044067
            ],
            "min" : [
                -0.9641638994216919,
                -0.685950756072998,
                1.0100111961364746
            ],
            "type" : "VEC3"
        },
        {
            "bufferView" : 25,
            "componentType" : 5126,
            "count" : 8,
            "type" : "VEC3"
        },
        {
            "bufferView" : 26,
            "componentType" : 5126,
            "count" : 8,
            "type" : "VEC2"
        },
        {
            "bufferView" : 27,
            "componentType" : 5123,
            "count" : 12,
            "type" : "SCALAR"
        },
        {
            "bufferView" : 28,
            "componentType" : 5126,
            "count" : 4,
            "max" : [
                0.23699188232421875,
                0.16009637713432312,
                1.0075819492340088
            ],
            "min" : [
                -0.29648733139038086,
                -0.9027469754219055,
                1.007282018661499
            ],
            "type" : "VEC3"
        },
        {
            "bufferView" : 29,
            "componentType" : 5126,
            "count" : 4,
            "type" : "VEC3"
        },
        {
            "bufferView" : 30,
            "componentType" : 5126,
            "count" : 4,
            "type" : "VEC2"
        },
        {
            "bufferView" : 31,
            "componentType" : 5123,
            "count" : 6,
            "type" : "SCALAR"
        },
        {
            "bufferView" : 32,
            "componentType" : 5126,
            "count" : 8624,
            "max" : [
                1.3674463033676147,
                1.4118976593017578,
                2.2572133541107178
            ],
            "min" : [
                -1.3794554471969604,
                0.08285921812057495,
                -1.323367953300476
            ],
            "type" : "VEC3"
        },
        {
            "bufferView" : 33,
            "componentType" : 5126,
            "count" : 8624,
            "type" : "VEC3"
        },
        {
            "bufferView" : 34,
            "componentType" : 5126,
            "count" : 8624,
            "type" : "VEC2"
        },
        {
            "bufferView" : 35,
            "componentType" : 5123,
            "count" : 12936,
            "type" : "SCALAR"
        },
        {
            "bufferView" : 36,
            "componentType" : 5126,
            "count" : 11296,
            "max" : [
                1.3350869417190552,
                1.3958089351654053,
                2.202584743499756
            ],
            "min" : [
                -1.3480027914047241,
                0.13807302713394165,
                -1.1934466361999512
            ],
            "type" : "VEC3"
        },
        {
            "bufferView" : 37,
            "componentType" : 5126,
            "count" : 11296,
            "type" : "VEC3"
        },
        {
            "bufferView" : 38,
            "componentType" : 5126,
            "count" : 11296,
            "type" : "VEC2"
        },
        {
            "bufferView" : 39,
            "componentType" : 5123,
            "count" : 16944,
            "type" : "SCALAR"
        }
    ],
    "bufferViews" : [
        {
            "buffer" : 0,
            "byteLength" : 34200,
            "byteOffset" : 0
        },
        {
            "buffer" : 0,
            "byteLength" : 34200,
            "byteOffset" : 34200
        },
        {
            "buffer" : 0,
            "byteLength" : 22800,
            "byteOffset" : 68400
        },
        {
            "buffer" : 0,
            "byteLength" : 9720,
            "byteOffset" : 91200
        },
        {
            "buffer" : 0,
            "byteLength" : 83904,
            "byteOffset" : 100920
        },
        {
            "buffer" : 0,
            "byteLength" : 83904,
            "byteOffset" : 184824
        },
        {
            "buffer" : 0,
            "byteLength" : 55936,
            "byteOffset" : 268728
        },
        {
            "buffer" : 0,
            "byteLength" : 20976,
            "byteOffset" : 324664
        },
        {
            "buffer" : 0,
            "byteLength" : 109824,
            "byteOffset" : 345640
        },
        {
            "buffer" : 0,
            "byteLength" : 109824,
            "byteOffset" : 455464
        },
        {
            "buffer" : 0,
            "byteLength" : 73216,
            "byteOffset" : 565288
        },
        {
            "buffer" : 0,
            "byteLength" : 30552,
            "byteOffset" : 638504
        },
        {
            "buffer" : 0,
            "byteLength" : 297360,
            "byteOffset" : 669056
        },
        {
            "buffer" : 0,
            "byteLength" : 297360,
            "byteOffset" : 966416
        },
        {
            "buffer" : 0,
            "byteLength" : 198240,
            "byteOffset" : 1263776
        },
        {
            "buffer" : 0,
            "byteLength" : 75000,
            "byteOffset" : 1462016
        },
        {
            "buffer" : 0,
            "byteLength" : 98496,
            "byteOffset" : 1537016
        },
        {
            "buffer" : 0,
            "byteLength" : 98496,
            "byteOffset" : 1635512
        },
        {
            "buffer" : 0,
            "byteLength" : 65664,
            "byteOffset" : 1734008
        },
        {
            "buffer" : 0,
            "byteLength" : 24624,
            "byteOffset" : 1799672
        },
        {
            "buffer" : 0,
            "byteLength" : 1368,
            "byteOffset" : 1824296
        },
        {
            "buffer" : 0,
            "byteLength" : 1368,
            "byteOffset" : 1825664
        },
        {
            "buffer" : 0,
            "byteLength" : 912,
            "byteOffset" : 1827032
        },
        {
            "buffer" : 0,
            "byteLength" : 360,
            "byteOffset" : 1827944
        },
        {
            "buffer" : 0,
            "byteLength" : 96,
            "byteOffset" : 1828304
        },
        {
            "buffer" : 0,
            "byteLength" : 96,
            "byteOffset" : 1828400
        },
        {
            "buffer" : 0,
            "byteLength" : 64,
            "byteOffset" : 1828496
        },
        {
            "buffer" : 0,
            "byteLength" : 24,
            "byteOffset" : 1828560
        },
        {
            "buffer" : 0,
            "byteLength" : 48,
            "byteOffset" : 1828584
        },
        {
            "buffer" : 0,
            "byteLength" : 48,
            "byteOffset" : 1828632
        },
        {
            "buffer" : 0,
            "byteLength" : 32,
            "byteOffset" : 1828680
        },
        {
            "buffer" : 0,
            "byteLength" : 12,
            "byteOffset" : 1828712
        },
        {
            "buffer" : 0,
            "byteLength" : 103488,
            "byteOffset" : 1828724
        },
        {
            "buffer" : 0,
            "byteLength" : 103488,
            "byteOffset" : 1932212
        },
        {
            "buffer" : 0,
            "byteLength" : 68992,
            "byteOffset" : 2035700
        },
        {
            "buffer" : 0,
            "byteLength" : 25872,
            "byteOffset" : 2104692
        },
        {
            "buffer" : 0,
            "byteLength" : 135552,
            "byteOffset" : 2130564
        },
        {
            "buffer" : 0,
            "byteLength" : 135552,
            "byteOffset" : 2266116
        },
        {
            "buffer" : 0,
            "byteLength" : 90368,
            "byteOffset" : 2401668
        },
        {
            "buffer" : 0,
            "byteLength" : 33888,
            "byteOffset" : 2492036
        }
    ],
    "buffers" : [
        {
            "byteLength" : 2525924,
            "uri" : "data:application/octet-stream;base64,"
        }
    ]
}
