{
    "asset" : {
        "generator" : "Khronos glTF Blender I/O v1.4.40",
        "version" : "2.0"
    },
    "scene" : 0,
    "scenes" : [
        {
            "name" : "Scene",
            "nodes" : [
                0
            ]
        }
    ],
    "nodes" : [
        {
            "mesh" : 0,
            "name" : "Casa_Vermelho.001",
            "rotation" : [
                0,
                -0.002568193944171071,
                0,
                0.9999967217445374
            ],
            "scale" : [
                -0.4229711890220642,
                0.25178074836730957,
                -0.6260988712310791
            ]
        }
    ],
    "materials" : [
        {
            "doubleSided" : true,
            "name" : "01PaletaVermelha",
            "pbrMetallicRoughness" : {
                "baseColorFactor" : [
                    0.6938720941543579,
                    0.009133914485573769,
                    0.043735064566135406,
                    1
                ],
                "metallicFactor" : 0
            }
        },
        {
            "doubleSided" : true,
            "name" : "04PaletaVermelha",
            "pbrMetallicRoughness" : {
                "baseColorFactor" : [
                    0.5039650201797485,
                    0.007375999819487333,
                    0.0333000011742115,
                    1
                ],
                "metallicFactor" : 0
            }
        },
        {
            "doubleSided" : true,
            "name" : "05PaletaVermelha",
            "pbrMetallicRoughness" : {
                "baseColorFactor" : [
                    0.06284599751234055,
                    0.002351999981328845,
                    0.006521000061184168,
                    1
                ],
                "metallicFactor" : 0
            }
        },
        {
            "doubleSided" : true,
            "name" : "Branco_Vermelho",
            "pbrMetallicRoughness" : {
                "baseColorFactor" : [
                    0.8055109977722168,
                    0.6807987689971924,
                    0.6220273375511169,
                    1
                ],
                "metallicFactor" : 0
            }
        },
        {
            "doubleSided" : true,
            "name" : "Vidro",
            "pbrMetallicRoughness" : {
                "baseColorFactor" : [
                    0.6942141652107239,
                    0.7878990173339844,
                    0.8633782863616943,
                    1
                ],
                "metallicFactor" : 0,
                "roughnessFactor" : 0
            }
        }
    ],
    "meshes" : [
        {
            "name" : "Cubo.055",
            "primitives" : [
                {
                    "attributes" : {
                        "POSITION" : 0,
                        "NORMAL" : 1,
                        "TEXCOORD_0" : 2
                    },
                    "indices" : 3,
                    "material" : 0
                },
                {
                    "attributes" : {
                        "POSITION" : 4,
                        "NORMAL" : 5,
                        "TEXCOORD_0" : 6
                    },
                    "indices" : 7,
                    "material" : 1
                },
                {
                    "attributes" : {
                        "POSITION" : 8,
                        "NORMAL" : 9,
                        "TEXCOORD_0" : 10
                    },
                    "indices" : 11,
                    "material" : 2
                },
                {
                    "attributes" : {
                        "POSITION" : 12,
                        "NORMAL" : 13,
                        "TEXCOORD_0" : 14
                    },
                    "indices" : 15,
                    "material" : 3
                },
                {
                    "attributes" : {
                        "POSITION" : 16,
                        "NORMAL" : 17,
                        "TEXCOORD_0" : 18
                    },
                    "indices" : 19,
                    "material" : 4
                }
            ]
        }
    ],
    "accessors" : [
        {
            "bufferView" : 0,
            "componentType" : 5126,
            "count" : 3011,
            "max" : [
                2.324906587600708,
                4.474730014801025,
                1.5706275701522827
            ],
            "min" : [
                -2.324906587600708,
                -3.593480348587036,
                -2.413900136947632
            ],
            "type" : "VEC3"
        },
        {
            "bufferView" : 1,
            "componentType" : 5126,
            "count" : 3011,
            "type" : "VEC3"
        },
        {
            "bufferView" : 2,
            "componentType" : 5126,
            "count" : 3011,
            "type" : "VEC2"
        },
        {
            "bufferView" : 3,
            "componentType" : 5123,
            "count" : 4776,
            "type" : "SCALAR"
        },
        {
            "bufferView" : 4,
            "componentType" : 5126,
            "count" : 12,
            "max" : [
                0.5822215676307678,
                -0.19962739944458008,
                -0.80810546875
            ],
            "min" : [
                -2.2178475856781006,
                -1.4970778226852417,
                -1.4906425476074219
            ],
            "type" : "VEC3"
        },
        {
            "bufferView" : 5,
            "componentType" : 5126,
            "count" : 12,
            "type" : "VEC3"
        },
        {
            "bufferView" : 6,
            "componentType" : 5126,
            "count" : 12,
            "type" : "VEC2"
        },
        {
            "bufferView" : 7,
            "componentType" : 5123,
            "count" : 18,
            "type" : "SCALAR"
        },
        {
            "bufferView" : 8,
            "componentType" : 5126,
            "count" : 3423,
            "max" : [
                1.8184101581573486,
                4.363942623138428,
                1.237318515777588
            ],
            "min" : [
                -1.8184101581573486,
                0.633653461933136,
                -1.237318515777588
            ],
            "type" : "VEC3"
        },
        {
            "bufferView" : 9,
            "componentType" : 5126,
            "count" : 3423,
            "type" : "VEC3"
        },
        {
            "bufferView" : 10,
            "componentType" : 5126,
            "count" : 3423,
            "type" : "VEC2"
        },
        {
            "bufferView" : 11,
            "componentType" : 5123,
            "count" : 5868,
            "type" : "SCALAR"
        },
        {
            "bufferView" : 12,
            "componentType" : 5126,
            "count" : 266,
            "max" : [
                1.0978294610977173,
                2.854020357131958,
                0.8060464859008789
            ],
            "min" : [
                -1.0978294610977173,
                -1.7152758836746216,
                -0.8060464859008789
            ],
            "type" : "VEC3"
        },
        {
            "bufferView" : 13,
            "componentType" : 5126,
            "count" : 266,
            "type" : "VEC3"
        },
        {
            "bufferView" : 14,
            "componentType" : 5126,
            "count" : 266,
            "type" : "VEC2"
        },
        {
            "bufferView" : 15,
            "componentType" : 5123,
            "count" : 630,
            "type" : "SCALAR"
        },
        {
            "bufferView" : 16,
            "componentType" : 5126,
            "count" : 12,
            "max" : [
                1.0978294610977173,
                -0.2743108868598938,
                0.14844781160354614
            ],
            "min" : [
                -1.0978294610977173,
                -1.1810497045516968,
                -0.14698871970176697
            ],
            "type" : "VEC3"
        },
        {
            "bufferView" : 17,
            "componentType" : 5126,
            "count" : 12,
            "type" : "VEC3"
        },
        {
            "bufferView" : 18,
            "componentType" : 5126,
            "count" : 12,
            "type" : "VEC2"
        },
        {
            "bufferView" : 19,
            "componentType" : 5123,
            "count" : 18,
            "type" : "SCALAR"
        }
    ],
    "bufferViews" : [
        {
            "buffer" : 0,
            "byteLength" : 36132,
            "byteOffset" : 0
        },
        {
            "buffer" : 0,
            "byteLength" : 36132,
            "byteOffset" : 36132
        },
        {
            "buffer" : 0,
            "byteLength" : 24088,
            "byteOffset" : 72264
        },
        {
            "buffer" : 0,
            "byteLength" : 9552,
            "byteOffset" : 96352
        },
        {
            "buffer" : 0,
            "byteLength" : 144,
            "byteOffset" : 105904
        },
        {
            "buffer" : 0,
            "byteLength" : 144,
            "byteOffset" : 106048
        },
        {
            "buffer" : 0,
            "byteLength" : 96,
            "byteOffset" : 106192
        },
        {
            "buffer" : 0,
            "byteLength" : 36,
            "byteOffset" : 106288
        },
        {
            "buffer" : 0,
            "byteLength" : 41076,
            "byteOffset" : 106324
        },
        {
            "buffer" : 0,
            "byteLength" : 41076,
            "byteOffset" : 147400
        },
        {
            "buffer" : 0,
            "byteLength" : 27384,
            "byteOffset" : 188476
        },
        {
            "buffer" : 0,
            "byteLength" : 11736,
            "byteOffset" : 215860
        },
        {
            "buffer" : 0,
            "byteLength" : 3192,
            "byteOffset" : 227596
        },
        {
            "buffer" : 0,
            "byteLength" : 3192,
            "byteOffset" : 230788
        },
        {
            "buffer" : 0,
            "byteLength" : 2128,
            "byteOffset" : 233980
        },
        {
            "buffer" : 0,
            "byteLength" : 1260,
            "byteOffset" : 236108
        },
        {
            "buffer" : 0,
            "byteLength" : 144,
            "byteOffset" : 237368
        },
        {
            "buffer" : 0,
            "byteLength" : 144,
            "byteOffset" : 237512
        },
        {
            "buffer" : 0,
            "byteLength" : 96,
            "byteOffset" : 237656
        },
        {
            "buffer" : 0,
            "byteLength" : 36,
            "byteOffset" : 237752
        }
    ],
    "buffers" : [
        {
            "byteLength" : 237788,
            "uri" : "data:application/octet-stream;base64,"
        }
    ]
}
