{
    "asset" : {
        "generator" : "Khronos glTF Blender I/O v1.4.40",
        "version" : "2.0"
    },
    "scene" : 0,
    "scenes" : [
        {
            "name" : "Scene",
            "nodes" : [
                0,
                1,
                2,
                3,
                4,
                5,
                6,
                7,
                8,
                9,
                10,
                11,
                12,
                13,
                14,
                15
            ]
        }
    ],
    "nodes" : [
        {
            "mesh" : 0,
            "name" : "Plano"
        },
        {
            "name" : "Sun",
            "translation" : [
                0,
                11.52400016784668,
                0
            ]
        },
        {
            "name" : "Sun.001",
            "rotation" : [
                0,
                0,
                -0.265349805355072,
                0.9641522169113159
            ],
            "translation" : [
                2.7667112350463867,
                13.660890579223633,
                0
            ]
        },
        {
            "name" : "Sun.002",
            "rotation" : [
                0,
                0,
                0.2650168538093567,
                0.9642437696456909
            ],
            "translation" : [
                -2.8116989135742188,
                13.683384895324707,
                0
            ]
        },
        {
            "name" : "Sun.003",
            "rotation" : [
                0.255252480506897,
                0,
                0,
                0.9668744206428528
            ],
            "translation" : [
                0,
                13.705878257751465,
                2.6542437076568604
            ]
        },
        {
            "name" : "Sun.004",
            "rotation" : [
                -0.26343798637390137,
                0,
                0,
                0.9646764397621155
            ],
            "translation" : [
                0,
                13.638398170471191,
                -2.7667105197906494
            ]
        },
        {
            "name" : "Sun.005",
            "rotation" : [
                0,
                0,
                -0.7071067690849304,
                0.7071068286895752
            ],
            "translation" : [
                5.371469974517822,
                -0.02870655059814453,
                0
            ]
        },
        {
            "name" : "Sun.006",
            "rotation" : [
                0,
                0,
                -0.7071068286895752,
                -0.7071068286895752
            ],
            "translation" : [
                -5.371468544006348,
                -0.0017142463475465775,
                0
            ]
        },
        {
            "name" : "Sun.007",
            "rotation" : [
                -0.5,
                0.5,
                -0.4999999701976776,
                0.5
            ],
            "translation" : [
                0,
                -0.02870655059814453,
                -5.3714704513549805
            ]
        },
        {
            "name" : "Sun.008",
            "rotation" : [
                -0.5,
                -0.5,
                -0.5,
                -0.5
            ],
            "translation" : [
                0,
                -0.001714247278869152,
                5.371468544006348
            ]
        },
        {
            "name" : "Sun.009",
            "rotation" : [
                0,
                0,
                -0.9380799531936646,
                0.3464188873767853
            ],
            "translation" : [
                5.371469974517822,
                -2.5875771045684814,
                0
            ]
        },
        {
            "name" : "Sun.010",
            "rotation" : [
                0,
                0,
                -0.9358193874359131,
                -0.3524799048900604
            ],
            "translation" : [
                -5.371468544006348,
                -2.560584783554077,
                0
            ]
        },
        {
            "name" : "Sun.011",
            "rotation" : [
                -0.6633227467536926,
                0.2449551820755005,
                -0.6633226275444031,
                0.24495509266853333
            ],
            "translation" : [
                0,
                -2.5875771045684814,
                -5.3714704513549805
            ]
        },
        {
            "name" : "Sun.012",
            "rotation" : [
                -0.6617242097854614,
                -0.24924100935459137,
                -0.6617242693901062,
                -0.24924106895923615
            ],
            "translation" : [
                0,
                -2.560584783554077,
                5.371468544006348
            ]
        },
        {
            "name" : "C\u00e2mera",
            "rotation" : [
                0.5174928307533264,
                -0.41652122139930725,
                0.318794846534729,
                0.6760777235031128
            ],
            "translation" : [
                -14.855995178222656,
                7.255797386169434,
                7.30855655670166
            ]
        },
        {
            "mesh" : 1,
            "name" : "Esfera UV",
            "scale" : [
                0.16302798688411713,
                0.16302798688411713,
                0.16302798688411713
            ],
            "translation" : [
                0.00011918800737475976,
                4.143084526062012,
                -0.0011201330926269293
            ]
        }
    ],
    "materials" : [
        {
            "doubleSided" : true,
            "name" : "Lanterna",
            "pbrMetallicRoughness" : {
                "baseColorTexture" : {
                    "index" : 0,
                    "texCoord" : 0
                },
                "metallicFactor" : 0,
                "roughnessFactor" : 0.5
            }
        },
        {
            "doubleSided" : true,
            "emissiveFactor" : [
                1,
                0.019848201729222525,
                0.029338605998463496
            ],
            "name" : "vermelho",
            "pbrMetallicRoughness" : {
                "baseColorFactor" : [
                    0.8000000715255737,
                    0.023602496832609177,
                    0.014310836791992188,
                    1
                ],
                "metallicFactor" : 0,
                "roughnessFactor" : 0
            }
        }
    ],
    "meshes" : [
        {
            "name" : "Plano",
            "primitives" : [
                {
                    "attributes" : {
                        "POSITION" : 0,
                        "NORMAL" : 1,
                        "TEXCOORD_0" : 2
                    },
                    "indices" : 3,
                    "material" : 0
                }
            ]
        },
        {
            "name" : "Esfera UV",
            "primitives" : [
                {
                    "attributes" : {
                        "POSITION" : 4,
                        "NORMAL" : 5,
                        "TEXCOORD_0" : 6
                    },
                    "indices" : 7,
                    "material" : 1
                }
            ]
        }
    ],
    "textures" : [
        {
            "sampler" : 0,
            "source" : 0
        }
    ],
    "images" : [
        {
            "bufferView" : 4,
            "mimeType" : "image/png",
            "name" : "Lanterna textura"
        }
    ],
    "accessors" : [
        {
            "bufferView" : 0,
            "componentType" : 5126,
            "count" : 1039,
            "max" : [
                0.9605857729911804,
                5.892934799194336,
                0.9606075882911682
            ],
            "min" : [
                -0.9610556364059448,
                0,
                -0.9610338807106018
            ],
            "type" : "VEC3"
        },
        {
            "bufferView" : 1,
            "componentType" : 5126,
            "count" : 1039,
            "type" : "VEC3"
        },
        {
            "bufferView" : 2,
            "componentType" : 5126,
            "count" : 1039,
            "type" : "VEC2"
        },
        {
            "bufferView" : 3,
            "componentType" : 5123,
            "count" : 2016,
            "type" : "SCALAR"
        },
        {
            "bufferView" : 5,
            "componentType" : 5126,
            "count" : 1984,
            "max" : [
                1.000000238418579,
                1,
                1.0000003576278687
            ],
            "min" : [
                -0.9999998211860657,
                -1,
                -1
            ],
            "type" : "VEC3"
        },
        {
            "bufferView" : 6,
            "componentType" : 5126,
            "count" : 1984,
            "type" : "VEC3"
        },
        {
            "bufferView" : 7,
            "componentType" : 5126,
            "count" : 1984,
            "type" : "VEC2"
        },
        {
            "bufferView" : 8,
            "componentType" : 5123,
            "count" : 2880,
            "type" : "SCALAR"
        }
    ],
    "bufferViews" : [
        {
            "buffer" : 0,
            "byteLength" : 12468,
            "byteOffset" : 0
        },
        {
            "buffer" : 0,
            "byteLength" : 12468,
            "byteOffset" : 12468
        },
        {
            "buffer" : 0,
            "byteLength" : 8312,
            "byteOffset" : 24936
        },
        {
            "buffer" : 0,
            "byteLength" : 4032,
            "byteOffset" : 33248
        },
        {
            "buffer" : 0,
            "byteLength" : 592738,
            "byteOffset" : 37280
        },
        {
            "buffer" : 0,
            "byteLength" : 23808,
            "byteOffset" : 630020
        },
        {
            "buffer" : 0,
            "byteLength" : 23808,
            "byteOffset" : 653828
        },
        {
            "buffer" : 0,
            "byteLength" : 15872,
            "byteOffset" : 677636
        },
        {
            "buffer" : 0,
            "byteLength" : 5760,
            "byteOffset" : 693508
        }
    ],
    "samplers" : [
        {
            "magFilter" : 9729,
            "minFilter" : 9986
        }
    ],
    "buffers" : [
        {
            "byteLength" : 699268,
            "uri" : "data:application/octet-stream;base64,"
        }
    ]
}
