{
    "asset" : {
        "generator" : "Khronos glTF Blender I/O v1.4.40",
        "version" : "2.0"
    },
    "scene" : 0,
    "scenes" : [
        {
            "name" : "Scene",
            "nodes" : [
                0,
                1,
                2,
                3,
                4,
                5
            ]
        }
    ],
    "nodes" : [
        {
            "mesh" : 0,
            "name" : "Cubo.002_Cubo.004",
            "rotation" : [
                0.7071068286895752,
                0,
                0,
                0.7071067094802856
            ]
        },
        {
            "name" : "Sun",
            "translation" : [
                0,
                0.9176692366600037,
                0
            ]
        },
        {
            "name" : "Sun.001",
            "rotation" : [
                0,
                0,
                -0.7071067690849304,
                0.7071068286895752
            ],
            "translation" : [
                1.00639009475708,
                -0.0003216862678527832,
                0
            ]
        },
        {
            "name" : "Sun.002",
            "rotation" : [
                -0.7071068286895752,
                0.7071067690849304,
                0,
                -1.1520231879558196e-07
            ],
            "translation" : [
                -0.8114588260650635,
                -0.0003216862678527832,
                -0.002266767667606473
            ]
        },
        {
            "name" : "Sun.003",
            "rotation" : [
                -0.5,
                0.5,
                -0.4999999701976776,
                0.5
            ],
            "translation" : [
                0.0006798654794692993,
                -0.0003216862678527832,
                -0.9165858626365662
            ]
        },
        {
            "name" : "Sun.004",
            "rotation" : [
                -0.49999991059303284,
                0.49999985098838806,
                0.5000001192092896,
                -0.5000001192092896
            ],
            "translation" : [
                -0.0015866607427597046,
                -0.0003216862678527832,
                0.9012630581855774
            ]
        }
    ],
    "materials" : [
        {
            "doubleSided" : true,
            "name" : "Placa_pedra.001",
            "pbrMetallicRoughness" : {
                "baseColorTexture" : {
                    "index" : 0,
                    "texCoord" : 0
                },
                "metallicFactor" : 0,
                "roughnessFactor" : 0.5
            }
        }
    ],
    "meshes" : [
        {
            "name" : "Cubo.002_Cubo.004",
            "primitives" : [
                {
                    "attributes" : {
                        "POSITION" : 0,
                        "NORMAL" : 1,
                        "TEXCOORD_0" : 2
                    },
                    "indices" : 3,
                    "material" : 0
                }
            ]
        }
    ],
    "textures" : [
        {
            "sampler" : 0,
            "source" : 0
        }
    ],
    "images" : [
        {
            "bufferView" : 4,
            "mimeType" : "image/png",
            "name" : "Placa textura"
        }
    ],
    "accessors" : [
        {
            "bufferView" : 0,
            "componentType" : 5126,
            "count" : 172,
            "max" : [
                0.08301199972629547,
                0.07813700288534164,
                -0.002280999906361103
            ],
            "min" : [
                -0.08284900337457657,
                -0.0786300003528595,
                -0.30119600892066956
            ],
            "type" : "VEC3"
        },
        {
            "bufferView" : 1,
            "componentType" : 5126,
            "count" : 172,
            "type" : "VEC3"
        },
        {
            "bufferView" : 2,
            "componentType" : 5126,
            "count" : 172,
            "type" : "VEC2"
        },
        {
            "bufferView" : 3,
            "componentType" : 5123,
            "count" : 258,
            "type" : "SCALAR"
        }
    ],
    "bufferViews" : [
        {
            "buffer" : 0,
            "byteLength" : 2064,
            "byteOffset" : 0
        },
        {
            "buffer" : 0,
            "byteLength" : 2064,
            "byteOffset" : 2064
        },
        {
            "buffer" : 0,
            "byteLength" : 1376,
            "byteOffset" : 4128
        },
        {
            "buffer" : 0,
            "byteLength" : 516,
            "byteOffset" : 5504
        },
        {
            "buffer" : 0,
            "byteLength" : 537285,
            "byteOffset" : 6020
        }
    ],
    "samplers" : [
        {
            "magFilter" : 9729,
            "minFilter" : 9986
        }
    ],
    "buffers" : [
        {
            "byteLength" : 543308,
            "uri" : "data:application/octet-stream;base64,"
        }
    ]
}
