{
    "asset" : {
        "generator" : "Khronos glTF Blender I/O v1.4.40",
        "version" : "2.0"
    },
    "scene" : 0,
    "scenes" : [
        {
            "name" : "Scene",
            "nodes" : [
                0
            ]
        }
    ],
    "nodes" : [
        {
            "mesh" : 0,
            "name" : "Tocha"
        }
    ],
    "materials" : [
        {
            "doubleSided" : true,
            "name" : "Madeira",
            "pbrMetallicRoughness" : {
                "baseColorFactor" : [
                    0.030793532729148865,
                    0.005187449976801872,
                    0.00013326655607670546,
                    1
                ],
                "metallicFactor" : 0
            }
        },
        {
            "doubleSided" : true,
            "name" : "Papel",
            "pbrMetallicRoughness" : {
                "baseColorFactor" : [
                    0.3762551248073578,
                    0.3422657549381256,
                    0.23275871574878693,
                    1
                ],
                "metallicFactor" : 0,
                "roughnessFactor" : 0.5
            }
        },
        {
            "doubleSided" : true,
            "emissiveFactor" : [
                0.012037706561386585,
                0.012037706561386585,
                0.012037706561386585
            ],
            "name" : "Metais",
            "pbrMetallicRoughness" : {
                "baseColorFactor" : [
                    0.035831935703754425,
                    0.035831935703754425,
                    0.035831935703754425,
                    1
                ],
                "metallicFactor" : 0.7795275449752808,
                "roughnessFactor" : 0.5
            }
        },
        {
            "doubleSided" : true,
            "name" : "Carv\u00e3o",
            "pbrMetallicRoughness" : {
                "baseColorFactor" : [
                    0,
                    0,
                    0,
                    1
                ],
                "metallicFactor" : 0
            }
        }
    ],
    "meshes" : [
        {
            "name" : "Cilindro",
            "primitives" : [
                {
                    "attributes" : {
                        "POSITION" : 0,
                        "NORMAL" : 1,
                        "TEXCOORD_0" : 2
                    },
                    "indices" : 3,
                    "material" : 0
                },
                {
                    "attributes" : {
                        "POSITION" : 4,
                        "NORMAL" : 5,
                        "TEXCOORD_0" : 6
                    },
                    "indices" : 7,
                    "material" : 1
                },
                {
                    "attributes" : {
                        "POSITION" : 8,
                        "NORMAL" : 9,
                        "TEXCOORD_0" : 10
                    },
                    "indices" : 11,
                    "material" : 2
                },
                {
                    "attributes" : {
                        "POSITION" : 12,
                        "NORMAL" : 13,
                        "TEXCOORD_0" : 14
                    },
                    "indices" : 15,
                    "material" : 3
                }
            ]
        }
    ],
    "accessors" : [
        {
            "bufferView" : 0,
            "componentType" : 5126,
            "count" : 54,
            "max" : [
                0.052646055817604065,
                0.7158448696136475,
                0.061051517724990845
            ],
            "min" : [
                -0.052927546203136444,
                -0.2750641405582428,
                -0.0606766976416111
            ],
            "type" : "VEC3"
        },
        {
            "bufferView" : 1,
            "componentType" : 5126,
            "count" : 54,
            "type" : "VEC3"
        },
        {
            "bufferView" : 2,
            "componentType" : 5126,
            "count" : 54,
            "type" : "VEC2"
        },
        {
            "bufferView" : 3,
            "componentType" : 5123,
            "count" : 84,
            "type" : "SCALAR"
        },
        {
            "bufferView" : 4,
            "componentType" : 5126,
            "count" : 57,
            "max" : [
                0.056833453476428986,
                0.727440595626831,
                0.06703751534223557
            ],
            "min" : [
                -0.05848241224884987,
                0.47748273611068726,
                -0.06532367318868637
            ],
            "type" : "VEC3"
        },
        {
            "bufferView" : 5,
            "componentType" : 5126,
            "count" : 57,
            "type" : "VEC3"
        },
        {
            "bufferView" : 6,
            "componentType" : 5126,
            "count" : 57,
            "type" : "VEC2"
        },
        {
            "bufferView" : 7,
            "componentType" : 5123,
            "count" : 81,
            "type" : "SCALAR"
        },
        {
            "bufferView" : 8,
            "componentType" : 5126,
            "count" : 170,
            "max" : [
                0.08356265723705292,
                0.5549625754356384,
                0.0867028459906578
            ],
            "min" : [
                -0.08425270020961761,
                0.20366080105304718,
                -0.26332980394363403
            ],
            "type" : "VEC3"
        },
        {
            "bufferView" : 9,
            "componentType" : 5126,
            "count" : 170,
            "type" : "VEC3"
        },
        {
            "bufferView" : 10,
            "componentType" : 5126,
            "count" : 170,
            "type" : "VEC2"
        },
        {
            "bufferView" : 11,
            "componentType" : 5123,
            "count" : 270,
            "type" : "SCALAR"
        },
        {
            "bufferView" : 12,
            "componentType" : 5126,
            "count" : 54,
            "max" : [
                0.053714819252491,
                0.7524110674858093,
                0.06202448904514313
            ],
            "min" : [
                -0.053714819252491,
                0.6905043721199036,
                -0.06202448904514313
            ],
            "type" : "VEC3"
        },
        {
            "bufferView" : 13,
            "componentType" : 5126,
            "count" : 54,
            "type" : "VEC3"
        },
        {
            "bufferView" : 14,
            "componentType" : 5126,
            "count" : 54,
            "type" : "VEC2"
        },
        {
            "bufferView" : 15,
            "componentType" : 5123,
            "count" : 84,
            "type" : "SCALAR"
        }
    ],
    "bufferViews" : [
        {
            "buffer" : 0,
            "byteLength" : 648,
            "byteOffset" : 0
        },
        {
            "buffer" : 0,
            "byteLength" : 648,
            "byteOffset" : 648
        },
        {
            "buffer" : 0,
            "byteLength" : 432,
            "byteOffset" : 1296
        },
        {
            "buffer" : 0,
            "byteLength" : 168,
            "byteOffset" : 1728
        },
        {
            "buffer" : 0,
            "byteLength" : 684,
            "byteOffset" : 1896
        },
        {
            "buffer" : 0,
            "byteLength" : 684,
            "byteOffset" : 2580
        },
        {
            "buffer" : 0,
            "byteLength" : 456,
            "byteOffset" : 3264
        },
        {
            "buffer" : 0,
            "byteLength" : 162,
            "byteOffset" : 3720
        },
        {
            "buffer" : 0,
            "byteLength" : 2040,
            "byteOffset" : 3884
        },
        {
            "buffer" : 0,
            "byteLength" : 2040,
            "byteOffset" : 5924
        },
        {
            "buffer" : 0,
            "byteLength" : 1360,
            "byteOffset" : 7964
        },
        {
            "buffer" : 0,
            "byteLength" : 540,
            "byteOffset" : 9324
        },
        {
            "buffer" : 0,
            "byteLength" : 648,
            "byteOffset" : 9864
        },
        {
            "buffer" : 0,
            "byteLength" : 648,
            "byteOffset" : 10512
        },
        {
            "buffer" : 0,
            "byteLength" : 432,
            "byteOffset" : 11160
        },
        {
            "buffer" : 0,
            "byteLength" : 168,
            "byteOffset" : 11592
        }
    ],
    "buffers" : [
        {
            "byteLength" : 11760,
            "uri" : "data:application/octet-stream;base64,"
        }
    ]
}
