{
    "asset" : {
        "generator" : "Khronos glTF Blender I/O v1.4.40",
        "version" : "2.0"
    },
    "scene" : 0,
    "scenes" : [
        {
            "name" : "Scene",
            "nodes" : [
                0
            ]
        }
    ],
    "nodes" : [
        {
            "mesh" : 0,
            "name" : "Coqueiro 2",
            "scale" : [
                1,
                0.893720269203186,
                1
            ],
            "translation" : [
                -0.10123252868652344,
                0,
                0
            ]
        }
    ],
    "materials" : [
        {
            "doubleSided" : true,
            "name" : "Madeira",
            "pbrMetallicRoughness" : {
                "baseColorFactor" : [
                    0.31729400157928467,
                    0.16211800277233124,
                    0.0837160274386406,
                    1
                ],
                "metallicFactor" : 0
            }
        },
        {
            "doubleSided" : true,
            "name" : "Folhas",
            "pbrMetallicRoughness" : {
                "baseColorFactor" : [
                    0.05116620659828186,
                    0.18116283416748047,
                    0.048627015203237534,
                    1
                ],
                "metallicFactor" : 0
            }
        }
    ],
    "meshes" : [
        {
            "name" : "C\u00edrculo.005",
            "primitives" : [
                {
                    "attributes" : {
                        "POSITION" : 0,
                        "NORMAL" : 1,
                        "TEXCOORD_0" : 2
                    },
                    "indices" : 3,
                    "material" : 0
                },
                {
                    "attributes" : {
                        "POSITION" : 4,
                        "NORMAL" : 5,
                        "TEXCOORD_0" : 6
                    },
                    "indices" : 7,
                    "material" : 1
                }
            ]
        }
    ],
    "accessors" : [
        {
            "bufferView" : 0,
            "componentType" : 5126,
            "count" : 24,
            "max" : [
                1,
                26.31238555908203,
                1
            ],
            "min" : [
                -1,
                0,
                -1.1190110445022583
            ],
            "type" : "VEC3"
        },
        {
            "bufferView" : 1,
            "componentType" : 5126,
            "count" : 24,
            "type" : "VEC3"
        },
        {
            "bufferView" : 2,
            "componentType" : 5126,
            "count" : 24,
            "type" : "VEC2"
        },
        {
            "bufferView" : 3,
            "componentType" : 5123,
            "count" : 114,
            "type" : "SCALAR"
        },
        {
            "bufferView" : 4,
            "componentType" : 5126,
            "count" : 2208,
            "max" : [
                7.419487953186035,
                34.04257583618164,
                9.228315353393555
            ],
            "min" : [
                -7.781162261962891,
                20.071313858032227,
                -10.126137733459473
            ],
            "type" : "VEC3"
        },
        {
            "bufferView" : 5,
            "componentType" : 5126,
            "count" : 2208,
            "type" : "VEC3"
        },
        {
            "bufferView" : 6,
            "componentType" : 5126,
            "count" : 2208,
            "type" : "VEC2"
        },
        {
            "bufferView" : 7,
            "componentType" : 5123,
            "count" : 3312,
            "type" : "SCALAR"
        }
    ],
    "bufferViews" : [
        {
            "buffer" : 0,
            "byteLength" : 288,
            "byteOffset" : 0
        },
        {
            "buffer" : 0,
            "byteLength" : 288,
            "byteOffset" : 288
        },
        {
            "buffer" : 0,
            "byteLength" : 192,
            "byteOffset" : 576
        },
        {
            "buffer" : 0,
            "byteLength" : 228,
            "byteOffset" : 768
        },
        {
            "buffer" : 0,
            "byteLength" : 26496,
            "byteOffset" : 996
        },
        {
            "buffer" : 0,
            "byteLength" : 26496,
            "byteOffset" : 27492
        },
        {
            "buffer" : 0,
            "byteLength" : 17664,
            "byteOffset" : 53988
        },
        {
            "buffer" : 0,
            "byteLength" : 6624,
            "byteOffset" : 71652
        }
    ],
    "buffers" : [
        {
            "byteLength" : 78276,
            "uri" : "data:application/octet-stream;base64,"
        }
    ]
}
