{
    "asset" : {
        "generator" : "Khronos glTF Blender I/O v1.4.40",
        "version" : "2.0"
    },
    "scene" : 0,
    "scenes" : [
        {
            "name" : "Scene",
            "nodes" : [
                0
            ]
        }
    ],
    "nodes" : [
        {
            "mesh" : 0,
            "name" : "Coqueiro 1",
            "scale" : [
                1,
                0.9343716502189636,
                1
            ],
            "translation" : [
                0.0890798568725586,
                0,
                0
            ]
        }
    ],
    "materials" : [
        {
            "doubleSided" : true,
            "name" : "Madeira",
            "pbrMetallicRoughness" : {
                "baseColorFactor" : [
                    0.31729400157928467,
                    0.16211800277233124,
                    0.0837160274386406,
                    1
                ],
                "metallicFactor" : 0
            }
        },
        {
            "doubleSided" : true,
            "name" : "Folhas",
            "pbrMetallicRoughness" : {
                "baseColorFactor" : [
                    0.05116620659828186,
                    0.18116283416748047,
                    0.048627015203237534,
                    1
                ],
                "metallicFactor" : 0
            }
        }
    ],
    "meshes" : [
        {
            "name" : "C\u00edrculo.002",
            "primitives" : [
                {
                    "attributes" : {
                        "POSITION" : 0,
                        "NORMAL" : 1,
                        "TEXCOORD_0" : 2
                    },
                    "indices" : 3,
                    "material" : 0
                },
                {
                    "attributes" : {
                        "POSITION" : 4,
                        "NORMAL" : 5,
                        "TEXCOORD_0" : 6
                    },
                    "indices" : 7,
                    "material" : 1
                }
            ]
        }
    ],
    "accessors" : [
        {
            "bufferView" : 0,
            "componentType" : 5126,
            "count" : 40,
            "max" : [
                3.286423683166504,
                27.510622024536133,
                1.4845770597457886
            ],
            "min" : [
                -1.4845770597457886,
                0,
                -3.6058878898620605
            ],
            "type" : "VEC3"
        },
        {
            "bufferView" : 1,
            "componentType" : 5126,
            "count" : 40,
            "type" : "VEC3"
        },
        {
            "bufferView" : 2,
            "componentType" : 5126,
            "count" : 40,
            "type" : "VEC2"
        },
        {
            "bufferView" : 3,
            "componentType" : 5123,
            "count" : 210,
            "type" : "SCALAR"
        },
        {
            "bufferView" : 4,
            "componentType" : 5126,
            "count" : 2206,
            "max" : [
                12.428512573242188,
                34.62687683105469,
                4.478990077972412
            ],
            "min" : [
                -7.129843235015869,
                20.655614852905273,
                -11.446122169494629
            ],
            "type" : "VEC3"
        },
        {
            "bufferView" : 5,
            "componentType" : 5126,
            "count" : 2206,
            "type" : "VEC3"
        },
        {
            "bufferView" : 6,
            "componentType" : 5126,
            "count" : 2206,
            "type" : "VEC2"
        },
        {
            "bufferView" : 7,
            "componentType" : 5123,
            "count" : 3312,
            "type" : "SCALAR"
        }
    ],
    "bufferViews" : [
        {
            "buffer" : 0,
            "byteLength" : 480,
            "byteOffset" : 0
        },
        {
            "buffer" : 0,
            "byteLength" : 480,
            "byteOffset" : 480
        },
        {
            "buffer" : 0,
            "byteLength" : 320,
            "byteOffset" : 960
        },
        {
            "buffer" : 0,
            "byteLength" : 420,
            "byteOffset" : 1280
        },
        {
            "buffer" : 0,
            "byteLength" : 26472,
            "byteOffset" : 1700
        },
        {
            "buffer" : 0,
            "byteLength" : 26472,
            "byteOffset" : 28172
        },
        {
            "buffer" : 0,
            "byteLength" : 17648,
            "byteOffset" : 54644
        },
        {
            "buffer" : 0,
            "byteLength" : 6624,
            "byteOffset" : 72292
        }
    ],
    "buffers" : [
        {
            "byteLength" : 78916,
            "uri" : "data:application/octet-stream;base64,"
        }
    ]
}
