{
    "asset" : {
        "generator" : "Khronos glTF Blender I/O v1.4.40",
        "version" : "2.0"
    },
    "scene" : 0,
    "scenes" : [
        {
            "name" : "Scene",
            "nodes" : [
                0
            ]
        }
    ],
    "nodes" : [
        {
            "mesh" : 0,
            "name" : "Coqueiro 3",
            "scale" : [
                1,
                1.1561636924743652,
                1
            ]
        }
    ],
    "materials" : [
        {
            "doubleSided" : true,
            "name" : "Madeira",
            "pbrMetallicRoughness" : {
                "baseColorFactor" : [
                    0.31729400157928467,
                    0.16211800277233124,
                    0.0837160274386406,
                    1
                ],
                "metallicFactor" : 0
            }
        },
        {
            "doubleSided" : true,
            "name" : "Folhas",
            "pbrMetallicRoughness" : {
                "baseColorFactor" : [
                    0.05116620659828186,
                    0.18116283416748047,
                    0.048627015203237534,
                    1
                ],
                "metallicFactor" : 0
            }
        }
    ],
    "meshes" : [
        {
            "name" : "C\u00edrculo.006",
            "primitives" : [
                {
                    "attributes" : {
                        "POSITION" : 0,
                        "NORMAL" : 1,
                        "TEXCOORD_0" : 2
                    },
                    "indices" : 3,
                    "material" : 0
                },
                {
                    "attributes" : {
                        "POSITION" : 4,
                        "NORMAL" : 5,
                        "TEXCOORD_0" : 6
                    },
                    "indices" : 7,
                    "material" : 1
                }
            ]
        }
    ],
    "accessors" : [
        {
            "bufferView" : 0,
            "componentType" : 5126,
            "count" : 56,
            "max" : [
                1.846747636795044,
                24.363454818725586,
                1
            ],
            "min" : [
                -1,
                0,
                -1.3857061862945557
            ],
            "type" : "VEC3"
        },
        {
            "bufferView" : 1,
            "componentType" : 5126,
            "count" : 56,
            "type" : "VEC3"
        },
        {
            "bufferView" : 2,
            "componentType" : 5126,
            "count" : 56,
            "type" : "VEC2"
        },
        {
            "bufferView" : 3,
            "componentType" : 5123,
            "count" : 288,
            "type" : "SCALAR"
        },
        {
            "bufferView" : 4,
            "componentType" : 5126,
            "count" : 2204,
            "max" : [
                9.775923728942871,
                32.166748046875,
                7.242644309997559
            ],
            "min" : [
                -9.782432556152344,
                18.195486068725586,
                -8.68246841430664
            ],
            "type" : "VEC3"
        },
        {
            "bufferView" : 5,
            "componentType" : 5126,
            "count" : 2204,
            "type" : "VEC3"
        },
        {
            "bufferView" : 6,
            "componentType" : 5126,
            "count" : 2204,
            "type" : "VEC2"
        },
        {
            "bufferView" : 7,
            "componentType" : 5123,
            "count" : 3312,
            "type" : "SCALAR"
        }
    ],
    "bufferViews" : [
        {
            "buffer" : 0,
            "byteLength" : 672,
            "byteOffset" : 0
        },
        {
            "buffer" : 0,
            "byteLength" : 672,
            "byteOffset" : 672
        },
        {
            "buffer" : 0,
            "byteLength" : 448,
            "byteOffset" : 1344
        },
        {
            "buffer" : 0,
            "byteLength" : 576,
            "byteOffset" : 1792
        },
        {
            "buffer" : 0,
            "byteLength" : 26448,
            "byteOffset" : 2368
        },
        {
            "buffer" : 0,
            "byteLength" : 26448,
            "byteOffset" : 28816
        },
        {
            "buffer" : 0,
            "byteLength" : 17632,
            "byteOffset" : 55264
        },
        {
            "buffer" : 0,
            "byteLength" : 6624,
            "byteOffset" : 72896
        }
    ],
    "buffers" : [
        {
            "byteLength" : 79520,
            "uri" : "data:application/octet-stream;base64,"
        }
    ]
}
