{
    "asset" : {
        "generator" : "Khronos glTF Blender I/O v1.4.40",
        "version" : "2.0"
    },
    "scene" : 0,
    "scenes" : [
        {
            "name" : "Scene",
            "nodes" : [
                0
            ]
        }
    ],
    "nodes" : [
        {
            "mesh" : 0,
            "name" : " Tenda",
            "rotation" : [
                0,
                0.4421374797821045,
                0,
                0.8969473242759705
            ],
            "scale" : [
                0.020287036895751953,
                0.020085809752345085,
                0.026421740651130676
            ],
            "translation" : [
                -11.049453735351562,
                11.69144058227539,
                -45.8325309753418
            ]
        }
    ],
    "materials" : [
        {
            "doubleSided" : true,
            "name" : "Madeira A2",
            "pbrMetallicRoughness" : {
                "baseColorFactor" : [
                    0.022084619849920273,
                    0.007003047503530979,
                    0.001044193166308105,
                    1
                ],
                "metallicFactor" : 0,
                "roughnessFactor" : 0.7834645509719849
            }
        },
        {
            "doubleSided" : true,
            "name" : "Madeira Verde",
            "pbrMetallicRoughness" : {
                "baseColorFactor" : [
                    0.01291996706277132,
                    0.009599490091204643,
                    0.008483893238008022,
                    1
                ],
                "metallicFactor" : 0
            }
        }
    ],
    "meshes" : [
        {
            "name" : "Cubo.017",
            "primitives" : [
                {
                    "attributes" : {
                        "POSITION" : 0,
                        "NORMAL" : 1,
                        "TEXCOORD_0" : 2
                    },
                    "indices" : 3,
                    "material" : 0
                },
                {
                    "attributes" : {
                        "POSITION" : 4,
                        "NORMAL" : 5,
                        "TEXCOORD_0" : 6
                    },
                    "indices" : 7,
                    "material" : 1
                }
            ]
        }
    ],
    "accessors" : [
        {
            "bufferView" : 0,
            "componentType" : 5126,
            "count" : 96,
            "max" : [
                17.68446922302246,
                26.89982795715332,
                0.8692356944084167
            ],
            "min" : [
                -15.32781982421875,
                -18.885250091552734,
                -29.53484535217285
            ],
            "type" : "VEC3"
        },
        {
            "bufferView" : 1,
            "componentType" : 5126,
            "count" : 96,
            "type" : "VEC3"
        },
        {
            "bufferView" : 2,
            "componentType" : 5126,
            "count" : 96,
            "type" : "VEC2"
        },
        {
            "bufferView" : 3,
            "componentType" : 5123,
            "count" : 144,
            "type" : "SCALAR"
        },
        {
            "bufferView" : 4,
            "componentType" : 5126,
            "count" : 72,
            "max" : [
                18.036664962768555,
                27.029743194580078,
                1.265136957168579
            ],
            "min" : [
                -15.821549415588379,
                10.696493148803711,
                -30.05016326904297
            ],
            "type" : "VEC3"
        },
        {
            "bufferView" : 5,
            "componentType" : 5126,
            "count" : 72,
            "type" : "VEC3"
        },
        {
            "bufferView" : 6,
            "componentType" : 5126,
            "count" : 72,
            "type" : "VEC2"
        },
        {
            "bufferView" : 7,
            "componentType" : 5123,
            "count" : 324,
            "type" : "SCALAR"
        }
    ],
    "bufferViews" : [
        {
            "buffer" : 0,
            "byteLength" : 1152,
            "byteOffset" : 0
        },
        {
            "buffer" : 0,
            "byteLength" : 1152,
            "byteOffset" : 1152
        },
        {
            "buffer" : 0,
            "byteLength" : 768,
            "byteOffset" : 2304
        },
        {
            "buffer" : 0,
            "byteLength" : 288,
            "byteOffset" : 3072
        },
        {
            "buffer" : 0,
            "byteLength" : 864,
            "byteOffset" : 3360
        },
        {
            "buffer" : 0,
            "byteLength" : 864,
            "byteOffset" : 4224
        },
        {
            "buffer" : 0,
            "byteLength" : 576,
            "byteOffset" : 5088
        },
        {
            "buffer" : 0,
            "byteLength" : 648,
            "byteOffset" : 5664
        }
    ],
    "buffers" : [
        {
            "byteLength" : 6312,
            "uri" : "data:application/octet-stream;base64,"
        }
    ]
}
