{
    "asset" : {
        "generator" : "Khronos glTF Blender I/O v1.4.40",
        "version" : "2.0"
    },
    "scene" : 0,
    "scenes" : [
        {
            "name" : "Scene",
            "nodes" : [
                0
            ]
        }
    ],
    "nodes" : [
        {
            "mesh" : 0,
            "name" : "Barril.004",
            "scale" : [
                0.09016288071870804,
                0.09016288816928864,
                0.09016288071870804
            ],
            "translation" : [
                -3.928864002227783,
                12.382355690002441,
                -40.644142150878906
            ]
        }
    ],
    "materials" : [
        {
            "doubleSided" : true,
            "name" : "Metal.001",
            "pbrMetallicRoughness" : {
                "baseColorFactor" : [
                    0.04321236163377762,
                    0.04321236163377762,
                    0.04321236163377762,
                    1
                ],
                "metallicFactor" : 0.6504064798355103,
                "roughnessFactor" : 0.857723593711853
            }
        },
        {
            "doubleSided" : true,
            "name" : "Barril.001",
            "pbrMetallicRoughness" : {
                "baseColorFactor" : [
                    0.030818352475762367,
                    0.007140383590012789,
                    0.003454139456152916,
                    1
                ],
                "metallicFactor" : 0,
                "roughnessFactor" : 0.5
            }
        }
    ],
    "meshes" : [
        {
            "name" : "C\u00edrculo.017",
            "primitives" : [
                {
                    "attributes" : {
                        "POSITION" : 0,
                        "NORMAL" : 1,
                        "TEXCOORD_0" : 2
                    },
                    "indices" : 3,
                    "material" : 0
                },
                {
                    "attributes" : {
                        "POSITION" : 4,
                        "NORMAL" : 5,
                        "TEXCOORD_0" : 6
                    },
                    "indices" : 7,
                    "material" : 1
                }
            ]
        }
    ],
    "accessors" : [
        {
            "bufferView" : 0,
            "componentType" : 5126,
            "count" : 768,
            "max" : [
                1.1740429401397705,
                0.5947060585021973,
                1.1740429401397705
            ],
            "min" : [
                -1.1740429401397705,
                -2.48895525932312,
                -1.1740429401397705
            ],
            "type" : "VEC3"
        },
        {
            "bufferView" : 1,
            "componentType" : 5126,
            "count" : 768,
            "type" : "VEC3"
        },
        {
            "bufferView" : 2,
            "componentType" : 5126,
            "count" : 768,
            "type" : "VEC2"
        },
        {
            "bufferView" : 3,
            "componentType" : 5123,
            "count" : 1152,
            "type" : "SCALAR"
        },
        {
            "bufferView" : 4,
            "componentType" : 5126,
            "count" : 708,
            "max" : [
                1.1610695123672485,
                0.5947060585021973,
                1.1610695123672485
            ],
            "min" : [
                -1.1610695123672485,
                -2.48895525932312,
                -1.1610695123672485
            ],
            "type" : "VEC3"
        },
        {
            "bufferView" : 5,
            "componentType" : 5126,
            "count" : 708,
            "type" : "VEC3"
        },
        {
            "bufferView" : 6,
            "componentType" : 5126,
            "count" : 708,
            "type" : "VEC2"
        },
        {
            "bufferView" : 7,
            "componentType" : 5123,
            "count" : 1098,
            "type" : "SCALAR"
        }
    ],
    "bufferViews" : [
        {
            "buffer" : 0,
            "byteLength" : 9216,
            "byteOffset" : 0
        },
        {
            "buffer" : 0,
            "byteLength" : 9216,
            "byteOffset" : 9216
        },
        {
            "buffer" : 0,
            "byteLength" : 6144,
            "byteOffset" : 18432
        },
        {
            "buffer" : 0,
            "byteLength" : 2304,
            "byteOffset" : 24576
        },
        {
            "buffer" : 0,
            "byteLength" : 8496,
            "byteOffset" : 26880
        },
        {
            "buffer" : 0,
            "byteLength" : 8496,
            "byteOffset" : 35376
        },
        {
            "buffer" : 0,
            "byteLength" : 5664,
            "byteOffset" : 43872
        },
        {
            "buffer" : 0,
            "byteLength" : 2196,
            "byteOffset" : 49536
        }
    ],
    "buffers" : [
        {
            "byteLength" : 51732,
            "uri" : "data:application/octet-stream;base64,"
        }
    ]
}
