{
    "asset" : {
        "generator" : "Khronos glTF Blender I/O v1.4.40",
        "version" : "2.0"
    },
    "scene" : 0,
    "scenes" : [
        {
            "name" : "Scene",
            "nodes" : [
                0
            ]
        }
    ],
    "nodes" : [
        {
            "mesh" : 0,
            "name" : "weapon Stand.001",
            "rotation" : [
                -0.012700792402029037,
                0.3649429678916931,
                -0.025864465162158012,
                0.9305838942527771
            ],
            "scale" : [
                0.011646444909274578,
                0.10958576202392578,
                0.011646444909274578
            ],
            "translation" : [
                -11.521552085876465,
                11.547046661376953,
                -46.201412200927734
            ]
        }
    ],
    "materials" : [
        {
            "doubleSided" : true,
            "name" : "Metal Ferramentas",
            "pbrMetallicRoughness" : {
                "baseColorFactor" : [
                    0.3235566318035126,
                    0.3235566318035126,
                    0.3235566318035126,
                    1
                ],
                "roughnessFactor" : 0.21653541922569275
            }
        },
        {
            "doubleSided" : true,
            "name" : "Verde B4",
            "pbrMetallicRoughness" : {
                "baseColorFactor" : [
                    0.05687155947089195,
                    0.10172796249389648,
                    0.03366830199956894,
                    1
                ],
                "metallicFactor" : 0,
                "roughnessFactor" : 0.751968502998352
            }
        },
        {
            "doubleSided" : true,
            "name" : "verde escuro",
            "pbrMetallicRoughness" : {
                "baseColorFactor" : [
                    0.002037958474829793,
                    0.006554567255079746,
                    0,
                    1
                ],
                "metallicFactor" : 0
            }
        },
        {
            "doubleSided" : true,
            "name" : "Verde A3",
            "pbrMetallicRoughness" : {
                "baseColorFactor" : [
                    0.039546236395835876,
                    0.09989874064922333,
                    0.06301003694534302,
                    1
                ],
                "metallicFactor" : 0,
                "roughnessFactor" : 0.5
            }
        },
        {
            "doubleSided" : true,
            "name" : "Verde A4",
            "pbrMetallicRoughness" : {
                "baseColorFactor" : [
                    0.0003035252448171377,
                    0.019382361322641373,
                    0.003035270143300295,
                    1
                ],
                "metallicFactor" : 0
            }
        }
    ],
    "meshes" : [
        {
            "name" : "Cubo.011",
            "primitives" : [
                {
                    "attributes" : {
                        "POSITION" : 0,
                        "NORMAL" : 1,
                        "TEXCOORD_0" : 2
                    },
                    "indices" : 3,
                    "material" : 0
                },
                {
                    "attributes" : {
                        "POSITION" : 4,
                        "NORMAL" : 5,
                        "TEXCOORD_0" : 6
                    },
                    "indices" : 7,
                    "material" : 1
                },
                {
                    "attributes" : {
                        "POSITION" : 8,
                        "NORMAL" : 9,
                        "TEXCOORD_0" : 10
                    },
                    "indices" : 11,
                    "material" : 2
                },
                {
                    "attributes" : {
                        "POSITION" : 12,
                        "NORMAL" : 13,
                        "TEXCOORD_0" : 14
                    },
                    "indices" : 15,
                    "material" : 3
                },
                {
                    "attributes" : {
                        "POSITION" : 16,
                        "NORMAL" : 17,
                        "TEXCOORD_0" : 18
                    },
                    "indices" : 19,
                    "material" : 4
                }
            ]
        }
    ],
    "accessors" : [
        {
            "bufferView" : 0,
            "componentType" : 5126,
            "count" : 2112,
            "max" : [
                1.6557042598724365,
                1.9165705442428589,
                2.312286615371704
            ],
            "min" : [
                -7.82178258895874,
                0.9897788166999817,
                -1.6918729543685913
            ],
            "type" : "VEC3"
        },
        {
            "bufferView" : 1,
            "componentType" : 5126,
            "count" : 2112,
            "type" : "VEC3"
        },
        {
            "bufferView" : 2,
            "componentType" : 5126,
            "count" : 2112,
            "type" : "VEC2"
        },
        {
            "bufferView" : 3,
            "componentType" : 5123,
            "count" : 3144,
            "type" : "SCALAR"
        },
        {
            "bufferView" : 4,
            "componentType" : 5126,
            "count" : 54,
            "max" : [
                1.3013908863067627,
                1.6029630899429321,
                5.01460599899292
            ],
            "min" : [
                0.837746798992157,
                -1.070674180984497,
                -1.28596031665802
            ],
            "type" : "VEC3"
        },
        {
            "bufferView" : 5,
            "componentType" : 5126,
            "count" : 54,
            "type" : "VEC3"
        },
        {
            "bufferView" : 6,
            "componentType" : 5126,
            "count" : 54,
            "type" : "VEC2"
        },
        {
            "bufferView" : 7,
            "componentType" : 5123,
            "count" : 84,
            "type" : "SCALAR"
        },
        {
            "bufferView" : 8,
            "componentType" : 5126,
            "count" : 836,
            "max" : [
                9.839569091796875,
                1.046189308166504,
                7.5341386795043945
            ],
            "min" : [
                -11.34311294555664,
                -1.4122166633605957,
                -8.44062614440918
            ],
            "type" : "VEC3"
        },
        {
            "bufferView" : 9,
            "componentType" : 5126,
            "count" : 836,
            "type" : "VEC3"
        },
        {
            "bufferView" : 10,
            "componentType" : 5126,
            "count" : 836,
            "type" : "VEC2"
        },
        {
            "bufferView" : 11,
            "componentType" : 5123,
            "count" : 1596,
            "type" : "SCALAR"
        },
        {
            "bufferView" : 12,
            "componentType" : 5126,
            "count" : 78,
            "max" : [
                -3.1282050609588623,
                1.5544167757034302,
                4.841363430023193
            ],
            "min" : [
                -3.6605496406555176,
                -1.1115936040878296,
                -1.1943895816802979
            ],
            "type" : "VEC3"
        },
        {
            "bufferView" : 13,
            "componentType" : 5126,
            "count" : 78,
            "type" : "VEC3"
        },
        {
            "bufferView" : 14,
            "componentType" : 5126,
            "count" : 78,
            "type" : "VEC2"
        },
        {
            "bufferView" : 15,
            "componentType" : 5123,
            "count" : 120,
            "type" : "SCALAR"
        },
        {
            "bufferView" : 16,
            "componentType" : 5126,
            "count" : 1516,
            "max" : [
                -7.170507907867432,
                1.2134575843811035,
                2.1344783306121826
            ],
            "min" : [
                -7.852272987365723,
                -0.7601183652877808,
                -2.806109666824341
            ],
            "type" : "VEC3"
        },
        {
            "bufferView" : 17,
            "componentType" : 5126,
            "count" : 1516,
            "type" : "VEC3"
        },
        {
            "bufferView" : 18,
            "componentType" : 5126,
            "count" : 1516,
            "type" : "VEC2"
        },
        {
            "bufferView" : 19,
            "componentType" : 5123,
            "count" : 2304,
            "type" : "SCALAR"
        }
    ],
    "bufferViews" : [
        {
            "buffer" : 0,
            "byteLength" : 25344,
            "byteOffset" : 0
        },
        {
            "buffer" : 0,
            "byteLength" : 25344,
            "byteOffset" : 25344
        },
        {
            "buffer" : 0,
            "byteLength" : 16896,
            "byteOffset" : 50688
        },
        {
            "buffer" : 0,
            "byteLength" : 6288,
            "byteOffset" : 67584
        },
        {
            "buffer" : 0,
            "byteLength" : 648,
            "byteOffset" : 73872
        },
        {
            "buffer" : 0,
            "byteLength" : 648,
            "byteOffset" : 74520
        },
        {
            "buffer" : 0,
            "byteLength" : 432,
            "byteOffset" : 75168
        },
        {
            "buffer" : 0,
            "byteLength" : 168,
            "byteOffset" : 75600
        },
        {
            "buffer" : 0,
            "byteLength" : 10032,
            "byteOffset" : 75768
        },
        {
            "buffer" : 0,
            "byteLength" : 10032,
            "byteOffset" : 85800
        },
        {
            "buffer" : 0,
            "byteLength" : 6688,
            "byteOffset" : 95832
        },
        {
            "buffer" : 0,
            "byteLength" : 3192,
            "byteOffset" : 102520
        },
        {
            "buffer" : 0,
            "byteLength" : 936,
            "byteOffset" : 105712
        },
        {
            "buffer" : 0,
            "byteLength" : 936,
            "byteOffset" : 106648
        },
        {
            "buffer" : 0,
            "byteLength" : 624,
            "byteOffset" : 107584
        },
        {
            "buffer" : 0,
            "byteLength" : 240,
            "byteOffset" : 108208
        },
        {
            "buffer" : 0,
            "byteLength" : 18192,
            "byteOffset" : 108448
        },
        {
            "buffer" : 0,
            "byteLength" : 18192,
            "byteOffset" : 126640
        },
        {
            "buffer" : 0,
            "byteLength" : 12128,
            "byteOffset" : 144832
        },
        {
            "buffer" : 0,
            "byteLength" : 4608,
            "byteOffset" : 156960
        }
    ],
    "buffers" : [
        {
            "byteLength" : 161568,
            "uri" : "data:application/octet-stream;base64,"
        }
    ]
}
