{
    "asset" : {
        "generator" : "Khronos glTF Blender I/O v1.4.40",
        "version" : "2.0"
    },
    "scene" : 0,
    "scenes" : [
        {
            "name" : "Scene",
            "nodes" : [
                0
            ]
        }
    ],
    "nodes" : [
        {
            "mesh" : 0,
            "name" : "Plano",
            "scale" : [
                1,
                1,
                0.13256675004959106
            ]
        }
    ],
    "materials" : [
        {
            "doubleSided" : true,
            "name" : "Materiais",
            "pbrMetallicRoughness" : {
                "baseColorFactor" : [
                    0.3385521173477173,
                    0.1630813181400299,
                    0.06701473891735077,
                    1
                ],
                "metallicFactor" : 0
            }
        },
        {
            "doubleSided" : true,
            "name" : "Metal",
            "pbrMetallicRoughness" : {
                "baseColorFactor" : [
                    0.23176991939544678,
                    0.23176991939544678,
                    0.23176991939544678,
                    1
                ],
                "roughnessFactor" : 0.4685038924217224
            }
        }
    ],
    "meshes" : [
        {
            "name" : "Plano",
            "primitives" : [
                {
                    "attributes" : {
                        "POSITION" : 0,
                        "NORMAL" : 1,
                        "TEXCOORD_0" : 2
                    },
                    "indices" : 3,
                    "material" : 0
                },
                {
                    "attributes" : {
                        "POSITION" : 4,
                        "NORMAL" : 5,
                        "TEXCOORD_0" : 6
                    },
                    "indices" : 7,
                    "material" : 1
                }
            ]
        }
    ],
    "accessors" : [
        {
            "bufferView" : 0,
            "componentType" : 5126,
            "count" : 2837,
            "max" : [
                0.8625295758247375,
                0.43064334988594055,
                11.12023639678955
            ],
            "min" : [
                -0.8702116012573242,
                -0.5976004600524902,
                -4.617954254150391
            ],
            "type" : "VEC3"
        },
        {
            "bufferView" : 1,
            "componentType" : 5126,
            "count" : 2837,
            "type" : "VEC3"
        },
        {
            "bufferView" : 2,
            "componentType" : 5126,
            "count" : 2837,
            "type" : "VEC2"
        },
        {
            "bufferView" : 3,
            "componentType" : 5123,
            "count" : 4524,
            "type" : "SCALAR"
        },
        {
            "bufferView" : 4,
            "componentType" : 5126,
            "count" : 48,
            "max" : [
                0.17094384133815765,
                -0.03564818948507309,
                15.778725624084473
            ],
            "min" : [
                -0.1730223149061203,
                -0.13482873141765594,
                9.47071647644043
            ],
            "type" : "VEC3"
        },
        {
            "bufferView" : 5,
            "componentType" : 5126,
            "count" : 48,
            "type" : "VEC3"
        },
        {
            "bufferView" : 6,
            "componentType" : 5126,
            "count" : 48,
            "type" : "VEC2"
        },
        {
            "bufferView" : 7,
            "componentType" : 5123,
            "count" : 72,
            "type" : "SCALAR"
        }
    ],
    "bufferViews" : [
        {
            "buffer" : 0,
            "byteLength" : 34044,
            "byteOffset" : 0
        },
        {
            "buffer" : 0,
            "byteLength" : 34044,
            "byteOffset" : 34044
        },
        {
            "buffer" : 0,
            "byteLength" : 22696,
            "byteOffset" : 68088
        },
        {
            "buffer" : 0,
            "byteLength" : 9048,
            "byteOffset" : 90784
        },
        {
            "buffer" : 0,
            "byteLength" : 576,
            "byteOffset" : 99832
        },
        {
            "buffer" : 0,
            "byteLength" : 576,
            "byteOffset" : 100408
        },
        {
            "buffer" : 0,
            "byteLength" : 384,
            "byteOffset" : 100984
        },
        {
            "buffer" : 0,
            "byteLength" : 144,
            "byteOffset" : 101368
        }
    ],
    "buffers" : [
        {
            "byteLength" : 101512,
            "uri" : "data:application/octet-stream;base64,"
        }
    ]
}
