{
    "asset" : {
        "generator" : "Khronos glTF Blender I/O v1.4.40",
        "version" : "2.0"
    },
    "scene" : 0,
    "scenes" : [
        {
            "name" : "Scene",
            "nodes" : [
                0
            ]
        }
    ],
    "nodes" : [
        {
            "mesh" : 0,
            "name" : "Cabana Verde 02.004",
            "rotation" : [
                0,
                -0.2653665542602539,
                0,
                0.9641476273536682
            ],
            "scale" : [
                0.5609170794487,
                0.7293293476104736,
                0.5609170794487
            ],
            "translation" : [
                0.06842488050460815,
                0.4679192304611206,
                -0.028961120173335075
            ]
        }
    ],
    "materials" : [
        {
            "doubleSided" : true,
            "name" : "Madeira_Tronco",
            "pbrMetallicRoughness" : {
                "baseColorFactor" : [
                    0.03578996658325195,
                    0.013453164137899876,
                    0.0010329767828807235,
                    1
                ],
                "metallicFactor" : 0,
                "roughnessFactor" : 0.8252032399177551
            }
        },
        {
            "doubleSided" : true,
            "name" : "Telhado",
            "pbrMetallicRoughness" : {
                "baseColorFactor" : [
                    0.008722119964659214,
                    0.012930264696478844,
                    0.006998451426625252,
                    1
                ],
                "metallicFactor" : 0
            }
        },
        {
            "doubleSided" : true,
            "name" : "Batentes_Verdes",
            "pbrMetallicRoughness" : {
                "baseColorFactor" : [
                    0.04993249848484993,
                    0.0839722752571106,
                    0.02312973327934742,
                    1
                ],
                "metallicFactor" : 0
            }
        },
        {
            "doubleSided" : true,
            "name" : "Vidro",
            "pbrMetallicRoughness" : {
                "baseColorFactor" : [
                    0.6942141652107239,
                    0.7878990173339844,
                    0.8633782863616943,
                    1
                ],
                "metallicFactor" : 0,
                "roughnessFactor" : 0
            }
        },
        {
            "doubleSided" : true,
            "name" : "Porta",
            "pbrMetallicRoughness" : {
                "baseColorFactor" : [
                    0.027806658297777176,
                    0.04517768695950508,
                    0.006976558826863766,
                    1
                ],
                "metallicFactor" : 0
            }
        },
        {
            "doubleSided" : true,
            "name" : "Madeira_Varanda",
            "pbrMetallicRoughness" : {
                "baseColorFactor" : [
                    0.018298877403140068,
                    0.0069776722230017185,
                    0.0008629724616184831,
                    1
                ],
                "metallicFactor" : 0
            }
        },
        {
            "doubleSided" : true,
            "name" : "Madeira A2",
            "pbrMetallicRoughness" : {
                "baseColorFactor" : [
                    0.022084619849920273,
                    0.007003047503530979,
                    0.001044193166308105,
                    1
                ],
                "metallicFactor" : 0,
                "roughnessFactor" : 0.7834645509719849
            }
        }
    ],
    "meshes" : [
        {
            "name" : "Cubo.012",
            "primitives" : [
                {
                    "attributes" : {
                        "POSITION" : 0,
                        "NORMAL" : 1,
                        "TEXCOORD_0" : 2,
                        "TEXCOORD_1" : 3
                    },
                    "indices" : 4,
                    "material" : 0
                },
                {
                    "attributes" : {
                        "POSITION" : 5,
                        "NORMAL" : 6,
                        "TEXCOORD_0" : 7,
                        "TEXCOORD_1" : 8
                    },
                    "indices" : 9,
                    "material" : 1
                },
                {
                    "attributes" : {
                        "POSITION" : 10,
                        "NORMAL" : 11,
                        "TEXCOORD_0" : 12,
                        "TEXCOORD_1" : 13
                    },
                    "indices" : 14,
                    "material" : 2
                },
                {
                    "attributes" : {
                        "POSITION" : 15,
                        "NORMAL" : 16,
                        "TEXCOORD_0" : 17,
                        "TEXCOORD_1" : 18
                    },
                    "indices" : 19,
                    "material" : 3
                },
                {
                    "attributes" : {
                        "POSITION" : 20,
                        "NORMAL" : 21,
                        "TEXCOORD_0" : 22,
                        "TEXCOORD_1" : 23
                    },
                    "indices" : 24,
                    "material" : 4
                },
                {
                    "attributes" : {
                        "POSITION" : 25,
                        "NORMAL" : 26,
                        "TEXCOORD_0" : 27,
                        "TEXCOORD_1" : 28
                    },
                    "indices" : 29,
                    "material" : 5
                },
                {
                    "attributes" : {
                        "POSITION" : 30,
                        "NORMAL" : 31,
                        "TEXCOORD_0" : 32,
                        "TEXCOORD_1" : 33
                    },
                    "indices" : 34,
                    "material" : 6
                }
            ]
        }
    ],
    "accessors" : [
        {
            "bufferView" : 0,
            "componentType" : 5126,
            "count" : 11196,
            "max" : [
                1.5276298522949219,
                2.7223079204559326,
                1.5905852317810059
            ],
            "min" : [
                -1.37526273727417,
                -1.2626434564590454,
                -1.4666132926940918
            ],
            "type" : "VEC3"
        },
        {
            "bufferView" : 1,
            "componentType" : 5126,
            "count" : 11196,
            "type" : "VEC3"
        },
        {
            "bufferView" : 2,
            "componentType" : 5126,
            "count" : 11196,
            "type" : "VEC2"
        },
        {
            "bufferView" : 3,
            "componentType" : 5126,
            "count" : 11196,
            "type" : "VEC2"
        },
        {
            "bufferView" : 4,
            "componentType" : 5123,
            "count" : 14730,
            "type" : "SCALAR"
        },
        {
            "bufferView" : 5,
            "componentType" : 5126,
            "count" : 80,
            "max" : [
                2.19570255279541,
                2.8615527153015137,
                2.571873188018799
            ],
            "min" : [
                -1.6682451963424683,
                0.4768230617046356,
                -1.7031433582305908
            ],
            "type" : "VEC3"
        },
        {
            "bufferView" : 6,
            "componentType" : 5126,
            "count" : 80,
            "type" : "VEC3"
        },
        {
            "bufferView" : 7,
            "componentType" : 5126,
            "count" : 80,
            "type" : "VEC2"
        },
        {
            "bufferView" : 8,
            "componentType" : 5126,
            "count" : 80,
            "type" : "VEC2"
        },
        {
            "bufferView" : 9,
            "componentType" : 5123,
            "count" : 120,
            "type" : "SCALAR"
        },
        {
            "bufferView" : 10,
            "componentType" : 5126,
            "count" : 268,
            "max" : [
                1.2588109970092773,
                0.19882184267044067,
                1.5093892812728882
            ],
            "min" : [
                0.007001399993896484,
                -0.7353018522262573,
                -0.7459002137184143
            ],
            "type" : "VEC3"
        },
        {
            "bufferView" : 11,
            "componentType" : 5126,
            "count" : 268,
            "type" : "VEC3"
        },
        {
            "bufferView" : 12,
            "componentType" : 5126,
            "count" : 268,
            "type" : "VEC2"
        },
        {
            "bufferView" : 13,
            "componentType" : 5126,
            "count" : 268,
            "type" : "VEC2"
        },
        {
            "bufferView" : 14,
            "componentType" : 5123,
            "count" : 402,
            "type" : "SCALAR"
        },
        {
            "bufferView" : 15,
            "componentType" : 5126,
            "count" : 8,
            "max" : [
                1.2060496807098389,
                0.16333505511283875,
                0.9802117943763733
            ],
            "min" : [
                0.7293212413787842,
                -0.3238610625267029,
                -0.6931389570236206
            ],
            "type" : "VEC3"
        },
        {
            "bufferView" : 16,
            "componentType" : 5126,
            "count" : 8,
            "type" : "VEC3"
        },
        {
            "bufferView" : 17,
            "componentType" : 5126,
            "count" : 8,
            "type" : "VEC2"
        },
        {
            "bufferView" : 18,
            "componentType" : 5126,
            "count" : 8,
            "type" : "VEC2"
        },
        {
            "bufferView" : 19,
            "componentType" : 5123,
            "count" : 12,
            "type" : "SCALAR"
        },
        {
            "bufferView" : 20,
            "componentType" : 5126,
            "count" : 4,
            "max" : [
                0.5134074687957764,
                0.13423146307468414,
                1.469195008277893
            ],
            "min" : [
                0.08482962846755981,
                -0.735031008720398,
                1.2227685451507568
            ],
            "type" : "VEC3"
        },
        {
            "bufferView" : 21,
            "componentType" : 5126,
            "count" : 4,
            "type" : "VEC3"
        },
        {
            "bufferView" : 22,
            "componentType" : 5126,
            "count" : 4,
            "type" : "VEC2"
        },
        {
            "bufferView" : 23,
            "componentType" : 5126,
            "count" : 4,
            "type" : "VEC2"
        },
        {
            "bufferView" : 24,
            "componentType" : 5123,
            "count" : 6,
            "type" : "SCALAR"
        },
        {
            "bufferView" : 25,
            "componentType" : 5126,
            "count" : 52,
            "max" : [
                2.6216700077056885,
                0.8377082943916321,
                3.3985352516174316
            ],
            "min" : [
                -0.23635685443878174,
                -1.88240647315979,
                0.4857933521270752
            ],
            "type" : "VEC3"
        },
        {
            "bufferView" : 26,
            "componentType" : 5126,
            "count" : 52,
            "type" : "VEC3"
        },
        {
            "bufferView" : 27,
            "componentType" : 5126,
            "count" : 52,
            "type" : "VEC2"
        },
        {
            "bufferView" : 28,
            "componentType" : 5126,
            "count" : 52,
            "type" : "VEC2"
        },
        {
            "bufferView" : 29,
            "componentType" : 5123,
            "count" : 78,
            "type" : "SCALAR"
        },
        {
            "bufferView" : 30,
            "componentType" : 5126,
            "count" : 208,
            "max" : [
                1.4830255508422852,
                -0.2970464825630188,
                1.0965403318405151
            ],
            "min" : [
                1.2720569372177124,
                -0.7257565855979919,
                0.886557936668396
            ],
            "type" : "VEC3"
        },
        {
            "bufferView" : 31,
            "componentType" : 5126,
            "count" : 208,
            "type" : "VEC3"
        },
        {
            "bufferView" : 32,
            "componentType" : 5126,
            "count" : 208,
            "type" : "VEC2"
        },
        {
            "bufferView" : 33,
            "componentType" : 5126,
            "count" : 208,
            "type" : "VEC2"
        },
        {
            "bufferView" : 34,
            "componentType" : 5123,
            "count" : 312,
            "type" : "SCALAR"
        }
    ],
    "bufferViews" : [
        {
            "buffer" : 0,
            "byteLength" : 134352,
            "byteOffset" : 0
        },
        {
            "buffer" : 0,
            "byteLength" : 134352,
            "byteOffset" : 134352
        },
        {
            "buffer" : 0,
            "byteLength" : 89568,
            "byteOffset" : 268704
        },
        {
            "buffer" : 0,
            "byteLength" : 89568,
            "byteOffset" : 358272
        },
        {
            "buffer" : 0,
            "byteLength" : 29460,
            "byteOffset" : 447840
        },
        {
            "buffer" : 0,
            "byteLength" : 960,
            "byteOffset" : 477300
        },
        {
            "buffer" : 0,
            "byteLength" : 960,
            "byteOffset" : 478260
        },
        {
            "buffer" : 0,
            "byteLength" : 640,
            "byteOffset" : 479220
        },
        {
            "buffer" : 0,
            "byteLength" : 640,
            "byteOffset" : 479860
        },
        {
            "buffer" : 0,
            "byteLength" : 240,
            "byteOffset" : 480500
        },
        {
            "buffer" : 0,
            "byteLength" : 3216,
            "byteOffset" : 480740
        },
        {
            "buffer" : 0,
            "byteLength" : 3216,
            "byteOffset" : 483956
        },
        {
            "buffer" : 0,
            "byteLength" : 2144,
            "byteOffset" : 487172
        },
        {
            "buffer" : 0,
            "byteLength" : 2144,
            "byteOffset" : 489316
        },
        {
            "buffer" : 0,
            "byteLength" : 804,
            "byteOffset" : 491460
        },
        {
            "buffer" : 0,
            "byteLength" : 96,
            "byteOffset" : 492264
        },
        {
            "buffer" : 0,
            "byteLength" : 96,
            "byteOffset" : 492360
        },
        {
            "buffer" : 0,
            "byteLength" : 64,
            "byteOffset" : 492456
        },
        {
            "buffer" : 0,
            "byteLength" : 64,
            "byteOffset" : 492520
        },
        {
            "buffer" : 0,
            "byteLength" : 24,
            "byteOffset" : 492584
        },
        {
            "buffer" : 0,
            "byteLength" : 48,
            "byteOffset" : 492608
        },
        {
            "buffer" : 0,
            "byteLength" : 48,
            "byteOffset" : 492656
        },
        {
            "buffer" : 0,
            "byteLength" : 32,
            "byteOffset" : 492704
        },
        {
            "buffer" : 0,
            "byteLength" : 32,
            "byteOffset" : 492736
        },
        {
            "buffer" : 0,
            "byteLength" : 12,
            "byteOffset" : 492768
        },
        {
            "buffer" : 0,
            "byteLength" : 624,
            "byteOffset" : 492780
        },
        {
            "buffer" : 0,
            "byteLength" : 624,
            "byteOffset" : 493404
        },
        {
            "buffer" : 0,
            "byteLength" : 416,
            "byteOffset" : 494028
        },
        {
            "buffer" : 0,
            "byteLength" : 416,
            "byteOffset" : 494444
        },
        {
            "buffer" : 0,
            "byteLength" : 156,
            "byteOffset" : 494860
        },
        {
            "buffer" : 0,
            "byteLength" : 2496,
            "byteOffset" : 495016
        },
        {
            "buffer" : 0,
            "byteLength" : 2496,
            "byteOffset" : 497512
        },
        {
            "buffer" : 0,
            "byteLength" : 1664,
            "byteOffset" : 500008
        },
        {
            "buffer" : 0,
            "byteLength" : 1664,
            "byteOffset" : 501672
        },
        {
            "buffer" : 0,
            "byteLength" : 624,
            "byteOffset" : 503336
        }
    ],
    "buffers" : [
        {
            "byteLength" : 503960,
            "uri" : "data:application/octet-stream;base64,"
        }
    ]
}
