{
    "asset" : {
        "generator" : "Khronos glTF Blender I/O v1.4.40",
        "version" : "2.0"
    },
    "scene" : 0,
    "scenes" : [
        {
            "name" : "Scene",
            "nodes" : [
                0
            ]
        }
    ],
    "nodes" : [
        {
            "mesh" : 0,
            "name" : "Cabana Verde 01.002",
            "rotation" : [
                0,
                -0.2653665542602539,
                0,
                0.9641476273536682
            ],
            "scale" : [
                0.5293067693710327,
                0.654229998588562,
                0.5293067693710327
            ],
            "translation" : [
                0.06842464208602905,
                0.8505012392997742,
                -0.028961243107914925
            ]
        }
    ],
    "materials" : [
        {
            "doubleSided" : true,
            "name" : "Madeira_Tronco",
            "pbrMetallicRoughness" : {
                "baseColorFactor" : [
                    0.03578996658325195,
                    0.013453164137899876,
                    0.0010329767828807235,
                    1
                ],
                "metallicFactor" : 0,
                "roughnessFactor" : 0.8252032399177551
            }
        },
        {
            "doubleSided" : true,
            "name" : "Telhado",
            "pbrMetallicRoughness" : {
                "baseColorFactor" : [
                    0.008722119964659214,
                    0.012930264696478844,
                    0.006998451426625252,
                    1
                ],
                "metallicFactor" : 0
            }
        },
        {
            "doubleSided" : true,
            "name" : "Batentes_Verdes",
            "pbrMetallicRoughness" : {
                "baseColorFactor" : [
                    0.04993249848484993,
                    0.0839722752571106,
                    0.02312973327934742,
                    1
                ],
                "metallicFactor" : 0
            }
        },
        {
            "doubleSided" : true,
            "name" : "Vidro",
            "pbrMetallicRoughness" : {
                "baseColorFactor" : [
                    0.6942141652107239,
                    0.7878990173339844,
                    0.8633782863616943,
                    1
                ],
                "metallicFactor" : 0,
                "roughnessFactor" : 0
            }
        },
        {
            "doubleSided" : true,
            "name" : "Porta",
            "pbrMetallicRoughness" : {
                "baseColorFactor" : [
                    0.027806658297777176,
                    0.04517768695950508,
                    0.006976558826863766,
                    1
                ],
                "metallicFactor" : 0
            }
        },
        {
            "doubleSided" : true,
            "name" : "Madeira_Varanda",
            "pbrMetallicRoughness" : {
                "baseColorFactor" : [
                    0.018298877403140068,
                    0.0069776722230017185,
                    0.0008629724616184831,
                    1
                ],
                "metallicFactor" : 0
            }
        }
    ],
    "meshes" : [
        {
            "name" : "Cubo.013",
            "primitives" : [
                {
                    "attributes" : {
                        "POSITION" : 0,
                        "NORMAL" : 1,
                        "TEXCOORD_0" : 2
                    },
                    "indices" : 3,
                    "material" : 0
                },
                {
                    "attributes" : {
                        "POSITION" : 4,
                        "NORMAL" : 5,
                        "TEXCOORD_0" : 6
                    },
                    "indices" : 7,
                    "material" : 1
                },
                {
                    "attributes" : {
                        "POSITION" : 8,
                        "NORMAL" : 9,
                        "TEXCOORD_0" : 10
                    },
                    "indices" : 11,
                    "material" : 2
                },
                {
                    "attributes" : {
                        "POSITION" : 12,
                        "NORMAL" : 13,
                        "TEXCOORD_0" : 14
                    },
                    "indices" : 15,
                    "material" : 3
                },
                {
                    "attributes" : {
                        "POSITION" : 16,
                        "NORMAL" : 17,
                        "TEXCOORD_0" : 18
                    },
                    "indices" : 19,
                    "material" : 4
                },
                {
                    "attributes" : {
                        "POSITION" : 20,
                        "NORMAL" : 21,
                        "TEXCOORD_0" : 22
                    },
                    "indices" : 23,
                    "material" : 5
                }
            ]
        }
    ],
    "accessors" : [
        {
            "bufferView" : 0,
            "componentType" : 5126,
            "count" : 4705,
            "max" : [
                1.5415641069412231,
                1.2794603109359741,
                1.8277819156646729
            ],
            "min" : [
                -2.159085750579834,
                -1.3527673482894897,
                -1.6835039854049683
            ],
            "type" : "VEC3"
        },
        {
            "bufferView" : 1,
            "componentType" : 5126,
            "count" : 4705,
            "type" : "VEC3"
        },
        {
            "bufferView" : 2,
            "componentType" : 5126,
            "count" : 4705,
            "type" : "VEC2"
        },
        {
            "bufferView" : 3,
            "componentType" : 5123,
            "count" : 6393,
            "type" : "SCALAR"
        },
        {
            "bufferView" : 4,
            "componentType" : 5126,
            "count" : 357,
            "max" : [
                1.5852617025375366,
                1.3438793420791626,
                1.8906224966049194
            ],
            "min" : [
                -2.2140538692474365,
                -1.356879472732544,
                -1.774055004119873
            ],
            "type" : "VEC3"
        },
        {
            "bufferView" : 5,
            "componentType" : 5126,
            "count" : 357,
            "type" : "VEC3"
        },
        {
            "bufferView" : 6,
            "componentType" : 5126,
            "count" : 357,
            "type" : "VEC2"
        },
        {
            "bufferView" : 7,
            "componentType" : 5123,
            "count" : 543,
            "type" : "SCALAR"
        },
        {
            "bufferView" : 8,
            "componentType" : 5126,
            "count" : 124,
            "max" : [
                0.766890287399292,
                -0.024194389581680298,
                1.3718650341033936
            ],
            "min" : [
                -0.20034369826316833,
                -0.9885866641998291,
                0.761802077293396
            ],
            "type" : "VEC3"
        },
        {
            "bufferView" : 9,
            "componentType" : 5126,
            "count" : 124,
            "type" : "VEC3"
        },
        {
            "bufferView" : 10,
            "componentType" : 5126,
            "count" : 124,
            "type" : "VEC2"
        },
        {
            "bufferView" : 11,
            "componentType" : 5123,
            "count" : 192,
            "type" : "SCALAR"
        },
        {
            "bufferView" : 12,
            "componentType" : 5126,
            "count" : 20,
            "max" : [
                0.05051186680793762,
                0.3803044557571411,
                1.3333659172058105
            ],
            "min" : [
                -1.0835570096969604,
                -0.5400148630142212,
                0.3783680200576782
            ],
            "type" : "VEC3"
        },
        {
            "bufferView" : 13,
            "componentType" : 5126,
            "count" : 20,
            "type" : "VEC3"
        },
        {
            "bufferView" : 14,
            "componentType" : 5126,
            "count" : 20,
            "type" : "VEC2"
        },
        {
            "bufferView" : 15,
            "componentType" : 5123,
            "count" : 30,
            "type" : "SCALAR"
        },
        {
            "bufferView" : 16,
            "componentType" : 5126,
            "count" : 72,
            "max" : [
                0.7188553214073181,
                0.43926024436950684,
                1.0044478178024292
            ],
            "min" : [
                -1.3841131925582886,
                -0.9885866641998291,
                0.179647296667099
            ],
            "type" : "VEC3"
        },
        {
            "bufferView" : 17,
            "componentType" : 5126,
            "count" : 72,
            "type" : "VEC3"
        },
        {
            "bufferView" : 18,
            "componentType" : 5126,
            "count" : 72,
            "type" : "VEC2"
        },
        {
            "bufferView" : 19,
            "componentType" : 5123,
            "count" : 114,
            "type" : "SCALAR"
        },
        {
            "bufferView" : 20,
            "componentType" : 5126,
            "count" : 558,
            "max" : [
                2.136911153793335,
                -0.05599111318588257,
                2.687002182006836
            ],
            "min" : [
                -0.3526450991630554,
                -1.4642232656478882,
                0.2970534563064575
            ],
            "type" : "VEC3"
        },
        {
            "bufferView" : 21,
            "componentType" : 5126,
            "count" : 558,
            "type" : "VEC3"
        },
        {
            "bufferView" : 22,
            "componentType" : 5126,
            "count" : 558,
            "type" : "VEC2"
        },
        {
            "bufferView" : 23,
            "componentType" : 5123,
            "count" : 840,
            "type" : "SCALAR"
        }
    ],
    "bufferViews" : [
        {
            "buffer" : 0,
            "byteLength" : 56460,
            "byteOffset" : 0
        },
        {
            "buffer" : 0,
            "byteLength" : 56460,
            "byteOffset" : 56460
        },
        {
            "buffer" : 0,
            "byteLength" : 37640,
            "byteOffset" : 112920
        },
        {
            "buffer" : 0,
            "byteLength" : 12786,
            "byteOffset" : 150560
        },
        {
            "buffer" : 0,
            "byteLength" : 4284,
            "byteOffset" : 163348
        },
        {
            "buffer" : 0,
            "byteLength" : 4284,
            "byteOffset" : 167632
        },
        {
            "buffer" : 0,
            "byteLength" : 2856,
            "byteOffset" : 171916
        },
        {
            "buffer" : 0,
            "byteLength" : 1086,
            "byteOffset" : 174772
        },
        {
            "buffer" : 0,
            "byteLength" : 1488,
            "byteOffset" : 175860
        },
        {
            "buffer" : 0,
            "byteLength" : 1488,
            "byteOffset" : 177348
        },
        {
            "buffer" : 0,
            "byteLength" : 992,
            "byteOffset" : 178836
        },
        {
            "buffer" : 0,
            "byteLength" : 384,
            "byteOffset" : 179828
        },
        {
            "buffer" : 0,
            "byteLength" : 240,
            "byteOffset" : 180212
        },
        {
            "buffer" : 0,
            "byteLength" : 240,
            "byteOffset" : 180452
        },
        {
            "buffer" : 0,
            "byteLength" : 160,
            "byteOffset" : 180692
        },
        {
            "buffer" : 0,
            "byteLength" : 60,
            "byteOffset" : 180852
        },
        {
            "buffer" : 0,
            "byteLength" : 864,
            "byteOffset" : 180912
        },
        {
            "buffer" : 0,
            "byteLength" : 864,
            "byteOffset" : 181776
        },
        {
            "buffer" : 0,
            "byteLength" : 576,
            "byteOffset" : 182640
        },
        {
            "buffer" : 0,
            "byteLength" : 228,
            "byteOffset" : 183216
        },
        {
            "buffer" : 0,
            "byteLength" : 6696,
            "byteOffset" : 183444
        },
        {
            "buffer" : 0,
            "byteLength" : 6696,
            "byteOffset" : 190140
        },
        {
            "buffer" : 0,
            "byteLength" : 4464,
            "byteOffset" : 196836
        },
        {
            "buffer" : 0,
            "byteLength" : 1680,
            "byteOffset" : 201300
        }
    ],
    "buffers" : [
        {
            "byteLength" : 202980,
            "uri" : "data:application/octet-stream;base64,"
        }
    ]
}
