{
    "asset" : {
        "generator" : "Khronos glTF Blender I/O v1.4.40",
        "version" : "2.0"
    },
    "scene" : 0,
    "scenes" : [
        {
            "name" : "Scene",
            "nodes" : [
                0
            ]
        }
    ],
    "nodes" : [
        {
            "mesh" : 0,
            "name" : "Cabana Verde 02.003",
            "rotation" : [
                0,
                -0.2653665542602539,
                0,
                0.9641476273536682
            ],
            "scale" : [
                0.5609170794487,
                0.7293293476104736,
                0.5609170794487
            ],
            "translation" : [
                0.06842464208602905,
                0.5517547130584717,
                -0.028961243107914925
            ]
        }
    ],
    "materials" : [
        {
            "doubleSided" : true,
            "name" : "Madeira_Tronco",
            "pbrMetallicRoughness" : {
                "baseColorFactor" : [
                    0.03578996658325195,
                    0.013453164137899876,
                    0.0010329767828807235,
                    1
                ],
                "metallicFactor" : 0,
                "roughnessFactor" : 0.8252032399177551
            }
        },
        {
            "doubleSided" : true,
            "name" : "Telhado",
            "pbrMetallicRoughness" : {
                "baseColorFactor" : [
                    0.008722119964659214,
                    0.012930264696478844,
                    0.006998451426625252,
                    1
                ],
                "metallicFactor" : 0
            }
        },
        {
            "doubleSided" : true,
            "name" : "Batentes_Verdes",
            "pbrMetallicRoughness" : {
                "baseColorFactor" : [
                    0.04993249848484993,
                    0.0839722752571106,
                    0.02312973327934742,
                    1
                ],
                "metallicFactor" : 0
            }
        },
        {
            "doubleSided" : true,
            "name" : "Vidro",
            "pbrMetallicRoughness" : {
                "baseColorFactor" : [
                    0.6942141652107239,
                    0.7878990173339844,
                    0.8633782863616943,
                    1
                ],
                "metallicFactor" : 0,
                "roughnessFactor" : 0
            }
        },
        {
            "doubleSided" : true,
            "name" : "Porta",
            "pbrMetallicRoughness" : {
                "baseColorFactor" : [
                    0.027806658297777176,
                    0.04517768695950508,
                    0.006976558826863766,
                    1
                ],
                "metallicFactor" : 0
            }
        },
        {
            "doubleSided" : true,
            "name" : "Madeira_Varanda",
            "pbrMetallicRoughness" : {
                "baseColorFactor" : [
                    0.018298877403140068,
                    0.0069776722230017185,
                    0.0008629724616184831,
                    1
                ],
                "metallicFactor" : 0
            }
        },
        {
            "doubleSided" : true,
            "name" : "Cinza 2",
            "pbrMetallicRoughness" : {
                "baseColorFactor" : [
                    0.1451750099658966,
                    0.1451750099658966,
                    0.1451750099658966,
                    1
                ],
                "metallicFactor" : 0,
                "roughnessFactor" : 0.5
            }
        },
        {
            "doubleSided" : true,
            "name" : "Madeira A1",
            "pbrMetallicRoughness" : {
                "baseColorFactor" : [
                    0.11906564980745316,
                    0.03659350052475929,
                    0.00952488835901022,
                    1
                ],
                "metallicFactor" : 0,
                "roughnessFactor" : 0.8821138143539429
            }
        },
        {
            "doubleSided" : true,
            "name" : "Veado",
            "pbrMetallicRoughness" : {
                "baseColorFactor" : [
                    0.045184239745140076,
                    0.01366649940609932,
                    0.003548399079591036,
                    1
                ],
                "metallicFactor" : 0,
                "roughnessFactor" : 0.914634108543396
            }
        },
        {
            "doubleSided" : true,
            "name" : "Veado_Chifre",
            "pbrMetallicRoughness" : {
                "baseColorFactor" : [
                    0.4641399383544922,
                    0.2512119710445404,
                    0.18580101430416107,
                    1
                ],
                "metallicFactor" : 0
            }
        }
    ],
    "meshes" : [
        {
            "name" : "Cubo.007",
            "primitives" : [
                {
                    "attributes" : {
                        "POSITION" : 0,
                        "NORMAL" : 1,
                        "TEXCOORD_0" : 2,
                        "TEXCOORD_1" : 3
                    },
                    "indices" : 4,
                    "material" : 0
                },
                {
                    "attributes" : {
                        "POSITION" : 5,
                        "NORMAL" : 6,
                        "TEXCOORD_0" : 7,
                        "TEXCOORD_1" : 8
                    },
                    "indices" : 9,
                    "material" : 1
                },
                {
                    "attributes" : {
                        "POSITION" : 10,
                        "NORMAL" : 11,
                        "TEXCOORD_0" : 12,
                        "TEXCOORD_1" : 13
                    },
                    "indices" : 14,
                    "material" : 2
                },
                {
                    "attributes" : {
                        "POSITION" : 15,
                        "NORMAL" : 16,
                        "TEXCOORD_0" : 17,
                        "TEXCOORD_1" : 18
                    },
                    "indices" : 19,
                    "material" : 3
                },
                {
                    "attributes" : {
                        "POSITION" : 20,
                        "NORMAL" : 21,
                        "TEXCOORD_0" : 22,
                        "TEXCOORD_1" : 23
                    },
                    "indices" : 24,
                    "material" : 4
                },
                {
                    "attributes" : {
                        "POSITION" : 25,
                        "NORMAL" : 26,
                        "TEXCOORD_0" : 27,
                        "TEXCOORD_1" : 28
                    },
                    "indices" : 29,
                    "material" : 5
                },
                {
                    "attributes" : {
                        "POSITION" : 30,
                        "NORMAL" : 31,
                        "TEXCOORD_0" : 32,
                        "TEXCOORD_1" : 33
                    },
                    "indices" : 34,
                    "material" : 6
                },
                {
                    "attributes" : {
                        "POSITION" : 35,
                        "NORMAL" : 36,
                        "TEXCOORD_0" : 37,
                        "TEXCOORD_1" : 38
                    },
                    "indices" : 39,
                    "material" : 7
                },
                {
                    "attributes" : {
                        "POSITION" : 40,
                        "NORMAL" : 41,
                        "TEXCOORD_0" : 42,
                        "TEXCOORD_1" : 43
                    },
                    "indices" : 44,
                    "material" : 8
                },
                {
                    "attributes" : {
                        "POSITION" : 45,
                        "NORMAL" : 46,
                        "TEXCOORD_0" : 47,
                        "TEXCOORD_1" : 48
                    },
                    "indices" : 49,
                    "material" : 9
                }
            ]
        }
    ],
    "accessors" : [
        {
            "bufferView" : 0,
            "componentType" : 5126,
            "count" : 5676,
            "max" : [
                1.5117768049240112,
                1.5620431900024414,
                1.6117916107177734
            ],
            "min" : [
                -1.3995697498321533,
                -0.8978233337402344,
                -1.4666132926940918
            ],
            "type" : "VEC3"
        },
        {
            "bufferView" : 1,
            "componentType" : 5126,
            "count" : 5676,
            "type" : "VEC3"
        },
        {
            "bufferView" : 2,
            "componentType" : 5126,
            "count" : 5676,
            "type" : "VEC2"
        },
        {
            "bufferView" : 3,
            "componentType" : 5126,
            "count" : 5676,
            "type" : "VEC2"
        },
        {
            "bufferView" : 4,
            "componentType" : 5123,
            "count" : 7482,
            "type" : "SCALAR"
        },
        {
            "bufferView" : 5,
            "componentType" : 5126,
            "count" : 40,
            "max" : [
                2.19570255279541,
                1.688571810722351,
                2.571873188018799
            ],
            "min" : [
                -1.6682451963424683,
                0.4768230617046356,
                -1.7031433582305908
            ],
            "type" : "VEC3"
        },
        {
            "bufferView" : 6,
            "componentType" : 5126,
            "count" : 40,
            "type" : "VEC3"
        },
        {
            "bufferView" : 7,
            "componentType" : 5126,
            "count" : 40,
            "type" : "VEC2"
        },
        {
            "bufferView" : 8,
            "componentType" : 5126,
            "count" : 40,
            "type" : "VEC2"
        },
        {
            "bufferView" : 9,
            "componentType" : 5123,
            "count" : 60,
            "type" : "SCALAR"
        },
        {
            "bufferView" : 10,
            "componentType" : 5126,
            "count" : 196,
            "max" : [
                1.324694037437439,
                0.19882187247276306,
                1.0619101524353027
            ],
            "min" : [
                -0.9811936616897583,
                -0.7353019118309021,
                0.23568189144134521
            ],
            "type" : "VEC3"
        },
        {
            "bufferView" : 11,
            "componentType" : 5126,
            "count" : 196,
            "type" : "VEC3"
        },
        {
            "bufferView" : 12,
            "componentType" : 5126,
            "count" : 196,
            "type" : "VEC2"
        },
        {
            "bufferView" : 13,
            "componentType" : 5126,
            "count" : 196,
            "type" : "VEC2"
        },
        {
            "bufferView" : 14,
            "componentType" : 5123,
            "count" : 294,
            "type" : "SCALAR"
        },
        {
            "bufferView" : 15,
            "componentType" : 5126,
            "count" : 4,
            "max" : [
                -0.5710242986679077,
                0.16333508491516113,
                0.8676220774650574
            ],
            "min" : [
                -0.9250544309616089,
                -0.3145054280757904,
                0.28452885150909424
            ],
            "type" : "VEC3"
        },
        {
            "bufferView" : 16,
            "componentType" : 5126,
            "count" : 4,
            "type" : "VEC3"
        },
        {
            "bufferView" : 17,
            "componentType" : 5126,
            "count" : 4,
            "type" : "VEC2"
        },
        {
            "bufferView" : 18,
            "componentType" : 5126,
            "count" : 4,
            "type" : "VEC2"
        },
        {
            "bufferView" : 19,
            "componentType" : 5123,
            "count" : 6,
            "type" : "SCALAR"
        },
        {
            "bufferView" : 20,
            "componentType" : 5126,
            "count" : 4,
            "max" : [
                1.2771759033203125,
                0.13423147797584534,
                1.0211410522460938
            ],
            "min" : [
                0.8545944690704346,
                -0.7350310683250427,
                0.764567494392395
            ],
            "type" : "VEC3"
        },
        {
            "bufferView" : 21,
            "componentType" : 5126,
            "count" : 4,
            "type" : "VEC3"
        },
        {
            "bufferView" : 22,
            "componentType" : 5126,
            "count" : 4,
            "type" : "VEC2"
        },
        {
            "bufferView" : 23,
            "componentType" : 5126,
            "count" : 4,
            "type" : "VEC2"
        },
        {
            "bufferView" : 24,
            "componentType" : 5123,
            "count" : 6,
            "type" : "SCALAR"
        },
        {
            "bufferView" : 25,
            "componentType" : 5126,
            "count" : 52,
            "max" : [
                2.6216700077056885,
                0.8377082943916321,
                3.3985352516174316
            ],
            "min" : [
                -0.23635685443878174,
                -1.88240647315979,
                0.4857933521270752
            ],
            "type" : "VEC3"
        },
        {
            "bufferView" : 26,
            "componentType" : 5126,
            "count" : 52,
            "type" : "VEC3"
        },
        {
            "bufferView" : 27,
            "componentType" : 5126,
            "count" : 52,
            "type" : "VEC2"
        },
        {
            "bufferView" : 28,
            "componentType" : 5126,
            "count" : 52,
            "type" : "VEC2"
        },
        {
            "bufferView" : 29,
            "componentType" : 5123,
            "count" : 78,
            "type" : "SCALAR"
        },
        {
            "bufferView" : 30,
            "componentType" : 5126,
            "count" : 56,
            "max" : [
                0.6117951273918152,
                1.705538272857666,
                -0.5384612083435059
            ],
            "min" : [
                -0.007095513865351677,
                -0.5989862084388733,
                -1.2127810716629028
            ],
            "type" : "VEC3"
        },
        {
            "bufferView" : 31,
            "componentType" : 5126,
            "count" : 56,
            "type" : "VEC3"
        },
        {
            "bufferView" : 32,
            "componentType" : 5126,
            "count" : 56,
            "type" : "VEC2"
        },
        {
            "bufferView" : 33,
            "componentType" : 5126,
            "count" : 56,
            "type" : "VEC2"
        },
        {
            "bufferView" : 34,
            "componentType" : 5123,
            "count" : 90,
            "type" : "SCALAR"
        },
        {
            "bufferView" : 35,
            "componentType" : 5126,
            "count" : 72,
            "max" : [
                0.8467867970466614,
                0.7748161554336548,
                1.231758952140808
            ],
            "min" : [
                0.5648422241210938,
                0.3669406771659851,
                1.0417858362197876
            ],
            "type" : "VEC3"
        },
        {
            "bufferView" : 36,
            "componentType" : 5126,
            "count" : 72,
            "type" : "VEC3"
        },
        {
            "bufferView" : 37,
            "componentType" : 5126,
            "count" : 72,
            "type" : "VEC2"
        },
        {
            "bufferView" : 38,
            "componentType" : 5126,
            "count" : 72,
            "type" : "VEC2"
        },
        {
            "bufferView" : 39,
            "componentType" : 5123,
            "count" : 108,
            "type" : "SCALAR"
        },
        {
            "bufferView" : 40,
            "componentType" : 5126,
            "count" : 900,
            "max" : [
                0.8219601511955261,
                0.7705882787704468,
                1.2943934202194214
            ],
            "min" : [
                0.6683297753334045,
                0.48122692108154297,
                1.105547308921814
            ],
            "type" : "VEC3"
        },
        {
            "bufferView" : 41,
            "componentType" : 5126,
            "count" : 900,
            "type" : "VEC3"
        },
        {
            "bufferView" : 42,
            "componentType" : 5126,
            "count" : 900,
            "type" : "VEC2"
        },
        {
            "bufferView" : 43,
            "componentType" : 5126,
            "count" : 900,
            "type" : "VEC2"
        },
        {
            "bufferView" : 44,
            "componentType" : 5123,
            "count" : 900,
            "type" : "SCALAR"
        },
        {
            "bufferView" : 45,
            "componentType" : 5126,
            "count" : 1743,
            "max" : [
                0.9222748875617981,
                0.8901758193969727,
                1.3467652797698975
            ],
            "min" : [
                0.6134732365608215,
                0.6908323764801025,
                1.120872974395752
            ],
            "type" : "VEC3"
        },
        {
            "bufferView" : 46,
            "componentType" : 5126,
            "count" : 1743,
            "type" : "VEC3"
        },
        {
            "bufferView" : 47,
            "componentType" : 5126,
            "count" : 1743,
            "type" : "VEC2"
        },
        {
            "bufferView" : 48,
            "componentType" : 5126,
            "count" : 1743,
            "type" : "VEC2"
        },
        {
            "bufferView" : 49,
            "componentType" : 5123,
            "count" : 1743,
            "type" : "SCALAR"
        }
    ],
    "bufferViews" : [
        {
            "buffer" : 0,
            "byteLength" : 68112,
            "byteOffset" : 0
        },
        {
            "buffer" : 0,
            "byteLength" : 68112,
            "byteOffset" : 68112
        },
        {
            "buffer" : 0,
            "byteLength" : 45408,
            "byteOffset" : 136224
        },
        {
            "buffer" : 0,
            "byteLength" : 45408,
            "byteOffset" : 181632
        },
        {
            "buffer" : 0,
            "byteLength" : 14964,
            "byteOffset" : 227040
        },
        {
            "buffer" : 0,
            "byteLength" : 480,
            "byteOffset" : 242004
        },
        {
            "buffer" : 0,
            "byteLength" : 480,
            "byteOffset" : 242484
        },
        {
            "buffer" : 0,
            "byteLength" : 320,
            "byteOffset" : 242964
        },
        {
            "buffer" : 0,
            "byteLength" : 320,
            "byteOffset" : 243284
        },
        {
            "buffer" : 0,
            "byteLength" : 120,
            "byteOffset" : 243604
        },
        {
            "buffer" : 0,
            "byteLength" : 2352,
            "byteOffset" : 243724
        },
        {
            "buffer" : 0,
            "byteLength" : 2352,
            "byteOffset" : 246076
        },
        {
            "buffer" : 0,
            "byteLength" : 1568,
            "byteOffset" : 248428
        },
        {
            "buffer" : 0,
            "byteLength" : 1568,
            "byteOffset" : 249996
        },
        {
            "buffer" : 0,
            "byteLength" : 588,
            "byteOffset" : 251564
        },
        {
            "buffer" : 0,
            "byteLength" : 48,
            "byteOffset" : 252152
        },
        {
            "buffer" : 0,
            "byteLength" : 48,
            "byteOffset" : 252200
        },
        {
            "buffer" : 0,
            "byteLength" : 32,
            "byteOffset" : 252248
        },
        {
            "buffer" : 0,
            "byteLength" : 32,
            "byteOffset" : 252280
        },
        {
            "buffer" : 0,
            "byteLength" : 12,
            "byteOffset" : 252312
        },
        {
            "buffer" : 0,
            "byteLength" : 48,
            "byteOffset" : 252324
        },
        {
            "buffer" : 0,
            "byteLength" : 48,
            "byteOffset" : 252372
        },
        {
            "buffer" : 0,
            "byteLength" : 32,
            "byteOffset" : 252420
        },
        {
            "buffer" : 0,
            "byteLength" : 32,
            "byteOffset" : 252452
        },
        {
            "buffer" : 0,
            "byteLength" : 12,
            "byteOffset" : 252484
        },
        {
            "buffer" : 0,
            "byteLength" : 624,
            "byteOffset" : 252496
        },
        {
            "buffer" : 0,
            "byteLength" : 624,
            "byteOffset" : 253120
        },
        {
            "buffer" : 0,
            "byteLength" : 416,
            "byteOffset" : 253744
        },
        {
            "buffer" : 0,
            "byteLength" : 416,
            "byteOffset" : 254160
        },
        {
            "buffer" : 0,
            "byteLength" : 156,
            "byteOffset" : 254576
        },
        {
            "buffer" : 0,
            "byteLength" : 672,
            "byteOffset" : 254732
        },
        {
            "buffer" : 0,
            "byteLength" : 672,
            "byteOffset" : 255404
        },
        {
            "buffer" : 0,
            "byteLength" : 448,
            "byteOffset" : 256076
        },
        {
            "buffer" : 0,
            "byteLength" : 448,
            "byteOffset" : 256524
        },
        {
            "buffer" : 0,
            "byteLength" : 180,
            "byteOffset" : 256972
        },
        {
            "buffer" : 0,
            "byteLength" : 864,
            "byteOffset" : 257152
        },
        {
            "buffer" : 0,
            "byteLength" : 864,
            "byteOffset" : 258016
        },
        {
            "buffer" : 0,
            "byteLength" : 576,
            "byteOffset" : 258880
        },
        {
            "buffer" : 0,
            "byteLength" : 576,
            "byteOffset" : 259456
        },
        {
            "buffer" : 0,
            "byteLength" : 216,
            "byteOffset" : 260032
        },
        {
            "buffer" : 0,
            "byteLength" : 10800,
            "byteOffset" : 260248
        },
        {
            "buffer" : 0,
            "byteLength" : 10800,
            "byteOffset" : 271048
        },
        {
            "buffer" : 0,
            "byteLength" : 7200,
            "byteOffset" : 281848
        },
        {
            "buffer" : 0,
            "byteLength" : 7200,
            "byteOffset" : 289048
        },
        {
            "buffer" : 0,
            "byteLength" : 1800,
            "byteOffset" : 296248
        },
        {
            "buffer" : 0,
            "byteLength" : 20916,
            "byteOffset" : 298048
        },
        {
            "buffer" : 0,
            "byteLength" : 20916,
            "byteOffset" : 318964
        },
        {
            "buffer" : 0,
            "byteLength" : 13944,
            "byteOffset" : 339880
        },
        {
            "buffer" : 0,
            "byteLength" : 13944,
            "byteOffset" : 353824
        },
        {
            "buffer" : 0,
            "byteLength" : 3486,
            "byteOffset" : 367768
        }
    ],
    "buffers" : [
        {
            "byteLength" : 371256,
            "uri" : "data:application/octet-stream;base64,"
        }
    ]
}
