{
    "asset" : {
        "generator" : "Khronos glTF Blender I/O v1.4.40",
        "version" : "2.0"
    },
    "scene" : 0,
    "scenes" : [
        {
            "name" : "Scene",
            "nodes" : [
                0
            ]
        }
    ],
    "nodes" : [
        {
            "mesh" : 0,
            "name" : "Po\u00e7o_Verde",
            "rotation" : [
                0,
                0.007600185461342335,
                0,
                0.9999712109565735
            ],
            "scale" : [
                0.023849884048104286,
                0.023849891498684883,
                0.023849884048104286
            ],
            "translation" : [
                -3.513237476348877,
                12.151611328125,
                -43.413291931152344
            ]
        }
    ],
    "materials" : [
        {
            "doubleSided" : true,
            "name" : "Verde A1",
            "pbrMetallicRoughness" : {
                "baseColorFactor" : [
                    0.004776949994266033,
                    0.019382363185286522,
                    0.009721221402287483,
                    1
                ],
                "metallicFactor" : 0
            }
        },
        {
            "doubleSided" : true,
            "name" : "Madeira_Varanda",
            "pbrMetallicRoughness" : {
                "baseColorFactor" : [
                    0.018298877403140068,
                    0.0069776722230017185,
                    0.0008629724616184831,
                    1
                ],
                "metallicFactor" : 0
            }
        },
        {
            "doubleSided" : true,
            "name" : "Carvalho 2",
            "pbrMetallicRoughness" : {
                "baseColorFactor" : [
                    0.025554239749908447,
                    0.051268577575683594,
                    0.0022900071926414967,
                    1
                ],
                "metallicFactor" : 0
            }
        },
        {
            "doubleSided" : true,
            "name" : "Verde A4",
            "pbrMetallicRoughness" : {
                "baseColorFactor" : [
                    0.0003035252448171377,
                    0.019382361322641373,
                    0.003035270143300295,
                    1
                ],
                "metallicFactor" : 0
            }
        },
        {
            "doubleSided" : true,
            "name" : "Cinza 2",
            "pbrMetallicRoughness" : {
                "baseColorFactor" : [
                    0.1451750099658966,
                    0.1451750099658966,
                    0.1451750099658966,
                    1
                ],
                "metallicFactor" : 0,
                "roughnessFactor" : 0.5
            }
        }
    ],
    "meshes" : [
        {
            "name" : "C\u00edrculo.004",
            "primitives" : [
                {
                    "attributes" : {
                        "POSITION" : 0,
                        "NORMAL" : 1,
                        "TEXCOORD_0" : 2
                    },
                    "indices" : 3,
                    "material" : 0
                },
                {
                    "attributes" : {
                        "POSITION" : 4,
                        "NORMAL" : 5,
                        "TEXCOORD_0" : 6
                    },
                    "indices" : 7,
                    "material" : 1
                },
                {
                    "attributes" : {
                        "POSITION" : 8,
                        "NORMAL" : 9,
                        "TEXCOORD_0" : 10
                    },
                    "indices" : 11,
                    "material" : 2
                },
                {
                    "attributes" : {
                        "POSITION" : 12,
                        "NORMAL" : 13,
                        "TEXCOORD_0" : 14
                    },
                    "indices" : 15,
                    "material" : 3
                },
                {
                    "attributes" : {
                        "POSITION" : 16,
                        "NORMAL" : 17,
                        "TEXCOORD_0" : 18
                    },
                    "indices" : 19,
                    "material" : 4
                }
            ]
        }
    ],
    "accessors" : [
        {
            "bufferView" : 0,
            "componentType" : 5126,
            "count" : 24,
            "max" : [
                5.935346603393555,
                19.134241104125977,
                9.81787109375
            ],
            "min" : [
                -5.732999801635742,
                6.717048168182373,
                -9.363317489624023
            ],
            "type" : "VEC3"
        },
        {
            "bufferView" : 1,
            "componentType" : 5126,
            "count" : 24,
            "type" : "VEC3"
        },
        {
            "bufferView" : 2,
            "componentType" : 5126,
            "count" : 24,
            "type" : "VEC2"
        },
        {
            "bufferView" : 3,
            "componentType" : 5123,
            "count" : 36,
            "type" : "SCALAR"
        },
        {
            "bufferView" : 4,
            "componentType" : 5126,
            "count" : 126,
            "max" : [
                6.5274858474731445,
                19.50689697265625,
                10.459308624267578
            ],
            "min" : [
                -6.429359436035156,
                -7.537121772766113,
                -10.004755020141602
            ],
            "type" : "VEC3"
        },
        {
            "bufferView" : 5,
            "componentType" : 5126,
            "count" : 126,
            "type" : "VEC3"
        },
        {
            "bufferView" : 6,
            "componentType" : 5126,
            "count" : 126,
            "type" : "VEC2"
        },
        {
            "bufferView" : 7,
            "componentType" : 5123,
            "count" : 192,
            "type" : "SCALAR"
        },
        {
            "bufferView" : 8,
            "componentType" : 5126,
            "count" : 3716,
            "max" : [
                1.4866231679916382,
                9.332406044006348,
                0.500983715057373
            ],
            "min" : [
                -1.4921897649765015,
                1.7854986190795898,
                -0.8890286684036255
            ],
            "type" : "VEC3"
        },
        {
            "bufferView" : 9,
            "componentType" : 5126,
            "count" : 3716,
            "type" : "VEC3"
        },
        {
            "bufferView" : 10,
            "componentType" : 5126,
            "count" : 3716,
            "type" : "VEC2"
        },
        {
            "bufferView" : 11,
            "componentType" : 5123,
            "count" : 5532,
            "type" : "SCALAR"
        },
        {
            "bufferView" : 12,
            "componentType" : 5126,
            "count" : 360,
            "max" : [
                1.2941724061965942,
                2.4607999324798584,
                1.2323744297027588
            ],
            "min" : [
                -1.2941722869873047,
                0.2949588894844055,
                -1.345871090888977
            ],
            "type" : "VEC3"
        },
        {
            "bufferView" : 13,
            "componentType" : 5126,
            "count" : 360,
            "type" : "VEC3"
        },
        {
            "bufferView" : 14,
            "componentType" : 5126,
            "count" : 360,
            "type" : "VEC2"
        },
        {
            "bufferView" : 15,
            "componentType" : 5123,
            "count" : 558,
            "type" : "SCALAR"
        },
        {
            "bufferView" : 16,
            "componentType" : 5126,
            "count" : 3680,
            "max" : [
                5.413268566131592,
                0.5197162628173828,
                5.577001094818115
            ],
            "min" : [
                -5.207822799682617,
                -7.786174774169922,
                -5.068794250488281
            ],
            "type" : "VEC3"
        },
        {
            "bufferView" : 17,
            "componentType" : 5126,
            "count" : 3680,
            "type" : "VEC3"
        },
        {
            "bufferView" : 18,
            "componentType" : 5126,
            "count" : 3680,
            "type" : "VEC2"
        },
        {
            "bufferView" : 19,
            "componentType" : 5123,
            "count" : 5040,
            "type" : "SCALAR"
        }
    ],
    "bufferViews" : [
        {
            "buffer" : 0,
            "byteLength" : 288,
            "byteOffset" : 0
        },
        {
            "buffer" : 0,
            "byteLength" : 288,
            "byteOffset" : 288
        },
        {
            "buffer" : 0,
            "byteLength" : 192,
            "byteOffset" : 576
        },
        {
            "buffer" : 0,
            "byteLength" : 72,
            "byteOffset" : 768
        },
        {
            "buffer" : 0,
            "byteLength" : 1512,
            "byteOffset" : 840
        },
        {
            "buffer" : 0,
            "byteLength" : 1512,
            "byteOffset" : 2352
        },
        {
            "buffer" : 0,
            "byteLength" : 1008,
            "byteOffset" : 3864
        },
        {
            "buffer" : 0,
            "byteLength" : 384,
            "byteOffset" : 4872
        },
        {
            "buffer" : 0,
            "byteLength" : 44592,
            "byteOffset" : 5256
        },
        {
            "buffer" : 0,
            "byteLength" : 44592,
            "byteOffset" : 49848
        },
        {
            "buffer" : 0,
            "byteLength" : 29728,
            "byteOffset" : 94440
        },
        {
            "buffer" : 0,
            "byteLength" : 11064,
            "byteOffset" : 124168
        },
        {
            "buffer" : 0,
            "byteLength" : 4320,
            "byteOffset" : 135232
        },
        {
            "buffer" : 0,
            "byteLength" : 4320,
            "byteOffset" : 139552
        },
        {
            "buffer" : 0,
            "byteLength" : 2880,
            "byteOffset" : 143872
        },
        {
            "buffer" : 0,
            "byteLength" : 1116,
            "byteOffset" : 146752
        },
        {
            "buffer" : 0,
            "byteLength" : 44160,
            "byteOffset" : 147868
        },
        {
            "buffer" : 0,
            "byteLength" : 44160,
            "byteOffset" : 192028
        },
        {
            "buffer" : 0,
            "byteLength" : 29440,
            "byteOffset" : 236188
        },
        {
            "buffer" : 0,
            "byteLength" : 10080,
            "byteOffset" : 265628
        }
    ],
    "buffers" : [
        {
            "byteLength" : 275708,
            "uri" : "data:application/octet-stream;base64,"
        }
    ]
}
