{
    "asset" : {
        "generator" : "Khronos glTF Blender I/O v1.4.40",
        "version" : "2.0"
    },
    "scene" : 0,
    "scenes" : [
        {
            "name" : "Scene",
            "nodes" : [
                0
            ]
        }
    ],
    "nodes" : [
        {
            "mesh" : 0,
            "name" : "Tronco 01",
            "rotation" : [
                -0.35856521129608154,
                0.3715333044528961,
                -0.6584982872009277,
                0.5475163459777832
            ],
            "scale" : [
                0.04307810962200165,
                0.29571229219436646,
                0.04096631333231926
            ],
            "translation" : [
                -7.688436985015869,
                11.963127136230469,
                -41.27439880371094
            ]
        }
    ],
    "materials" : [
        {
            "doubleSided" : true,
            "name" : "Madeira_Tronco",
            "pbrMetallicRoughness" : {
                "baseColorFactor" : [
                    0.03578996658325195,
                    0.013453164137899876,
                    0.0010329767828807235,
                    1
                ],
                "metallicFactor" : 0,
                "roughnessFactor" : 0.8252032399177551
            }
        }
    ],
    "meshes" : [
        {
            "name" : "Cilindro.003",
            "primitives" : [
                {
                    "attributes" : {
                        "POSITION" : 0,
                        "NORMAL" : 1,
                        "TEXCOORD_0" : 2
                    },
                    "indices" : 3,
                    "material" : 0
                }
            ]
        }
    ],
    "accessors" : [
        {
            "bufferView" : 0,
            "componentType" : 5126,
            "count" : 1057,
            "max" : [
                1,
                0.5608213543891907,
                1.7575968503952026
            ],
            "min" : [
                -1.0032095909118652,
                -0.8255407810211182,
                -1.0015206336975098
            ],
            "type" : "VEC3"
        },
        {
            "bufferView" : 1,
            "componentType" : 5126,
            "count" : 1057,
            "type" : "VEC3"
        },
        {
            "bufferView" : 2,
            "componentType" : 5126,
            "count" : 1057,
            "type" : "VEC2"
        },
        {
            "bufferView" : 3,
            "componentType" : 5123,
            "count" : 1584,
            "type" : "SCALAR"
        }
    ],
    "bufferViews" : [
        {
            "buffer" : 0,
            "byteLength" : 12684,
            "byteOffset" : 0
        },
        {
            "buffer" : 0,
            "byteLength" : 12684,
            "byteOffset" : 12684
        },
        {
            "buffer" : 0,
            "byteLength" : 8456,
            "byteOffset" : 25368
        },
        {
            "buffer" : 0,
            "byteLength" : 3168,
            "byteOffset" : 33824
        }
    ],
    "buffers" : [
        {
            "byteLength" : 36992,
            "uri" : "data:application/octet-stream;base64,"
        }
    ]
}
