{
    "asset" : {
        "generator" : "Khronos glTF Blender I/O v1.4.40",
        "version" : "2.0"
    },
    "scene" : 0,
    "scenes" : [
        {
            "name" : "Scene",
            "nodes" : [
                0
            ]
        }
    ],
    "nodes" : [
        {
            "mesh" : 0,
            "name" : "Escada",
            "rotation" : [
                0,
                -0.6487606763839722,
                0,
                0.7609926462173462
            ],
            "scale" : [
                0.09950319677591324,
                0.09950319677591324,
                0.09950319677591324
            ],
            "translation" : [
                -65.84835815429688,
                35.12118148803711,
                -2.678866386413574
            ]
        }
    ],
    "materials" : [
        {
            "doubleSided" : true,
            "name" : "Madeira.001",
            "pbrMetallicRoughness" : {
                "baseColorFactor" : [
                    0.13287509977817535,
                    0.047027338296175,
                    0.028980640694499016,
                    1
                ],
                "metallicFactor" : 0
            }
        }
    ],
    "meshes" : [
        {
            "name" : "Cubo.100",
            "primitives" : [
                {
                    "attributes" : {
                        "POSITION" : 0,
                        "NORMAL" : 1,
                        "TEXCOORD_0" : 2
                    },
                    "indices" : 3,
                    "material" : 0
                }
            ]
        }
    ],
    "accessors" : [
        {
            "bufferView" : 0,
            "componentType" : 5126,
            "count" : 336,
            "max" : [
                2.064077854156494,
                6.123518943786621,
                11.776339530944824
            ],
            "min" : [
                -2.121208429336548,
                -9.411641120910645,
                -0.6595661640167236
            ],
            "type" : "VEC3"
        },
        {
            "bufferView" : 1,
            "componentType" : 5126,
            "count" : 336,
            "type" : "VEC3"
        },
        {
            "bufferView" : 2,
            "componentType" : 5126,
            "count" : 336,
            "type" : "VEC2"
        },
        {
            "bufferView" : 3,
            "componentType" : 5123,
            "count" : 504,
            "type" : "SCALAR"
        }
    ],
    "bufferViews" : [
        {
            "buffer" : 0,
            "byteLength" : 4032,
            "byteOffset" : 0
        },
        {
            "buffer" : 0,
            "byteLength" : 4032,
            "byteOffset" : 4032
        },
        {
            "buffer" : 0,
            "byteLength" : 2688,
            "byteOffset" : 8064
        },
        {
            "buffer" : 0,
            "byteLength" : 1008,
            "byteOffset" : 10752
        }
    ],
    "buffers" : [
        {
            "byteLength" : 11760,
            "uri" : "data:application/octet-stream;base64,"
        }
    ]
}
