{
    "asset" : {
        "generator" : "Khronos glTF Blender I/O v1.4.40",
        "version" : "2.0"
    },
    "scene" : 0,
    "scenes" : [
        {
            "name" : "Scene",
            "nodes" : [
                0,
                1
            ]
        }
    ],
    "nodes" : [
        {
            "mesh" : 0,
            "name" : "Escada.001",
            "rotation" : [
                0,
                -0.9560261964797974,
                0,
                0.29328134655952454
            ],
            "scale" : [
                0.09950319677591324,
                0.09950319677591324,
                0.09950319677591324
            ],
            "translation" : [
                -54.57752227783203,
                21.35131072998047,
                7.60636568069458
            ]
        },
        {
            "mesh" : 1,
            "name" : "Escada.002",
            "rotation" : [
                0,
                -0.49261876940727234,
                0,
                0.8702452182769775
            ],
            "scale" : [
                0.09950319677591324,
                0.09950319677591324,
                0.09950319677591324
            ],
            "translation" : [
                -53.0048713684082,
                31.863910675048828,
                -11.77499008178711
            ]
        }
    ],
    "materials" : [
        {
            "doubleSided" : true,
            "name" : "Madeira",
            "pbrMetallicRoughness" : {
                "baseColorFactor" : [
                    0.13287509977817535,
                    0.047027338296175,
                    0.028980640694499016,
                    1
                ],
                "metallicFactor" : 0
            }
        }
    ],
    "meshes" : [
        {
            "name" : "Cubo.029",
            "primitives" : [
                {
                    "attributes" : {
                        "POSITION" : 0,
                        "NORMAL" : 1,
                        "TEXCOORD_0" : 2
                    },
                    "indices" : 3,
                    "material" : 0
                }
            ]
        },
        {
            "name" : "Cubo.030",
            "primitives" : [
                {
                    "attributes" : {
                        "POSITION" : 4,
                        "NORMAL" : 5,
                        "TEXCOORD_0" : 6
                    },
                    "indices" : 7,
                    "material" : 0
                }
            ]
        }
    ],
    "accessors" : [
        {
            "bufferView" : 0,
            "componentType" : 5126,
            "count" : 1080,
            "max" : [
                1.6184329986572266,
                8.792387008666992,
                11.246195793151855
            ],
            "min" : [
                -1.6855921745300293,
                -34.4854736328125,
                -1.1982464790344238
            ],
            "type" : "VEC3"
        },
        {
            "bufferView" : 1,
            "componentType" : 5126,
            "count" : 1080,
            "type" : "VEC3"
        },
        {
            "bufferView" : 2,
            "componentType" : 5126,
            "count" : 1080,
            "type" : "VEC2"
        },
        {
            "bufferView" : 3,
            "componentType" : 5123,
            "count" : 1620,
            "type" : "SCALAR"
        },
        {
            "bufferView" : 4,
            "componentType" : 5126,
            "count" : 1320,
            "max" : [
                1.6184329986572266,
                8.792387008666992,
                11.246195793151855
            ],
            "min" : [
                -1.6855921745300293,
                -41.0846061706543,
                -1.1982464790344238
            ],
            "type" : "VEC3"
        },
        {
            "bufferView" : 5,
            "componentType" : 5126,
            "count" : 1320,
            "type" : "VEC3"
        },
        {
            "bufferView" : 6,
            "componentType" : 5126,
            "count" : 1320,
            "type" : "VEC2"
        },
        {
            "bufferView" : 7,
            "componentType" : 5123,
            "count" : 1980,
            "type" : "SCALAR"
        }
    ],
    "bufferViews" : [
        {
            "buffer" : 0,
            "byteLength" : 12960,
            "byteOffset" : 0
        },
        {
            "buffer" : 0,
            "byteLength" : 12960,
            "byteOffset" : 12960
        },
        {
            "buffer" : 0,
            "byteLength" : 8640,
            "byteOffset" : 25920
        },
        {
            "buffer" : 0,
            "byteLength" : 3240,
            "byteOffset" : 34560
        },
        {
            "buffer" : 0,
            "byteLength" : 15840,
            "byteOffset" : 37800
        },
        {
            "buffer" : 0,
            "byteLength" : 15840,
            "byteOffset" : 53640
        },
        {
            "buffer" : 0,
            "byteLength" : 10560,
            "byteOffset" : 69480
        },
        {
            "buffer" : 0,
            "byteLength" : 3960,
            "byteOffset" : 80040
        }
    ],
    "buffers" : [
        {
            "byteLength" : 84000,
            "uri" : "data:application/octet-stream;base64,"
        }
    ]
}
