{
    "asset" : {
        "generator" : "Khronos glTF Blender I/O v1.4.40",
        "version" : "2.0"
    },
    "scene" : 0,
    "scenes" : [
        {
            "name" : "Scene",
            "nodes" : [
                0,
                1
            ]
        }
    ],
    "nodes" : [
        {
            "mesh" : 0,
            "name" : "Esfera icosa\u00e9drica",
            "scale" : [
                0.9180792570114136,
                0.9180792570114136,
                0.9180792570114136
            ]
        },
        {
            "mesh" : 1,
            "name" : "Folhas arbusto",
            "scale" : [
                2.3058266639709473,
                2.3058266639709473,
                2.3058266639709473
            ],
            "translation" : [
                0,
                0.2907746732234955,
                0
            ]
        }
    ],
    "materials" : [
        {
            "doubleSided" : true,
            "name" : "Material.001",
            "pbrMetallicRoughness" : {
                "baseColorFactor" : [
                    0.08228270709514618,
                    0.21223078668117523,
                    0.023153362795710564,
                    1
                ],
                "metallicFactor" : 0
            }
        },
        {
            "alphaMode" : "BLEND",
            "doubleSided" : true,
            "name" : "Folhas arbusto.002",
            "pbrMetallicRoughness" : {
                "baseColorTexture" : {
                    "index" : 0,
                    "texCoord" : 0
                },
                "metallicFactor" : 0
            }
        }
    ],
    "meshes" : [
        {
            "name" : "Esfera icosa\u00e9drica",
            "primitives" : [
                {
                    "attributes" : {
                        "POSITION" : 0,
                        "NORMAL" : 1,
                        "TEXCOORD_0" : 2
                    },
                    "indices" : 3,
                    "material" : 0
                }
            ]
        },
        {
            "name" : "Folhas arbusto",
            "primitives" : [
                {
                    "attributes" : {
                        "POSITION" : 4,
                        "NORMAL" : 5,
                        "TEXCOORD_0" : 6
                    },
                    "indices" : 7,
                    "material" : 1
                }
            ]
        }
    ],
    "textures" : [
        {
            "sampler" : 0,
            "source" : 0
        }
    ],
    "images" : [
        {
            "bufferView" : 8,
            "mimeType" : "image/png",
            "name" : "Folhas_arbusto"
        }
    ],
    "accessors" : [
        {
            "bufferView" : 0,
            "componentType" : 5126,
            "count" : 195,
            "max" : [
                1.1335110664367676,
                1,
                1.1456884145736694
            ],
            "min" : [
                -1.1568470001220703,
                -0.7301613092422485,
                -1.1456884145736694
            ],
            "type" : "VEC3"
        },
        {
            "bufferView" : 1,
            "componentType" : 5126,
            "count" : 195,
            "type" : "VEC3"
        },
        {
            "bufferView" : 2,
            "componentType" : 5126,
            "count" : 195,
            "type" : "VEC2"
        },
        {
            "bufferView" : 3,
            "componentType" : 5123,
            "count" : 915,
            "type" : "SCALAR"
        },
        {
            "bufferView" : 4,
            "componentType" : 5126,
            "count" : 640,
            "max" : [
                0.6620756983757019,
                0.39972594380378723,
                0.750942051410675
            ],
            "min" : [
                -0.7056771516799927,
                -0.7693151235580444,
                -0.6574475765228271
            ],
            "type" : "VEC3"
        },
        {
            "bufferView" : 5,
            "componentType" : 5126,
            "count" : 640,
            "type" : "VEC3"
        },
        {
            "bufferView" : 6,
            "componentType" : 5126,
            "count" : 640,
            "type" : "VEC2"
        },
        {
            "bufferView" : 7,
            "componentType" : 5123,
            "count" : 960,
            "type" : "SCALAR"
        }
    ],
    "bufferViews" : [
        {
            "buffer" : 0,
            "byteLength" : 2340,
            "byteOffset" : 0
        },
        {
            "buffer" : 0,
            "byteLength" : 2340,
            "byteOffset" : 2340
        },
        {
            "buffer" : 0,
            "byteLength" : 1560,
            "byteOffset" : 4680
        },
        {
            "buffer" : 0,
            "byteLength" : 1830,
            "byteOffset" : 6240
        },
        {
            "buffer" : 0,
            "byteLength" : 7680,
            "byteOffset" : 8072
        },
        {
            "buffer" : 0,
            "byteLength" : 7680,
            "byteOffset" : 15752
        },
        {
            "buffer" : 0,
            "byteLength" : 5120,
            "byteOffset" : 23432
        },
        {
            "buffer" : 0,
            "byteLength" : 1920,
            "byteOffset" : 28552
        },
        {
            "buffer" : 0,
            "byteLength" : 1005241,
            "byteOffset" : 30472
        }
    ],
    "samplers" : [
        {
            "magFilter" : 9729,
            "minFilter" : 9986
        }
    ],
    "buffers" : [
        {
            "byteLength" : 1035716,
            "uri" : "data:application/octet-stream;base64,"
        }
    ]
}
