{
    "asset" : {
        "generator" : "Khronos glTF Blender I/O v1.4.40",
        "version" : "2.0"
    },
    "scene" : 0,
    "scenes" : [
        {
            "name" : "Scene",
            "nodes" : [
                0
            ]
        }
    ],
    "nodes" : [
        {
            "mesh" : 0,
            "name" : "Barco",
            "rotation" : [
                0.03624342754483223,
                -0.44593945145606995,
                -0.891389787197113,
                -0.07244765758514404
            ],
            "scale" : [
                0.43993809819221497,
                0.43993809819221497,
                0.43993809819221497
            ],
            "translation" : [
                0,
                0.8063137531280518,
                -0.32827016711235046
            ]
        }
    ],
    "materials" : [
        {
            "doubleSided" : true,
            "name" : "Barco",
            "pbrMetallicRoughness" : {
                "baseColorFactor" : [
                    0.03942132368683815,
                    0.019698571413755417,
                    0.013965500518679619,
                    1
                ],
                "metallicFactor" : 0
            }
        },
        {
            "doubleSided" : true,
            "name" : "Barco 2",
            "pbrMetallicRoughness" : {
                "baseColorFactor" : [
                    0.0378507636487484,
                    0.023031005635857582,
                    0.01007779873907566,
                    1
                ],
                "metallicFactor" : 0
            }
        }
    ],
    "meshes" : [
        {
            "name" : "Cubo.162",
            "primitives" : [
                {
                    "attributes" : {
                        "POSITION" : 0,
                        "NORMAL" : 1,
                        "TEXCOORD_0" : 2
                    },
                    "indices" : 3,
                    "material" : 0
                },
                {
                    "attributes" : {
                        "POSITION" : 4,
                        "NORMAL" : 5,
                        "TEXCOORD_0" : 6
                    },
                    "indices" : 7,
                    "material" : 1
                }
            ]
        }
    ],
    "accessors" : [
        {
            "bufferView" : 0,
            "componentType" : 5126,
            "count" : 1500,
            "max" : [
                7.828251361846924,
                4.911682605743408,
                1.3423936367034912
            ],
            "min" : [
                -7.954102039337158,
                -1.475701093673706,
                -1.5245438814163208
            ],
            "type" : "VEC3"
        },
        {
            "bufferView" : 1,
            "componentType" : 5126,
            "count" : 1500,
            "type" : "VEC3"
        },
        {
            "bufferView" : 2,
            "componentType" : 5126,
            "count" : 1500,
            "type" : "VEC2"
        },
        {
            "bufferView" : 3,
            "componentType" : 5123,
            "count" : 2346,
            "type" : "SCALAR"
        },
        {
            "bufferView" : 4,
            "componentType" : 5126,
            "count" : 856,
            "max" : [
                4.910122871398926,
                3.6233644485473633,
                1.3036432266235352
            ],
            "min" : [
                -5.924664497375488,
                -0.060668058693408966,
                -1.342724084854126
            ],
            "type" : "VEC3"
        },
        {
            "bufferView" : 5,
            "componentType" : 5126,
            "count" : 856,
            "type" : "VEC3"
        },
        {
            "bufferView" : 6,
            "componentType" : 5126,
            "count" : 856,
            "type" : "VEC2"
        },
        {
            "bufferView" : 7,
            "componentType" : 5123,
            "count" : 1278,
            "type" : "SCALAR"
        }
    ],
    "bufferViews" : [
        {
            "buffer" : 0,
            "byteLength" : 18000,
            "byteOffset" : 0
        },
        {
            "buffer" : 0,
            "byteLength" : 18000,
            "byteOffset" : 18000
        },
        {
            "buffer" : 0,
            "byteLength" : 12000,
            "byteOffset" : 36000
        },
        {
            "buffer" : 0,
            "byteLength" : 4692,
            "byteOffset" : 48000
        },
        {
            "buffer" : 0,
            "byteLength" : 10272,
            "byteOffset" : 52692
        },
        {
            "buffer" : 0,
            "byteLength" : 10272,
            "byteOffset" : 62964
        },
        {
            "buffer" : 0,
            "byteLength" : 6848,
            "byteOffset" : 73236
        },
        {
            "buffer" : 0,
            "byteLength" : 2556,
            "byteOffset" : 80084
        }
    ],
    "buffers" : [
        {
            "byteLength" : 82640,
            "uri" : "data:application/octet-stream;base64,"
        }
    ]
}
