{
    "asset" : {
        "generator" : "Khronos glTF Blender I/O v1.4.40",
        "version" : "2.0"
    },
    "scene" : 0,
    "scenes" : [
        {
            "name" : "Scene",
            "nodes" : [
                0
            ]
        }
    ],
    "nodes" : [
        {
            "mesh" : 0,
            "name" : "Fogueira.002_Cubo.001",
            "rotation" : [
                0.7071068286895752,
                0,
                0,
                0.7071067094802856
            ]
        }
    ],
    "materials" : [
        {
            "doubleSided" : true,
            "name" : "Pedras.003",
            "pbrMetallicRoughness" : {
                "baseColorFactor" : [
                    0.18326236307621002,
                    0.18251971900463104,
                    0.18030156195163727,
                    1
                ],
                "metallicFactor" : 0
            }
        },
        {
            "doubleSided" : true,
            "name" : "Fogo",
            "pbrMetallicRoughness" : {
                "baseColorFactor" : [
                    0.8000000715255737,
                    0.14646202325820923,
                    0.003944739233702421,
                    1
                ],
                "metallicFactor" : 0
            }
        },
        {
            "doubleSided" : true,
            "name" : "Lenha",
            "pbrMetallicRoughness" : {
                "baseColorFactor" : [
                    0.06573113054037094,
                    0.034486040472984314,
                    0.02480018138885498,
                    1
                ],
                "metallicFactor" : 0
            }
        },
        {
            "doubleSided" : true,
            "name" : "Carv\u00e3o",
            "pbrMetallicRoughness" : {
                "baseColorFactor" : [
                    0,
                    0,
                    0,
                    1
                ],
                "metallicFactor" : 0
            }
        }
    ],
    "meshes" : [
        {
            "name" : "Fogueira.002_Cubo.001",
            "primitives" : [
                {
                    "attributes" : {
                        "POSITION" : 0,
                        "NORMAL" : 1,
                        "TEXCOORD_0" : 2
                    },
                    "indices" : 3,
                    "material" : 0
                },
                {
                    "attributes" : {
                        "POSITION" : 4,
                        "NORMAL" : 5,
                        "TEXCOORD_0" : 6
                    },
                    "indices" : 7,
                    "material" : 1
                },
                {
                    "attributes" : {
                        "POSITION" : 8,
                        "NORMAL" : 9,
                        "TEXCOORD_0" : 10
                    },
                    "indices" : 11,
                    "material" : 2
                },
                {
                    "attributes" : {
                        "POSITION" : 12,
                        "NORMAL" : 13,
                        "TEXCOORD_0" : 14
                    },
                    "indices" : 15,
                    "material" : 3
                }
            ]
        }
    ],
    "accessors" : [
        {
            "bufferView" : 0,
            "componentType" : 5126,
            "count" : 1002,
            "max" : [
                0.30188798904418945,
                0.290039986371994,
                0.13628199696540833
            ],
            "min" : [
                -0.3297249972820282,
                -0.26554998755455017,
                -0.03189399838447571
            ],
            "type" : "VEC3"
        },
        {
            "bufferView" : 1,
            "componentType" : 5126,
            "count" : 1002,
            "type" : "VEC3"
        },
        {
            "bufferView" : 2,
            "componentType" : 5126,
            "count" : 1002,
            "type" : "VEC2"
        },
        {
            "bufferView" : 3,
            "componentType" : 5123,
            "count" : 1140,
            "type" : "SCALAR"
        },
        {
            "bufferView" : 4,
            "componentType" : 5126,
            "count" : 540,
            "max" : [
                0.09761299937963486,
                0.0935709998011589,
                0.04774000123143196
            ],
            "min" : [
                -0.07095599919557571,
                -0.07821500301361084,
                -0.27288299798965454
            ],
            "type" : "VEC3"
        },
        {
            "bufferView" : 5,
            "componentType" : 5126,
            "count" : 540,
            "type" : "VEC3"
        },
        {
            "bufferView" : 6,
            "componentType" : 5126,
            "count" : 540,
            "type" : "VEC2"
        },
        {
            "bufferView" : 7,
            "componentType" : 5123,
            "count" : 1440,
            "type" : "SCALAR"
        },
        {
            "bufferView" : 8,
            "componentType" : 5126,
            "count" : 198,
            "max" : [
                0.20721399784088135,
                0.18768900632858276,
                0.09083099663257599
            ],
            "min" : [
                -0.19718599319458008,
                -0.17911599576473236,
                -0.2074590027332306
            ],
            "type" : "VEC3"
        },
        {
            "bufferView" : 9,
            "componentType" : 5126,
            "count" : 198,
            "type" : "VEC3"
        },
        {
            "bufferView" : 10,
            "componentType" : 5126,
            "count" : 198,
            "type" : "VEC2"
        },
        {
            "bufferView" : 11,
            "componentType" : 5123,
            "count" : 300,
            "type" : "SCALAR"
        },
        {
            "bufferView" : 12,
            "componentType" : 5126,
            "count" : 64,
            "max" : [
                0.0566600002348423,
                0.11102700233459473,
                0.04794900119304657
            ],
            "min" : [
                -0.07582399994134903,
                -0.019457999616861343,
                -0.05094999819993973
            ],
            "type" : "VEC3"
        },
        {
            "bufferView" : 13,
            "componentType" : 5126,
            "count" : 64,
            "type" : "VEC3"
        },
        {
            "bufferView" : 14,
            "componentType" : 5126,
            "count" : 64,
            "type" : "VEC2"
        },
        {
            "bufferView" : 15,
            "componentType" : 5123,
            "count" : 96,
            "type" : "SCALAR"
        }
    ],
    "bufferViews" : [
        {
            "buffer" : 0,
            "byteLength" : 12024,
            "byteOffset" : 0
        },
        {
            "buffer" : 0,
            "byteLength" : 12024,
            "byteOffset" : 12024
        },
        {
            "buffer" : 0,
            "byteLength" : 8016,
            "byteOffset" : 24048
        },
        {
            "buffer" : 0,
            "byteLength" : 2280,
            "byteOffset" : 32064
        },
        {
            "buffer" : 0,
            "byteLength" : 6480,
            "byteOffset" : 34344
        },
        {
            "buffer" : 0,
            "byteLength" : 6480,
            "byteOffset" : 40824
        },
        {
            "buffer" : 0,
            "byteLength" : 4320,
            "byteOffset" : 47304
        },
        {
            "buffer" : 0,
            "byteLength" : 2880,
            "byteOffset" : 51624
        },
        {
            "buffer" : 0,
            "byteLength" : 2376,
            "byteOffset" : 54504
        },
        {
            "buffer" : 0,
            "byteLength" : 2376,
            "byteOffset" : 56880
        },
        {
            "buffer" : 0,
            "byteLength" : 1584,
            "byteOffset" : 59256
        },
        {
            "buffer" : 0,
            "byteLength" : 600,
            "byteOffset" : 60840
        },
        {
            "buffer" : 0,
            "byteLength" : 768,
            "byteOffset" : 61440
        },
        {
            "buffer" : 0,
            "byteLength" : 768,
            "byteOffset" : 62208
        },
        {
            "buffer" : 0,
            "byteLength" : 512,
            "byteOffset" : 62976
        },
        {
            "buffer" : 0,
            "byteLength" : 192,
            "byteOffset" : 63488
        }
    ],
    "buffers" : [
        {
            "byteLength" : 63680,
            "uri" : "data:application/octet-stream;base64,"
        }
    ]
}
