{
    "asset" : {
        "generator" : "Khronos glTF Blender I/O v1.4.40",
        "version" : "2.0"
    },
    "scene" : 0,
    "scenes" : [
        {
            "name" : "Scene",
            "nodes" : [
                0
            ]
        }
    ],
    "nodes" : [
        {
            "mesh" : 0,
            "name" : "Pedra chata",
            "scale" : [
                0.9187301993370056,
                0.9187301993370056,
                0.9187301993370056
            ]
        }
    ],
    "materials" : [
        {
            "doubleSided" : true,
            "name" : "Pedra",
            "pbrMetallicRoughness" : {
                "metallicFactor" : 0,
                "roughnessFactor" : 0.751968502998352
            }
        }
    ],
    "meshes" : [
        {
            "name" : "Cubo",
            "primitives" : [
                {
                    "attributes" : {
                        "POSITION" : 0,
                        "NORMAL" : 1,
                        "TEXCOORD_0" : 2
                    },
                    "indices" : 3,
                    "material" : 0
                }
            ]
        }
    ],
    "accessors" : [
        {
            "bufferView" : 0,
            "componentType" : 5126,
            "count" : 113,
            "max" : [
                3.410115957260132,
                1.4245781898498535,
                1.7951680421829224
            ],
            "min" : [
                -1.3014039993286133,
                -1.0009030103683472,
                -1.848656177520752
            ],
            "type" : "VEC3"
        },
        {
            "bufferView" : 1,
            "componentType" : 5126,
            "count" : 113,
            "type" : "VEC3"
        },
        {
            "bufferView" : 2,
            "componentType" : 5126,
            "count" : 113,
            "type" : "VEC2"
        },
        {
            "bufferView" : 3,
            "componentType" : 5123,
            "count" : 396,
            "type" : "SCALAR"
        }
    ],
    "bufferViews" : [
        {
            "buffer" : 0,
            "byteLength" : 1356,
            "byteOffset" : 0
        },
        {
            "buffer" : 0,
            "byteLength" : 1356,
            "byteOffset" : 1356
        },
        {
            "buffer" : 0,
            "byteLength" : 904,
            "byteOffset" : 2712
        },
        {
            "buffer" : 0,
            "byteLength" : 792,
            "byteOffset" : 3616
        }
    ],
    "buffers" : [
        {
            "byteLength" : 4408,
            "uri" : "data:application/octet-stream;base64,"
        }
    ]
}
