{
    "asset" : {
        "generator" : "Khronos glTF Blender I/O v1.4.40",
        "version" : "2.0"
    },
    "scene" : 0,
    "scenes" : [
        {
            "name" : "Scene",
            "nodes" : [
                0
            ]
        }
    ],
    "nodes" : [
        {
            "mesh" : 0,
            "name" : "Corda",
            "translation" : [
                0,
                0,
                -1.2629871368408203
            ]
        }
    ],
    "materials" : [
        {
            "doubleSided" : true,
            "name" : "Corda",
            "pbrMetallicRoughness" : {
                "baseColorFactor" : [
                    0.15319322049617767,
                    0.06573270261287689,
                    0.03664717078208923,
                    1
                ],
                "metallicFactor" : 0
            }
        },
        {
            "doubleSided" : true,
            "name" : "Madeira",
            "pbrMetallicRoughness" : {
                "baseColorFactor" : [
                    0.3972215950489044,
                    0.23356807231903076,
                    0.1126435175538063,
                    1
                ],
                "metallicFactor" : 0
            }
        },
        {
            "doubleSided" : true,
            "name" : "Madeira 2",
            "pbrMetallicRoughness" : {
                "baseColorFactor" : [
                    0.31729400157928467,
                    0.16211800277233124,
                    0.0837159976363182,
                    1
                ],
                "metallicFactor" : 0
            }
        }
    ],
    "meshes" : [
        {
            "name" : "Cubo.002",
            "primitives" : [
                {
                    "attributes" : {
                        "POSITION" : 0,
                        "NORMAL" : 1,
                        "TEXCOORD_0" : 2
                    },
                    "indices" : 3,
                    "material" : 0
                },
                {
                    "attributes" : {
                        "POSITION" : 4,
                        "NORMAL" : 5,
                        "TEXCOORD_0" : 6
                    },
                    "indices" : 7,
                    "material" : 1
                },
                {
                    "attributes" : {
                        "POSITION" : 8,
                        "NORMAL" : 9,
                        "TEXCOORD_0" : 10
                    },
                    "indices" : 11,
                    "material" : 2
                }
            ]
        }
    ],
    "accessors" : [
        {
            "bufferView" : 0,
            "componentType" : 5126,
            "count" : 1592,
            "max" : [
                2.316147565841675,
                0.5512892007827759,
                2.1147871017456055
            ],
            "min" : [
                -2.335588216781616,
                -0.2943466901779175,
                0.4413750171661377
            ],
            "type" : "VEC3"
        },
        {
            "bufferView" : 1,
            "componentType" : 5126,
            "count" : 1592,
            "type" : "VEC3"
        },
        {
            "bufferView" : 2,
            "componentType" : 5126,
            "count" : 1592,
            "type" : "VEC2"
        },
        {
            "bufferView" : 3,
            "componentType" : 5123,
            "count" : 2568,
            "type" : "SCALAR"
        },
        {
            "bufferView" : 4,
            "componentType" : 5126,
            "count" : 1432,
            "max" : [
                1.9766111373901367,
                0.46206337213516235,
                2.112609386444092
            ],
            "min" : [
                -1.982387900352478,
                -0.2843661308288574,
                0.418306827545166
            ],
            "type" : "VEC3"
        },
        {
            "bufferView" : 5,
            "componentType" : 5126,
            "count" : 1432,
            "type" : "VEC3"
        },
        {
            "bufferView" : 6,
            "componentType" : 5126,
            "count" : 1432,
            "type" : "VEC2"
        },
        {
            "bufferView" : 7,
            "componentType" : 5123,
            "count" : 5652,
            "type" : "SCALAR"
        },
        {
            "bufferView" : 8,
            "componentType" : 5126,
            "count" : 586,
            "max" : [
                2.2908456325531006,
                0.8331398963928223,
                2.088791608810425
            ],
            "min" : [
                -2.3147780895233154,
                -0.36408731341362,
                0.45912015438079834
            ],
            "type" : "VEC3"
        },
        {
            "bufferView" : 9,
            "componentType" : 5126,
            "count" : 586,
            "type" : "VEC3"
        },
        {
            "bufferView" : 10,
            "componentType" : 5126,
            "count" : 586,
            "type" : "VEC2"
        },
        {
            "bufferView" : 11,
            "componentType" : 5123,
            "count" : 1272,
            "type" : "SCALAR"
        }
    ],
    "bufferViews" : [
        {
            "buffer" : 0,
            "byteLength" : 19104,
            "byteOffset" : 0
        },
        {
            "buffer" : 0,
            "byteLength" : 19104,
            "byteOffset" : 19104
        },
        {
            "buffer" : 0,
            "byteLength" : 12736,
            "byteOffset" : 38208
        },
        {
            "buffer" : 0,
            "byteLength" : 5136,
            "byteOffset" : 50944
        },
        {
            "buffer" : 0,
            "byteLength" : 17184,
            "byteOffset" : 56080
        },
        {
            "buffer" : 0,
            "byteLength" : 17184,
            "byteOffset" : 73264
        },
        {
            "buffer" : 0,
            "byteLength" : 11456,
            "byteOffset" : 90448
        },
        {
            "buffer" : 0,
            "byteLength" : 11304,
            "byteOffset" : 101904
        },
        {
            "buffer" : 0,
            "byteLength" : 7032,
            "byteOffset" : 113208
        },
        {
            "buffer" : 0,
            "byteLength" : 7032,
            "byteOffset" : 120240
        },
        {
            "buffer" : 0,
            "byteLength" : 4688,
            "byteOffset" : 127272
        },
        {
            "buffer" : 0,
            "byteLength" : 2544,
            "byteOffset" : 131960
        }
    ],
    "buffers" : [
        {
            "byteLength" : 134504,
            "uri" : "data:application/octet-stream;base64,"
        }
    ]
}
