{
    "asset" : {
        "generator" : "Khronos glTF Blender I/O v1.4.40",
        "version" : "2.0"
    },
    "scene" : 0,
    "scenes" : [
        {
            "name" : "Scene",
            "nodes" : [
                0,
                1
            ]
        }
    ],
    "nodes" : [
        {
            "mesh" : 0,
            "name" : "Ilha Castelo",
            "translation" : [
                -26.235877990722656,
                12.7659912109375,
                47.25314712524414
            ]
        },
        {
            "mesh" : 1,
            "name" : "Castelo Jogo",
            "rotation" : [
                0,
                0.9999884366989136,
                0,
                -0.004813934676349163
            ],
            "scale" : [
                0.20003825426101685,
                0.20003825426101685,
                0.20003825426101685
            ],
            "translation" : [
                -10.373157501220703,
                62.113502502441406,
                41.258033752441406
            ]
        }
    ],
    "materials" : [
        {
            "doubleSided" : true,
            "name" : "B_Amarelho_Intenso",
            "pbrMetallicRoughness" : {
                "baseColorFactor" : [
                    0.6724433898925781,
                    0.3371635973453522,
                    0.05612853541970253,
                    1
                ],
                "metallicFactor" : 0
            }
        },
        {
            "doubleSided" : true,
            "name" : "Madeira A1",
            "pbrMetallicRoughness" : {
                "baseColorFactor" : [
                    0.09592293947935104,
                    0.0386858806014061,
                    0.015796512365341187,
                    1
                ],
                "metallicFactor" : 0,
                "roughnessFactor" : 0.8821138143539429
            }
        },
        {
            "doubleSided" : true,
            "name" : "Madeira ponte",
            "pbrMetallicRoughness" : {
                "baseColorFactor" : [
                    0.11906599998474121,
                    0.036593999713659286,
                    0.009525000117719173,
                    1
                ],
                "metallicFactor" : 0
            }
        },
        {
            "doubleSided" : true,
            "name" : "Castelo Muro",
            "pbrMetallicRoughness" : {
                "baseColorFactor" : [
                    0.6938719153404236,
                    0.6938718557357788,
                    0.6938720345497131,
                    1
                ],
                "metallicFactor" : 0,
                "roughnessFactor" : 0.5
            }
        },
        {
            "doubleSided" : true,
            "name" : "Castelo Torres",
            "pbrMetallicRoughness" : {
                "baseColorFactor" : [
                    0.6938719153404236,
                    0.6938718557357788,
                    0.6938720345497131,
                    1
                ],
                "metallicFactor" : 0,
                "roughnessFactor" : 0.5
            }
        },
        {
            "doubleSided" : true,
            "name" : "Castelo Telhado",
            "pbrMetallicRoughness" : {
                "baseColorFactor" : [
                    0.8879233002662659,
                    0.34670400619506836,
                    0.001517660915851593,
                    1
                ],
                "metallicFactor" : 0,
                "roughnessFactor" : 0.5
            }
        },
        {
            "doubleSided" : true,
            "name" : "Castelo",
            "pbrMetallicRoughness" : {
                "baseColorFactor" : [
                    0.6258008480072021,
                    0.6258008480072021,
                    0.6258009672164917,
                    1
                ],
                "metallicFactor" : 0,
                "roughnessFactor" : 0.5
            }
        },
        {
            "doubleSided" : true,
            "name" : "Castelo Porta",
            "pbrMetallicRoughness" : {
                "baseColorFactor" : [
                    0.8879233002662659,
                    0.47353142499923706,
                    0.00151766836643219,
                    1
                ],
                "metallicFactor" : 0,
                "roughnessFactor" : 0.5
            }
        },
        {
            "doubleSided" : true,
            "name" : "Castelo Escudo",
            "pbrMetallicRoughness" : {
                "baseColorFactor" : [
                    0.8879232406616211,
                    0.5972021222114563,
                    0.001517660915851593,
                    1
                ],
                "metallicFactor" : 0,
                "roughnessFactor" : 0.5
            }
        },
        {
            "doubleSided" : true,
            "name" : "NPC Amarelo",
            "pbrMetallicRoughness" : {
                "baseColorFactor" : [
                    0.8879232406616211,
                    0.5972021222114563,
                    0.001517660915851593,
                    1
                ],
                "metallicFactor" : 0,
                "roughnessFactor" : 0.5
            }
        },
        {
            "doubleSided" : true,
            "name" : "Preto quase preto",
            "pbrMetallicRoughness" : {
                "baseColorFactor" : [
                    0.023423539474606514,
                    0.023423539474606514,
                    0.023423539474606514,
                    1
                ],
                "metallicFactor" : 0
            }
        }
    ],
    "meshes" : [
        {
            "name" : "Cubo.008",
            "primitives" : [
                {
                    "attributes" : {
                        "POSITION" : 0,
                        "NORMAL" : 1,
                        "TEXCOORD_0" : 2,
                        "COLOR_0" : 3
                    },
                    "indices" : 4,
                    "material" : 0
                },
                {
                    "attributes" : {
                        "POSITION" : 5,
                        "NORMAL" : 6,
                        "TEXCOORD_0" : 7,
                        "COLOR_0" : 8
                    },
                    "indices" : 9,
                    "material" : 1
                },
                {
                    "attributes" : {
                        "POSITION" : 10,
                        "NORMAL" : 11,
                        "TEXCOORD_0" : 12,
                        "COLOR_0" : 13
                    },
                    "indices" : 14,
                    "material" : 2
                }
            ]
        },
        {
            "name" : "Cubo.098",
            "primitives" : [
                {
                    "attributes" : {
                        "POSITION" : 15,
                        "NORMAL" : 16,
                        "TEXCOORD_0" : 17
                    },
                    "indices" : 18,
                    "material" : 3
                },
                {
                    "attributes" : {
                        "POSITION" : 19,
                        "NORMAL" : 20,
                        "TEXCOORD_0" : 21
                    },
                    "indices" : 22,
                    "material" : 4
                },
                {
                    "attributes" : {
                        "POSITION" : 23,
                        "NORMAL" : 24,
                        "TEXCOORD_0" : 25
                    },
                    "indices" : 26,
                    "material" : 5
                },
                {
                    "attributes" : {
                        "POSITION" : 27,
                        "NORMAL" : 28,
                        "TEXCOORD_0" : 29
                    },
                    "indices" : 30,
                    "material" : 6
                },
                {
                    "attributes" : {
                        "POSITION" : 31,
                        "NORMAL" : 32,
                        "TEXCOORD_0" : 33
                    },
                    "indices" : 34,
                    "material" : 7
                },
                {
                    "attributes" : {
                        "POSITION" : 35,
                        "NORMAL" : 36,
                        "TEXCOORD_0" : 37
                    },
                    "indices" : 38,
                    "material" : 8
                },
                {
                    "attributes" : {
                        "POSITION" : 39,
                        "NORMAL" : 40,
                        "TEXCOORD_0" : 41
                    },
                    "indices" : 42,
                    "material" : 9
                },
                {
                    "attributes" : {
                        "POSITION" : 43,
                        "NORMAL" : 44,
                        "TEXCOORD_0" : 45
                    },
                    "indices" : 46,
                    "material" : 10
                }
            ]
        }
    ],
    "accessors" : [
        {
            "bufferView" : 0,
            "componentType" : 5126,
            "count" : 9850,
            "max" : [
                76.59542083740234,
                13.149198532104492,
                26.80025863647461
            ],
            "min" : [
                -37.350257873535156,
                -16.15513038635254,
                -17.69172477722168
            ],
            "type" : "VEC3"
        },
        {
            "bufferView" : 1,
            "componentType" : 5126,
            "count" : 9850,
            "type" : "VEC3"
        },
        {
            "bufferView" : 2,
            "componentType" : 5126,
            "count" : 9850,
            "type" : "VEC2"
        },
        {
            "bufferView" : 3,
            "componentType" : 5123,
            "count" : 9850,
            "normalized" : true,
            "type" : "VEC4"
        },
        {
            "bufferView" : 4,
            "componentType" : 5123,
            "count" : 9900,
            "type" : "SCALAR"
        },
        {
            "bufferView" : 5,
            "componentType" : 5126,
            "count" : 144,
            "max" : [
                15.452339172363281,
                0.6560278534889221,
                -16.052316665649414
            ],
            "min" : [
                14.725054740905762,
                -1.4389493465423584,
                -27.716567993164062
            ],
            "type" : "VEC3"
        },
        {
            "bufferView" : 6,
            "componentType" : 5126,
            "count" : 144,
            "type" : "VEC3"
        },
        {
            "bufferView" : 7,
            "componentType" : 5126,
            "count" : 144,
            "type" : "VEC2"
        },
        {
            "bufferView" : 8,
            "componentType" : 5123,
            "count" : 144,
            "normalized" : true,
            "type" : "VEC4"
        },
        {
            "bufferView" : 9,
            "componentType" : 5123,
            "count" : 216,
            "type" : "SCALAR"
        },
        {
            "bufferView" : 10,
            "componentType" : 5126,
            "count" : 56,
            "max" : [
                15.358763694763184,
                0.4081266224384308,
                -15.368438720703125
            ],
            "min" : [
                14.792245864868164,
                -0.5668573975563049,
                -28.300962448120117
            ],
            "type" : "VEC3"
        },
        {
            "bufferView" : 11,
            "componentType" : 5126,
            "count" : 56,
            "type" : "VEC3"
        },
        {
            "bufferView" : 12,
            "componentType" : 5126,
            "count" : 56,
            "type" : "VEC2"
        },
        {
            "bufferView" : 13,
            "componentType" : 5123,
            "count" : 56,
            "normalized" : true,
            "type" : "VEC4"
        },
        {
            "bufferView" : 14,
            "componentType" : 5123,
            "count" : 84,
            "type" : "SCALAR"
        },
        {
            "bufferView" : 15,
            "componentType" : 5126,
            "count" : 2564,
            "max" : [
                90.6231918334961,
                -203.0083465576172,
                16.08806037902832
            ],
            "min" : [
                -82.63890838623047,
                -268.298583984375,
                -115.08497619628906
            ],
            "type" : "VEC3"
        },
        {
            "bufferView" : 16,
            "componentType" : 5126,
            "count" : 2564,
            "type" : "VEC3"
        },
        {
            "bufferView" : 17,
            "componentType" : 5126,
            "count" : 2564,
            "type" : "VEC2"
        },
        {
            "bufferView" : 18,
            "componentType" : 5123,
            "count" : 4089,
            "type" : "SCALAR"
        },
        {
            "bufferView" : 19,
            "componentType" : 5126,
            "count" : 14258,
            "max" : [
                93.07633209228516,
                -217.77566528320312,
                16.985036849975586
            ],
            "min" : [
                -85.01953125,
                -268.298583984375,
                -118.3132553100586
            ],
            "type" : "VEC3"
        },
        {
            "bufferView" : 20,
            "componentType" : 5126,
            "count" : 14258,
            "type" : "VEC3"
        },
        {
            "bufferView" : 21,
            "componentType" : 5126,
            "count" : 14258,
            "type" : "VEC2"
        },
        {
            "bufferView" : 22,
            "componentType" : 5123,
            "count" : 21600,
            "type" : "SCALAR"
        },
        {
            "bufferView" : 23,
            "componentType" : 5126,
            "count" : 1470,
            "max" : [
                51.20375442504883,
                -201.35797119140625,
                16.453079223632812
            ],
            "min" : [
                -55.88173294067383,
                -235.89617919921875,
                -86.36293029785156
            ],
            "type" : "VEC3"
        },
        {
            "bufferView" : 24,
            "componentType" : 5126,
            "count" : 1470,
            "type" : "VEC3"
        },
        {
            "bufferView" : 25,
            "componentType" : 5126,
            "count" : 1470,
            "type" : "VEC2"
        },
        {
            "bufferView" : 26,
            "componentType" : 5123,
            "count" : 2172,
            "type" : "SCALAR"
        },
        {
            "bufferView" : 27,
            "componentType" : 5126,
            "count" : 8768,
            "max" : [
                51.255577087402344,
                -211.0468292236328,
                -28.146472930908203
            ],
            "min" : [
                -56.41412353515625,
                -268.298583984375,
                -86.47130584716797
            ],
            "type" : "VEC3"
        },
        {
            "bufferView" : 28,
            "componentType" : 5126,
            "count" : 8768,
            "type" : "VEC3"
        },
        {
            "bufferView" : 29,
            "componentType" : 5126,
            "count" : 8768,
            "type" : "VEC2"
        },
        {
            "bufferView" : 30,
            "componentType" : 5123,
            "count" : 13296,
            "type" : "SCALAR"
        },
        {
            "bufferView" : 31,
            "componentType" : 5126,
            "count" : 6888,
            "max" : [
                93.16764831542969,
                -214.04840087890625,
                17.135263442993164
            ],
            "min" : [
                -85.11084747314453,
                -268.298583984375,
                -118.40454864501953
            ],
            "type" : "VEC3"
        },
        {
            "bufferView" : 32,
            "componentType" : 5126,
            "count" : 6888,
            "type" : "VEC3"
        },
        {
            "bufferView" : 33,
            "componentType" : 5126,
            "count" : 6888,
            "type" : "VEC2"
        },
        {
            "bufferView" : 34,
            "componentType" : 5123,
            "count" : 10350,
            "type" : "SCALAR"
        },
        {
            "bufferView" : 35,
            "componentType" : 5126,
            "count" : 512,
            "max" : [
                11.102646827697754,
                -235.35894775390625,
                16.56122589111328
            ],
            "min" : [
                -15.639168739318848,
                -241.34144592285156,
                14.688633918762207
            ],
            "type" : "VEC3"
        },
        {
            "bufferView" : 36,
            "componentType" : 5126,
            "count" : 512,
            "type" : "VEC3"
        },
        {
            "bufferView" : 37,
            "componentType" : 5126,
            "count" : 512,
            "type" : "VEC2"
        },
        {
            "bufferView" : 38,
            "componentType" : 5123,
            "count" : 768,
            "type" : "SCALAR"
        },
        {
            "bufferView" : 39,
            "componentType" : 5126,
            "count" : 18032,
            "max" : [
                12.602062225341797,
                -227.58554077148438,
                17.039649963378906
            ],
            "min" : [
                -13.997241973876953,
                -243.58590698242188,
                13.197676658630371
            ],
            "type" : "VEC3"
        },
        {
            "bufferView" : 40,
            "componentType" : 5126,
            "count" : 18032,
            "type" : "VEC3"
        },
        {
            "bufferView" : 41,
            "componentType" : 5126,
            "count" : 18032,
            "type" : "VEC2"
        },
        {
            "bufferView" : 42,
            "componentType" : 5123,
            "count" : 25632,
            "type" : "SCALAR"
        },
        {
            "bufferView" : 43,
            "componentType" : 5126,
            "count" : 60,
            "max" : [
                47.31645202636719,
                -214.92825317382812,
                -30.261337280273438
            ],
            "min" : [
                -51.357479095458984,
                -227.74671936035156,
                -81.62789916992188
            ],
            "type" : "VEC3"
        },
        {
            "bufferView" : 44,
            "componentType" : 5126,
            "count" : 60,
            "type" : "VEC3"
        },
        {
            "bufferView" : 45,
            "componentType" : 5126,
            "count" : 60,
            "type" : "VEC2"
        },
        {
            "bufferView" : 46,
            "componentType" : 5123,
            "count" : 90,
            "type" : "SCALAR"
        }
    ],
    "bufferViews" : [
        {
            "buffer" : 0,
            "byteLength" : 118200,
            "byteOffset" : 0
        },
        {
            "buffer" : 0,
            "byteLength" : 118200,
            "byteOffset" : 118200
        },
        {
            "buffer" : 0,
            "byteLength" : 78800,
            "byteOffset" : 236400
        },
        {
            "buffer" : 0,
            "byteLength" : 78800,
            "byteOffset" : 315200
        },
        {
            "buffer" : 0,
            "byteLength" : 19800,
            "byteOffset" : 394000
        },
        {
            "buffer" : 0,
            "byteLength" : 1728,
            "byteOffset" : 413800
        },
        {
            "buffer" : 0,
            "byteLength" : 1728,
            "byteOffset" : 415528
        },
        {
            "buffer" : 0,
            "byteLength" : 1152,
            "byteOffset" : 417256
        },
        {
            "buffer" : 0,
            "byteLength" : 1152,
            "byteOffset" : 418408
        },
        {
            "buffer" : 0,
            "byteLength" : 432,
            "byteOffset" : 419560
        },
        {
            "buffer" : 0,
            "byteLength" : 672,
            "byteOffset" : 419992
        },
        {
            "buffer" : 0,
            "byteLength" : 672,
            "byteOffset" : 420664
        },
        {
            "buffer" : 0,
            "byteLength" : 448,
            "byteOffset" : 421336
        },
        {
            "buffer" : 0,
            "byteLength" : 448,
            "byteOffset" : 421784
        },
        {
            "buffer" : 0,
            "byteLength" : 168,
            "byteOffset" : 422232
        },
        {
            "buffer" : 0,
            "byteLength" : 30768,
            "byteOffset" : 422400
        },
        {
            "buffer" : 0,
            "byteLength" : 30768,
            "byteOffset" : 453168
        },
        {
            "buffer" : 0,
            "byteLength" : 20512,
            "byteOffset" : 483936
        },
        {
            "buffer" : 0,
            "byteLength" : 8178,
            "byteOffset" : 504448
        },
        {
            "buffer" : 0,
            "byteLength" : 171096,
            "byteOffset" : 512628
        },
        {
            "buffer" : 0,
            "byteLength" : 171096,
            "byteOffset" : 683724
        },
        {
            "buffer" : 0,
            "byteLength" : 114064,
            "byteOffset" : 854820
        },
        {
            "buffer" : 0,
            "byteLength" : 43200,
            "byteOffset" : 968884
        },
        {
            "buffer" : 0,
            "byteLength" : 17640,
            "byteOffset" : 1012084
        },
        {
            "buffer" : 0,
            "byteLength" : 17640,
            "byteOffset" : 1029724
        },
        {
            "buffer" : 0,
            "byteLength" : 11760,
            "byteOffset" : 1047364
        },
        {
            "buffer" : 0,
            "byteLength" : 4344,
            "byteOffset" : 1059124
        },
        {
            "buffer" : 0,
            "byteLength" : 105216,
            "byteOffset" : 1063468
        },
        {
            "buffer" : 0,
            "byteLength" : 105216,
            "byteOffset" : 1168684
        },
        {
            "buffer" : 0,
            "byteLength" : 70144,
            "byteOffset" : 1273900
        },
        {
            "buffer" : 0,
            "byteLength" : 26592,
            "byteOffset" : 1344044
        },
        {
            "buffer" : 0,
            "byteLength" : 82656,
            "byteOffset" : 1370636
        },
        {
            "buffer" : 0,
            "byteLength" : 82656,
            "byteOffset" : 1453292
        },
        {
            "buffer" : 0,
            "byteLength" : 55104,
            "byteOffset" : 1535948
        },
        {
            "buffer" : 0,
            "byteLength" : 20700,
            "byteOffset" : 1591052
        },
        {
            "buffer" : 0,
            "byteLength" : 6144,
            "byteOffset" : 1611752
        },
        {
            "buffer" : 0,
            "byteLength" : 6144,
            "byteOffset" : 1617896
        },
        {
            "buffer" : 0,
            "byteLength" : 4096,
            "byteOffset" : 1624040
        },
        {
            "buffer" : 0,
            "byteLength" : 1536,
            "byteOffset" : 1628136
        },
        {
            "buffer" : 0,
            "byteLength" : 216384,
            "byteOffset" : 1629672
        },
        {
            "buffer" : 0,
            "byteLength" : 216384,
            "byteOffset" : 1846056
        },
        {
            "buffer" : 0,
            "byteLength" : 144256,
            "byteOffset" : 2062440
        },
        {
            "buffer" : 0,
            "byteLength" : 51264,
            "byteOffset" : 2206696
        },
        {
            "buffer" : 0,
            "byteLength" : 720,
            "byteOffset" : 2257960
        },
        {
            "buffer" : 0,
            "byteLength" : 720,
            "byteOffset" : 2258680
        },
        {
            "buffer" : 0,
            "byteLength" : 480,
            "byteOffset" : 2259400
        },
        {
            "buffer" : 0,
            "byteLength" : 180,
            "byteOffset" : 2259880
        }
    ],
    "buffers" : [
        {
            "byteLength" : 2260060,
            "uri" : "data:application/octet-stream;base64,"
        }
    ]
}
