{
    "asset" : {
        "generator" : "Khronos glTF Blender I/O v1.4.40",
        "version" : "2.0"
    },
    "scene" : 0,
    "scenes" : [
        {
            "name" : "Scene",
            "nodes" : [
                0
            ]
        }
    ],
    "nodes" : [
        {
            "mesh" : 0,
            "name" : "Pedra pequena 01.004",
            "rotation" : [
                0.9054810404777527,
                -0.030095484107732773,
                0.10065280646085739,
                0.41117796301841736
            ],
            "scale" : [
                0.14334118366241455,
                0.14334119856357574,
                0.14334118366241455
            ],
            "translation" : [
                -45.85966873168945,
                17.906034469604492,
                -18.861270904541016
            ]
        }
    ],
    "materials" : [
        {
            "doubleSided" : true,
            "name" : "Pedras.001",
            "pbrMetallicRoughness" : {
                "baseColorFactor" : [
                    0.12754100561141968,
                    0.12221100181341171,
                    0.119889996945858,
                    1
                ],
                "metallicFactor" : 0
            }
        }
    ],
    "meshes" : [
        {
            "name" : "Cubo.006",
            "primitives" : [
                {
                    "attributes" : {
                        "POSITION" : 0,
                        "NORMAL" : 1,
                        "TEXCOORD_0" : 2
                    },
                    "indices" : 3,
                    "material" : 0
                }
            ]
        }
    ],
    "accessors" : [
        {
            "bufferView" : 0,
            "componentType" : 5126,
            "count" : 65292,
            "max" : [
                451.3356628417969,
                303.47998046875,
                106.56452941894531
            ],
            "min" : [
                -42.32997512817383,
                -59.8248176574707,
                -259.4175109863281
            ],
            "type" : "VEC3"
        },
        {
            "bufferView" : 1,
            "componentType" : 5126,
            "count" : 65292,
            "type" : "VEC3"
        },
        {
            "bufferView" : 2,
            "componentType" : 5126,
            "count" : 65292,
            "type" : "VEC2"
        },
        {
            "bufferView" : 3,
            "componentType" : 5123,
            "count" : 69576,
            "type" : "SCALAR"
        }
    ],
    "bufferViews" : [
        {
            "buffer" : 0,
            "byteLength" : 783504,
            "byteOffset" : 0
        },
        {
            "buffer" : 0,
            "byteLength" : 783504,
            "byteOffset" : 783504
        },
        {
            "buffer" : 0,
            "byteLength" : 522336,
            "byteOffset" : 1567008
        },
        {
            "buffer" : 0,
            "byteLength" : 139152,
            "byteOffset" : 2089344
        }
    ],
    "buffers" : [
        {
            "byteLength" : 2228496,
            "uri" : "data:application/octet-stream;base64,"
        }
    ]
}
