{
    "asset" : {
        "generator" : "Khronos glTF Blender I/O v1.4.40",
        "version" : "2.0"
    },
    "extensionsUsed" : [
        "KHR_materials_transmission"
    ],
    "scene" : 0,
    "scenes" : [
        {
            "name" : "Scene",
            "nodes" : [
                0
            ]
        }
    ],
    "nodes" : [
        {
            "mesh" : 0,
            "name" : "Garrafa",
            "scale" : [
                0.8813968300819397,
                1,
                0.8813968300819397
            ],
            "translation" : [
                0,
                1.0022190809249878,
                0
            ]
        }
    ],
    "materials" : [
        {
            "doubleSided" : true,
            "extensions" : {
                "KHR_materials_transmission" : {
                    "transmissionFactor" : 1
                }
            },
            "name" : "Vrido",
            "pbrMetallicRoughness" : {
                "baseColorFactor" : [
                    0.5275607705116272,
                    0.586513876914978,
                    0.6074496507644653,
                    1
                ],
                "metallicFactor" : 0,
                "roughnessFactor" : 0
            }
        },
        {
            "doubleSided" : true,
            "name" : "Corda",
            "pbrMetallicRoughness" : {
                "baseColorFactor" : [
                    0.3559495806694031,
                    0.027030374854803085,
                    0.02502751722931862,
                    1
                ],
                "metallicFactor" : 0
            }
        },
        {
            "doubleSided" : true,
            "name" : "Papel",
            "pbrMetallicRoughness" : {
                "baseColorFactor" : [
                    0.4043579697608948,
                    0.34060394763946533,
                    0.17048029601573944,
                    1
                ],
                "metallicFactor" : 0
            }
        },
        {
            "doubleSided" : true,
            "name" : "Rolha",
            "pbrMetallicRoughness" : {
                "baseColorFactor" : [
                    0.16146455705165863,
                    0.09609042853116989,
                    0.04492722079157829,
                    1
                ],
                "metallicFactor" : 0
            }
        }
    ],
    "meshes" : [
        {
            "name" : "Cilindro",
            "primitives" : [
                {
                    "attributes" : {
                        "POSITION" : 0,
                        "NORMAL" : 1,
                        "TEXCOORD_0" : 2
                    },
                    "indices" : 3,
                    "material" : 0
                },
                {
                    "attributes" : {
                        "POSITION" : 4,
                        "NORMAL" : 5,
                        "TEXCOORD_0" : 6
                    },
                    "indices" : 7,
                    "material" : 1
                },
                {
                    "attributes" : {
                        "POSITION" : 8,
                        "NORMAL" : 9,
                        "TEXCOORD_0" : 10
                    },
                    "indices" : 11,
                    "material" : 2
                },
                {
                    "attributes" : {
                        "POSITION" : 12,
                        "NORMAL" : 13,
                        "TEXCOORD_0" : 14
                    },
                    "indices" : 15,
                    "material" : 3
                }
            ]
        }
    ],
    "accessors" : [
        {
            "bufferView" : 0,
            "componentType" : 5126,
            "count" : 209,
            "max" : [
                1.00303316116333,
                5.536836624145508,
                1.00303316116333
            ],
            "min" : [
                -1.00303316116333,
                -1,
                -1.00303316116333
            ],
            "type" : "VEC3"
        },
        {
            "bufferView" : 1,
            "componentType" : 5126,
            "count" : 209,
            "type" : "VEC3"
        },
        {
            "bufferView" : 2,
            "componentType" : 5126,
            "count" : 209,
            "type" : "VEC2"
        },
        {
            "bufferView" : 3,
            "componentType" : 5123,
            "count" : 948,
            "type" : "SCALAR"
        },
        {
            "bufferView" : 4,
            "componentType" : 5126,
            "count" : 96,
            "max" : [
                0.6486213803291321,
                1.4104810953140259,
                0.22980186343193054
            ],
            "min" : [
                0.13167911767959595,
                1.053664207458496,
                -0.2616562247276306
            ],
            "type" : "VEC3"
        },
        {
            "bufferView" : 5,
            "componentType" : 5126,
            "count" : 96,
            "type" : "VEC3"
        },
        {
            "bufferView" : 6,
            "componentType" : 5126,
            "count" : 96,
            "type" : "VEC2"
        },
        {
            "bufferView" : 7,
            "componentType" : 5123,
            "count" : 540,
            "type" : "SCALAR"
        },
        {
            "bufferView" : 8,
            "componentType" : 5126,
            "count" : 170,
            "max" : [
                0.8434631824493408,
                3.1885175704956055,
                0.33294498920440674
            ],
            "min" : [
                -0.7345374822616577,
                -0.7899742126464844,
                -0.3989352285861969
            ],
            "type" : "VEC3"
        },
        {
            "bufferView" : 9,
            "componentType" : 5126,
            "count" : 170,
            "type" : "VEC3"
        },
        {
            "bufferView" : 10,
            "componentType" : 5126,
            "count" : 170,
            "type" : "VEC2"
        },
        {
            "bufferView" : 11,
            "componentType" : 5123,
            "count" : 1008,
            "type" : "SCALAR"
        },
        {
            "bufferView" : 12,
            "componentType" : 5126,
            "count" : 66,
            "max" : [
                0.26667338609695435,
                5.83097505569458,
                0.268787145614624
            ],
            "min" : [
                -0.26667270064353943,
                5.16157341003418,
                -0.2687869071960449
            ],
            "type" : "VEC3"
        },
        {
            "bufferView" : 13,
            "componentType" : 5126,
            "count" : 66,
            "type" : "VEC3"
        },
        {
            "bufferView" : 14,
            "componentType" : 5126,
            "count" : 66,
            "type" : "VEC2"
        },
        {
            "bufferView" : 15,
            "componentType" : 5123,
            "count" : 180,
            "type" : "SCALAR"
        }
    ],
    "bufferViews" : [
        {
            "buffer" : 0,
            "byteLength" : 2508,
            "byteOffset" : 0
        },
        {
            "buffer" : 0,
            "byteLength" : 2508,
            "byteOffset" : 2508
        },
        {
            "buffer" : 0,
            "byteLength" : 1672,
            "byteOffset" : 5016
        },
        {
            "buffer" : 0,
            "byteLength" : 1896,
            "byteOffset" : 6688
        },
        {
            "buffer" : 0,
            "byteLength" : 1152,
            "byteOffset" : 8584
        },
        {
            "buffer" : 0,
            "byteLength" : 1152,
            "byteOffset" : 9736
        },
        {
            "buffer" : 0,
            "byteLength" : 768,
            "byteOffset" : 10888
        },
        {
            "buffer" : 0,
            "byteLength" : 1080,
            "byteOffset" : 11656
        },
        {
            "buffer" : 0,
            "byteLength" : 2040,
            "byteOffset" : 12736
        },
        {
            "buffer" : 0,
            "byteLength" : 2040,
            "byteOffset" : 14776
        },
        {
            "buffer" : 0,
            "byteLength" : 1360,
            "byteOffset" : 16816
        },
        {
            "buffer" : 0,
            "byteLength" : 2016,
            "byteOffset" : 18176
        },
        {
            "buffer" : 0,
            "byteLength" : 792,
            "byteOffset" : 20192
        },
        {
            "buffer" : 0,
            "byteLength" : 792,
            "byteOffset" : 20984
        },
        {
            "buffer" : 0,
            "byteLength" : 528,
            "byteOffset" : 21776
        },
        {
            "buffer" : 0,
            "byteLength" : 360,
            "byteOffset" : 22304
        }
    ],
    "buffers" : [
        {
            "byteLength" : 22664,
            "uri" : "data:application/octet-stream;base64,"
        }
    ]
}
