{
    "asset" : {
        "generator" : "Khronos glTF Blender I/O v1.4.40",
        "version" : "2.0"
    },
    "scene" : 0,
    "scenes" : [
        {
            "name" : "Scene",
            "nodes" : [
                0
            ]
        }
    ],
    "nodes" : [
        {
            "mesh" : 0,
            "name" : "Fim esquerda",
            "rotation" : [
                0.39890235662460327,
                -0.583846926689148,
                0.39890217781066895,
                -0.5838465094566345
            ],
            "scale" : [
                0.39899998903274536,
                0.39899998903274536,
                0.39899998903274536
            ]
        }
    ],
    "materials" : [
        {
            "alphaMode" : "BLEND",
            "doubleSided" : true,
            "name" : "FOlhas",
            "pbrMetallicRoughness" : {
                "baseColorTexture" : {
                    "index" : 0,
                    "texCoord" : 0
                },
                "metallicFactor" : 0
            }
        },
        {
            "doubleSided" : true,
            "name" : "Material",
            "pbrMetallicRoughness" : {
                "baseColorFactor" : [
                    0.04667902737855911,
                    0.10342911630868912,
                    0.02956974506378174,
                    1
                ],
                "metallicFactor" : 0
            }
        }
    ],
    "meshes" : [
        {
            "name" : "FOlhas.008",
            "primitives" : [
                {
                    "attributes" : {
                        "POSITION" : 0,
                        "NORMAL" : 1,
                        "TEXCOORD_0" : 2,
                        "TEXCOORD_1" : 3
                    },
                    "indices" : 4,
                    "material" : 0
                },
                {
                    "attributes" : {
                        "POSITION" : 5,
                        "NORMAL" : 6,
                        "TEXCOORD_0" : 7,
                        "TEXCOORD_1" : 8
                    },
                    "indices" : 9,
                    "material" : 1
                }
            ]
        }
    ],
    "textures" : [
        {
            "sampler" : 0,
            "source" : 0
        }
    ],
    "images" : [
        {
            "bufferView" : 5,
            "mimeType" : "image/png",
            "name" : "FOlhas"
        }
    ],
    "accessors" : [
        {
            "bufferView" : 0,
            "componentType" : 5126,
            "count" : 8112,
            "max" : [
                4.564297199249268,
                3.566981792449951,
                4.643833160400391
            ],
            "min" : [
                -4.7412872314453125,
                -3.496729850769043,
                -5.71265983581543
            ],
            "type" : "VEC3"
        },
        {
            "bufferView" : 1,
            "componentType" : 5126,
            "count" : 8112,
            "type" : "VEC3"
        },
        {
            "bufferView" : 2,
            "componentType" : 5126,
            "count" : 8112,
            "type" : "VEC2"
        },
        {
            "bufferView" : 3,
            "componentType" : 5126,
            "count" : 8112,
            "type" : "VEC2"
        },
        {
            "bufferView" : 4,
            "componentType" : 5123,
            "count" : 12168,
            "type" : "SCALAR"
        },
        {
            "bufferView" : 6,
            "componentType" : 5126,
            "count" : 208,
            "max" : [
                4.004430294036865,
                3.0232174396514893,
                4.216253280639648
            ],
            "min" : [
                -4.117827415466309,
                -2.8192179203033447,
                -5.39801025390625
            ],
            "type" : "VEC3"
        },
        {
            "bufferView" : 7,
            "componentType" : 5126,
            "count" : 208,
            "type" : "VEC3"
        },
        {
            "bufferView" : 8,
            "componentType" : 5126,
            "count" : 208,
            "type" : "VEC2"
        },
        {
            "bufferView" : 9,
            "componentType" : 5126,
            "count" : 208,
            "type" : "VEC2"
        },
        {
            "bufferView" : 10,
            "componentType" : 5123,
            "count" : 312,
            "type" : "SCALAR"
        }
    ],
    "bufferViews" : [
        {
            "buffer" : 0,
            "byteLength" : 97344,
            "byteOffset" : 0
        },
        {
            "buffer" : 0,
            "byteLength" : 97344,
            "byteOffset" : 97344
        },
        {
            "buffer" : 0,
            "byteLength" : 64896,
            "byteOffset" : 194688
        },
        {
            "buffer" : 0,
            "byteLength" : 64896,
            "byteOffset" : 259584
        },
        {
            "buffer" : 0,
            "byteLength" : 24336,
            "byteOffset" : 324480
        },
        {
            "buffer" : 0,
            "byteLength" : 334250,
            "byteOffset" : 348816
        },
        {
            "buffer" : 0,
            "byteLength" : 2496,
            "byteOffset" : 683068
        },
        {
            "buffer" : 0,
            "byteLength" : 2496,
            "byteOffset" : 685564
        },
        {
            "buffer" : 0,
            "byteLength" : 1664,
            "byteOffset" : 688060
        },
        {
            "buffer" : 0,
            "byteLength" : 1664,
            "byteOffset" : 689724
        },
        {
            "buffer" : 0,
            "byteLength" : 624,
            "byteOffset" : 691388
        }
    ],
    "samplers" : [
        {
            "magFilter" : 9729,
            "minFilter" : 9986
        }
    ],
    "buffers" : [
        {
            "byteLength" : 692012,
            "uri" : "data:application/octet-stream;base64,"
        }
    ]
}
