{
    "asset" : {
        "generator" : "Khronos glTF Blender I/O v1.4.40",
        "version" : "2.0"
    },
    "scene" : 0,
    "scenes" : [
        {
            "name" : "Scene",
            "nodes" : [
                0
            ]
        }
    ],
    "nodes" : [
        {
            "mesh" : 0,
            "name" : "Meio",
            "rotation" : [
                -0.3989022672176361,
                0.5838468074798584,
                -0.3989022374153137,
                0.5838466286659241
            ],
            "scale" : [
                0.39899998903274536,
                0.39899998903274536,
                0.39899998903274536
            ],
            "translation" : [
                0.05629485845565796,
                -0.09323324263095856,
                -0.7381345629692078
            ]
        }
    ],
    "materials" : [
        {
            "alphaMode" : "BLEND",
            "doubleSided" : true,
            "name" : "FOlhas",
            "pbrMetallicRoughness" : {
                "baseColorTexture" : {
                    "index" : 0,
                    "texCoord" : 0
                },
                "metallicFactor" : 0
            }
        },
        {
            "doubleSided" : true,
            "name" : "Material",
            "pbrMetallicRoughness" : {
                "baseColorFactor" : [
                    0.04667902737855911,
                    0.10342911630868912,
                    0.02956974506378174,
                    1
                ],
                "metallicFactor" : 0
            }
        }
    ],
    "meshes" : [
        {
            "name" : "FOlhas",
            "primitives" : [
                {
                    "attributes" : {
                        "POSITION" : 0,
                        "NORMAL" : 1,
                        "TEXCOORD_0" : 2,
                        "TEXCOORD_1" : 3
                    },
                    "indices" : 4,
                    "material" : 0
                },
                {
                    "attributes" : {
                        "POSITION" : 5,
                        "NORMAL" : 6,
                        "TEXCOORD_0" : 7,
                        "TEXCOORD_1" : 8
                    },
                    "indices" : 9,
                    "material" : 1
                }
            ]
        }
    ],
    "textures" : [
        {
            "sampler" : 0,
            "source" : 0
        }
    ],
    "images" : [
        {
            "bufferView" : 5,
            "mimeType" : "image/png",
            "name" : "FOlhas"
        }
    ],
    "accessors" : [
        {
            "bufferView" : 0,
            "componentType" : 5126,
            "count" : 7120,
            "max" : [
                4.325832843780518,
                1.5732316970825195,
                5.76901388168335
            ],
            "min" : [
                -4.908591270446777,
                -5.308114528656006,
                -4.314676284790039
            ],
            "type" : "VEC3"
        },
        {
            "bufferView" : 1,
            "componentType" : 5126,
            "count" : 7120,
            "type" : "VEC3"
        },
        {
            "bufferView" : 2,
            "componentType" : 5126,
            "count" : 7120,
            "type" : "VEC2"
        },
        {
            "bufferView" : 3,
            "componentType" : 5126,
            "count" : 7120,
            "type" : "VEC2"
        },
        {
            "bufferView" : 4,
            "componentType" : 5123,
            "count" : 10680,
            "type" : "SCALAR"
        },
        {
            "bufferView" : 6,
            "componentType" : 5126,
            "count" : 208,
            "max" : [
                4.0209784507751465,
                0.8432610034942627,
                5.5789008140563965
            ],
            "min" : [
                -4.101278305053711,
                -4.999174118041992,
                -4.035363674163818
            ],
            "type" : "VEC3"
        },
        {
            "bufferView" : 7,
            "componentType" : 5126,
            "count" : 208,
            "type" : "VEC3"
        },
        {
            "bufferView" : 8,
            "componentType" : 5126,
            "count" : 208,
            "type" : "VEC2"
        },
        {
            "bufferView" : 9,
            "componentType" : 5126,
            "count" : 208,
            "type" : "VEC2"
        },
        {
            "bufferView" : 10,
            "componentType" : 5123,
            "count" : 312,
            "type" : "SCALAR"
        }
    ],
    "bufferViews" : [
        {
            "buffer" : 0,
            "byteLength" : 85440,
            "byteOffset" : 0
        },
        {
            "buffer" : 0,
            "byteLength" : 85440,
            "byteOffset" : 85440
        },
        {
            "buffer" : 0,
            "byteLength" : 56960,
            "byteOffset" : 170880
        },
        {
            "buffer" : 0,
            "byteLength" : 56960,
            "byteOffset" : 227840
        },
        {
            "buffer" : 0,
            "byteLength" : 21360,
            "byteOffset" : 284800
        },
        {
            "buffer" : 0,
            "byteLength" : 334250,
            "byteOffset" : 306160
        },
        {
            "buffer" : 0,
            "byteLength" : 2496,
            "byteOffset" : 640412
        },
        {
            "buffer" : 0,
            "byteLength" : 2496,
            "byteOffset" : 642908
        },
        {
            "buffer" : 0,
            "byteLength" : 1664,
            "byteOffset" : 645404
        },
        {
            "buffer" : 0,
            "byteLength" : 1664,
            "byteOffset" : 647068
        },
        {
            "buffer" : 0,
            "byteLength" : 624,
            "byteOffset" : 648732
        }
    ],
    "samplers" : [
        {
            "magFilter" : 9729,
            "minFilter" : 9986
        }
    ],
    "buffers" : [
        {
            "byteLength" : 649356,
            "uri" : "data:application/octet-stream;base64,"
        }
    ]
}
