{
    "asset" : {
        "generator" : "Khronos glTF Blender I/O v1.4.40",
        "version" : "2.0"
    },
    "scene" : 0,
    "scenes" : [
        {
            "name" : "Scene",
            "nodes" : [
                0,
                1,
                2,
                3,
                4,
                5,
                6,
                7,
                8
            ]
        }
    ],
    "nodes" : [
        {
            "mesh" : 0,
            "name" : "Arvore",
            "scale" : [
                0.1540231704711914,
                0.1540231704711914,
                0.1540231704711914
            ],
            "translation" : [
                0.01285448856651783,
                -0.06932172924280167,
                0
            ]
        },
        {
            "mesh" : 1,
            "name" : "Cilindro",
            "scale" : [
                0.0024877432733774185,
                0.0024877432733774185,
                0.0024877432733774185
            ],
            "translation" : [
                0.023632818832993507,
                0.43234819173812866,
                0.28381747007369995
            ]
        },
        {
            "mesh" : 2,
            "name" : "C\u00edrculo",
            "rotation" : [
                0,
                -0.7071068286895752,
                -0.7071068286895752,
                5.338508302088485e-08
            ],
            "scale" : [
                0,
                0,
                0
            ],
            "translation" : [
                0.02314535528421402,
                0.4018174111843109,
                0.2813050448894501
            ]
        },
        {
            "mesh" : 3,
            "name" : "Esfera icosa\u00e9drica.005",
            "rotation" : [
                0.38375982642173767,
                -0.022473640739917755,
                0.012253537774085999,
                0.9230781197547913
            ],
            "scale" : [
                0.6358340382575989,
                0.5604009032249451,
                0.6359057426452637
            ],
            "translation" : [
                0.07414782047271729,
                1.5489637851715088,
                0.6230571866035461
            ]
        },
        {
            "mesh" : 4,
            "name" : "Esfera icosa\u00e9drica.006",
            "rotation" : [
                0.19174468517303467,
                -0.7964522242546082,
                0.3326496183872223,
                0.4671640992164612
            ],
            "scale" : [
                0.48395252227783203,
                0.4265380799770355,
                0.4840070605278015
            ],
            "translation" : [
                -0.4744444489479065,
                1.456826090812683,
                0.04992970824241638
            ]
        },
        {
            "mesh" : 5,
            "name" : "Esfera icosa\u00e9drica.007",
            "rotation" : [
                0.016872860491275787,
                -0.7965656518936157,
                0.4394536316394806,
                -0.4148240387439728
            ],
            "scale" : [
                0.5773465037345886,
                0.5088520646095276,
                0.5774115920066833
            ],
            "translation" : [
                0.2613929212093353,
                1.4868535995483398,
                -0.2673099637031555
            ]
        },
        {
            "mesh" : 6,
            "name" : "Esfera icosa\u00e9drica.008",
            "rotation" : [
                -0.24654823541641235,
                -0.3138219118118286,
                0.2759097218513489,
                -0.8744162917137146
            ],
            "scale" : [
                0.6385678052902222,
                0.5628102421760559,
                0.6386397480964661
            ],
            "translation" : [
                0.5393024682998657,
                1.3323701620101929,
                0.5082350969314575
            ]
        },
        {
            "mesh" : 7,
            "name" : "Esfera icosa\u00e9drica.009",
            "rotation" : [
                -0.015050690621137619,
                -0.8296862244606018,
                0.04539283365011215,
                -0.5561777949333191
            ],
            "scale" : [
                0.6970422267913818,
                0.6547990441322327,
                0.7938961386680603
            ],
            "translation" : [
                0.07777237892150879,
                1.1752703189849854,
                0.2190554291009903
            ]
        },
        {
            "mesh" : 8,
            "name" : "C\u00edrculo.001",
            "rotation" : [
                0,
                -0.7071068286895752,
                -0.7071068286895752,
                5.338508302088485e-08
            ],
            "scale" : [
                0.025101687759160995,
                0.025101687759160995,
                0.025101687759160995
            ],
            "translation" : [
                0.02314535528421402,
                0.4018174111843109,
                0.2813050448894501
            ]
        }
    ],
    "materials" : [
        {
            "doubleSided" : true,
            "name" : "Materiais.009",
            "pbrMetallicRoughness" : {
                "baseColorFactor" : [
                    0.1878160536289215,
                    0.08020954579114914,
                    0.054622236639261246,
                    1
                ],
                "metallicFactor" : 0
            }
        },
        {
            "doubleSided" : true,
            "name" : "Materiais.007",
            "pbrMetallicRoughness" : {
                "baseColorFactor" : [
                    0.19242708384990692,
                    0.09478435665369034,
                    0.042019642889499664,
                    1
                ],
                "metallicFactor" : 0,
                "roughnessFactor" : 0.5
            }
        },
        {
            "doubleSided" : true,
            "name" : "Materiais.006",
            "pbrMetallicRoughness" : {
                "baseColorFactor" : [
                    0.8000000715255737,
                    0.4298785328865051,
                    0.04666336253285408,
                    1
                ],
                "metallicFactor" : 0
            }
        },
        {
            "doubleSided" : true,
            "name" : "Materiais.005",
            "pbrMetallicRoughness" : {
                "baseColorFactor" : [
                    0.05699468031525612,
                    0.14517158269882202,
                    0.027345910668373108,
                    1
                ],
                "metallicFactor" : 0
            }
        },
        {
            "doubleSided" : true,
            "name" : "Materiais.010",
            "pbrMetallicRoughness" : {
                "baseColorFactor" : [
                    0.8000000715255737,
                    0.4298785328865051,
                    0.04666336253285408,
                    1
                ],
                "metallicFactor" : 0
            }
        }
    ],
    "meshes" : [
        {
            "name" : "Cubo.002",
            "primitives" : [
                {
                    "attributes" : {
                        "POSITION" : 0,
                        "NORMAL" : 1,
                        "TEXCOORD_0" : 2
                    },
                    "indices" : 3,
                    "material" : 0
                }
            ]
        },
        {
            "name" : "Cilindro",
            "primitives" : [
                {
                    "attributes" : {
                        "POSITION" : 4,
                        "NORMAL" : 5,
                        "TEXCOORD_0" : 6
                    },
                    "indices" : 7,
                    "material" : 1
                }
            ]
        },
        {
            "name" : "C\u00edrculo",
            "primitives" : [
                {
                    "attributes" : {
                        "POSITION" : 8,
                        "NORMAL" : 9,
                        "TEXCOORD_0" : 10
                    },
                    "indices" : 11,
                    "material" : 2
                }
            ]
        },
        {
            "name" : "Esfera icosa\u00e9drica.010",
            "primitives" : [
                {
                    "attributes" : {
                        "POSITION" : 12,
                        "NORMAL" : 13,
                        "TEXCOORD_0" : 14
                    },
                    "indices" : 15,
                    "material" : 3
                }
            ]
        },
        {
            "name" : "Esfera icosa\u00e9drica.011",
            "primitives" : [
                {
                    "attributes" : {
                        "POSITION" : 16,
                        "NORMAL" : 17,
                        "TEXCOORD_0" : 18
                    },
                    "indices" : 15,
                    "material" : 3
                }
            ]
        },
        {
            "name" : "Esfera icosa\u00e9drica.005",
            "primitives" : [
                {
                    "attributes" : {
                        "POSITION" : 19,
                        "NORMAL" : 20,
                        "TEXCOORD_0" : 21
                    },
                    "indices" : 15,
                    "material" : 3
                }
            ]
        },
        {
            "name" : "Esfera icosa\u00e9drica.013",
            "primitives" : [
                {
                    "attributes" : {
                        "POSITION" : 22,
                        "NORMAL" : 23,
                        "TEXCOORD_0" : 24
                    },
                    "indices" : 15,
                    "material" : 3
                }
            ]
        },
        {
            "name" : "Esfera icosa\u00e9drica.014",
            "primitives" : [
                {
                    "attributes" : {
                        "POSITION" : 25,
                        "NORMAL" : 26,
                        "TEXCOORD_0" : 27
                    },
                    "indices" : 15,
                    "material" : 3
                }
            ]
        },
        {
            "name" : "C\u00edrculo.001",
            "primitives" : [
                {
                    "attributes" : {
                        "POSITION" : 28,
                        "NORMAL" : 29,
                        "TEXCOORD_0" : 30
                    },
                    "indices" : 11,
                    "material" : 4
                }
            ]
        }
    ],
    "accessors" : [
        {
            "bufferView" : 0,
            "componentType" : 5126,
            "count" : 257,
            "max" : [
                0.9535346627235413,
                7.855079650878906,
                4.190850734710693
            ],
            "min" : [
                -3.0823097229003906,
                -1.0223989486694336,
                -1.7843263149261475
            ],
            "type" : "VEC3"
        },
        {
            "bufferView" : 1,
            "componentType" : 5126,
            "count" : 257,
            "type" : "VEC3"
        },
        {
            "bufferView" : 2,
            "componentType" : 5126,
            "count" : 257,
            "type" : "VEC2"
        },
        {
            "bufferView" : 3,
            "componentType" : 5123,
            "count" : 1320,
            "type" : "SCALAR"
        },
        {
            "bufferView" : 4,
            "componentType" : 5126,
            "count" : 368,
            "max" : [
                30.041719436645508,
                64.38495635986328,
                2.777789354324341
            ],
            "min" : [
                -2.9907612800598145,
                -5.939539432525635,
                -2.5147314071655273
            ],
            "type" : "VEC3"
        },
        {
            "bufferView" : 5,
            "componentType" : 5126,
            "count" : 368,
            "type" : "VEC3"
        },
        {
            "bufferView" : 6,
            "componentType" : 5126,
            "count" : 368,
            "type" : "VEC2"
        },
        {
            "bufferView" : 7,
            "componentType" : 5123,
            "count" : 498,
            "type" : "SCALAR"
        },
        {
            "bufferView" : 8,
            "componentType" : 5126,
            "count" : 119,
            "max" : [
                1.4504280090332031,
                0.4717816412448883,
                1.2518013715744019
            ],
            "min" : [
                0,
                0,
                -1.1547247171401978
            ],
            "type" : "VEC3"
        },
        {
            "bufferView" : 9,
            "componentType" : 5126,
            "count" : 119,
            "type" : "VEC3"
        },
        {
            "bufferView" : 10,
            "componentType" : 5126,
            "count" : 119,
            "type" : "VEC2"
        },
        {
            "bufferView" : 11,
            "componentType" : 5123,
            "count" : 621,
            "type" : "SCALAR"
        },
        {
            "bufferView" : 12,
            "componentType" : 5126,
            "count" : 240,
            "max" : [
                1.2659350633621216,
                0.844967782497406,
                1.1991525888442993
            ],
            "min" : [
                -1.294204831123352,
                -0.9887522459030151,
                -1.1993335485458374
            ],
            "type" : "VEC3"
        },
        {
            "bufferView" : 13,
            "componentType" : 5126,
            "count" : 240,
            "type" : "VEC3"
        },
        {
            "bufferView" : 14,
            "componentType" : 5126,
            "count" : 240,
            "type" : "VEC2"
        },
        {
            "bufferView" : 15,
            "componentType" : 5123,
            "count" : 240,
            "type" : "SCALAR"
        },
        {
            "bufferView" : 16,
            "componentType" : 5126,
            "count" : 240,
            "max" : [
                1.2659350633621216,
                0.844967782497406,
                1.1991525888442993
            ],
            "min" : [
                -1.294204831123352,
                -0.9887522459030151,
                -1.1993335485458374
            ],
            "type" : "VEC3"
        },
        {
            "bufferView" : 17,
            "componentType" : 5126,
            "count" : 240,
            "type" : "VEC3"
        },
        {
            "bufferView" : 18,
            "componentType" : 5126,
            "count" : 240,
            "type" : "VEC2"
        },
        {
            "bufferView" : 19,
            "componentType" : 5126,
            "count" : 240,
            "max" : [
                1.2659350633621216,
                0.844967782497406,
                1.1991525888442993
            ],
            "min" : [
                -1.294204831123352,
                -0.9887522459030151,
                -1.1993335485458374
            ],
            "type" : "VEC3"
        },
        {
            "bufferView" : 20,
            "componentType" : 5126,
            "count" : 240,
            "type" : "VEC3"
        },
        {
            "bufferView" : 21,
            "componentType" : 5126,
            "count" : 240,
            "type" : "VEC2"
        },
        {
            "bufferView" : 22,
            "componentType" : 5126,
            "count" : 240,
            "max" : [
                1.2659350633621216,
                0.844967782497406,
                1.1991525888442993
            ],
            "min" : [
                -1.294204831123352,
                -0.9887522459030151,
                -1.1993335485458374
            ],
            "type" : "VEC3"
        },
        {
            "bufferView" : 23,
            "componentType" : 5126,
            "count" : 240,
            "type" : "VEC3"
        },
        {
            "bufferView" : 24,
            "componentType" : 5126,
            "count" : 240,
            "type" : "VEC2"
        },
        {
            "bufferView" : 25,
            "componentType" : 5126,
            "count" : 240,
            "max" : [
                1.2659350633621216,
                0.844967782497406,
                1.1991525888442993
            ],
            "min" : [
                -1.294204831123352,
                -0.9887522459030151,
                -1.1993335485458374
            ],
            "type" : "VEC3"
        },
        {
            "bufferView" : 26,
            "componentType" : 5126,
            "count" : 240,
            "type" : "VEC3"
        },
        {
            "bufferView" : 27,
            "componentType" : 5126,
            "count" : 240,
            "type" : "VEC2"
        },
        {
            "bufferView" : 28,
            "componentType" : 5126,
            "count" : 119,
            "max" : [
                1.4504280090332031,
                0.4717816412448883,
                1.2518013715744019
            ],
            "min" : [
                0,
                0,
                -1.1547247171401978
            ],
            "type" : "VEC3"
        },
        {
            "bufferView" : 29,
            "componentType" : 5126,
            "count" : 119,
            "type" : "VEC3"
        },
        {
            "bufferView" : 30,
            "componentType" : 5126,
            "count" : 119,
            "type" : "VEC2"
        }
    ],
    "bufferViews" : [
        {
            "buffer" : 0,
            "byteLength" : 3084,
            "byteOffset" : 0
        },
        {
            "buffer" : 0,
            "byteLength" : 3084,
            "byteOffset" : 3084
        },
        {
            "buffer" : 0,
            "byteLength" : 2056,
            "byteOffset" : 6168
        },
        {
            "buffer" : 0,
            "byteLength" : 2640,
            "byteOffset" : 8224
        },
        {
            "buffer" : 0,
            "byteLength" : 4416,
            "byteOffset" : 10864
        },
        {
            "buffer" : 0,
            "byteLength" : 4416,
            "byteOffset" : 15280
        },
        {
            "buffer" : 0,
            "byteLength" : 2944,
            "byteOffset" : 19696
        },
        {
            "buffer" : 0,
            "byteLength" : 996,
            "byteOffset" : 22640
        },
        {
            "buffer" : 0,
            "byteLength" : 1428,
            "byteOffset" : 23636
        },
        {
            "buffer" : 0,
            "byteLength" : 1428,
            "byteOffset" : 25064
        },
        {
            "buffer" : 0,
            "byteLength" : 952,
            "byteOffset" : 26492
        },
        {
            "buffer" : 0,
            "byteLength" : 1242,
            "byteOffset" : 27444
        },
        {
            "buffer" : 0,
            "byteLength" : 2880,
            "byteOffset" : 28688
        },
        {
            "buffer" : 0,
            "byteLength" : 2880,
            "byteOffset" : 31568
        },
        {
            "buffer" : 0,
            "byteLength" : 1920,
            "byteOffset" : 34448
        },
        {
            "buffer" : 0,
            "byteLength" : 480,
            "byteOffset" : 36368
        },
        {
            "buffer" : 0,
            "byteLength" : 2880,
            "byteOffset" : 36848
        },
        {
            "buffer" : 0,
            "byteLength" : 2880,
            "byteOffset" : 39728
        },
        {
            "buffer" : 0,
            "byteLength" : 1920,
            "byteOffset" : 42608
        },
        {
            "buffer" : 0,
            "byteLength" : 2880,
            "byteOffset" : 44528
        },
        {
            "buffer" : 0,
            "byteLength" : 2880,
            "byteOffset" : 47408
        },
        {
            "buffer" : 0,
            "byteLength" : 1920,
            "byteOffset" : 50288
        },
        {
            "buffer" : 0,
            "byteLength" : 2880,
            "byteOffset" : 52208
        },
        {
            "buffer" : 0,
            "byteLength" : 2880,
            "byteOffset" : 55088
        },
        {
            "buffer" : 0,
            "byteLength" : 1920,
            "byteOffset" : 57968
        },
        {
            "buffer" : 0,
            "byteLength" : 2880,
            "byteOffset" : 59888
        },
        {
            "buffer" : 0,
            "byteLength" : 2880,
            "byteOffset" : 62768
        },
        {
            "buffer" : 0,
            "byteLength" : 1920,
            "byteOffset" : 65648
        },
        {
            "buffer" : 0,
            "byteLength" : 1428,
            "byteOffset" : 67568
        },
        {
            "buffer" : 0,
            "byteLength" : 1428,
            "byteOffset" : 68996
        },
        {
            "buffer" : 0,
            "byteLength" : 952,
            "byteOffset" : 70424
        }
    ],
    "buffers" : [
        {
            "byteLength" : 71376,
            "uri" : "data:application/octet-stream;base64,"
        }
    ]
}
