{
    "asset" : {
        "generator" : "Khronos glTF Blender I/O v1.4.40",
        "version" : "2.0"
    },
    "scene" : 0,
    "scenes" : [
        {
            "name" : "Scene",
            "nodes" : [
                0
            ]
        }
    ],
    "nodes" : [
        {
            "mesh" : 0,
            "name" : "Montanha verde.002",
            "scale" : [
                4.212122440338135,
                11.422260284423828,
                10.180171012878418
            ]
        }
    ],
    "materials" : [
        {
            "doubleSided" : true,
            "name" : "Montanha Verde.001",
            "pbrMetallicRoughness" : {
                "baseColorFactor" : [
                    0.011698220856487751,
                    0.015960894525051117,
                    0.009136139415204525,
                    1
                ],
                "metallicFactor" : 0
            }
        }
    ],
    "meshes" : [
        {
            "name" : "Cubo.002",
            "primitives" : [
                {
                    "attributes" : {
                        "POSITION" : 0,
                        "NORMAL" : 1,
                        "TEXCOORD_0" : 2
                    },
                    "indices" : 3,
                    "material" : 0
                }
            ]
        }
    ],
    "accessors" : [
        {
            "bufferView" : 0,
            "componentType" : 5126,
            "count" : 654,
            "max" : [
                2.5907974243164062,
                0.9836399555206299,
                0.4338252544403076
            ],
            "min" : [
                -2.218327522277832,
                -0.5145409107208252,
                -0.5216692686080933
            ],
            "type" : "VEC3"
        },
        {
            "bufferView" : 1,
            "componentType" : 5126,
            "count" : 654,
            "type" : "VEC3"
        },
        {
            "bufferView" : 2,
            "componentType" : 5126,
            "count" : 654,
            "type" : "VEC2"
        },
        {
            "bufferView" : 3,
            "componentType" : 5123,
            "count" : 774,
            "type" : "SCALAR"
        }
    ],
    "bufferViews" : [
        {
            "buffer" : 0,
            "byteLength" : 7848,
            "byteOffset" : 0
        },
        {
            "buffer" : 0,
            "byteLength" : 7848,
            "byteOffset" : 7848
        },
        {
            "buffer" : 0,
            "byteLength" : 5232,
            "byteOffset" : 15696
        },
        {
            "buffer" : 0,
            "byteLength" : 1548,
            "byteOffset" : 20928
        }
    ],
    "buffers" : [
        {
            "byteLength" : 22476,
            "uri" : "data:application/octet-stream;base64,"
        }
    ]
}
