{
    "asset" : {
        "generator" : "Khronos glTF Blender I/O v1.4.40",
        "version" : "2.0"
    },
    "scene" : 0,
    "scenes" : [
        {
            "name" : "Scene",
            "nodes" : [
                0
            ]
        }
    ],
    "nodes" : [
        {
            "mesh" : 0,
            "name" : "Montanha verde.001",
            "scale" : [
                4.212122440338135,
                11.422260284423828,
                10.180171012878418
            ]
        }
    ],
    "materials" : [
        {
            "doubleSided" : true,
            "name" : "Montanha Verde.001",
            "pbrMetallicRoughness" : {
                "baseColorFactor" : [
                    0.011698220856487751,
                    0.015960894525051117,
                    0.009136139415204525,
                    1
                ],
                "metallicFactor" : 0
            }
        }
    ],
    "meshes" : [
        {
            "name" : "Cubo.001",
            "primitives" : [
                {
                    "attributes" : {
                        "POSITION" : 0,
                        "NORMAL" : 1,
                        "TEXCOORD_0" : 2
                    },
                    "indices" : 3,
                    "material" : 0
                }
            ]
        }
    ],
    "accessors" : [
        {
            "bufferView" : 0,
            "componentType" : 5126,
            "count" : 1222,
            "max" : [
                4.989336013793945,
                1.397874116897583,
                0.6499603390693665
            ],
            "min" : [
                -3.8813514709472656,
                -0.6609600782394409,
                -1.62894606590271
            ],
            "type" : "VEC3"
        },
        {
            "bufferView" : 1,
            "componentType" : 5126,
            "count" : 1222,
            "type" : "VEC3"
        },
        {
            "bufferView" : 2,
            "componentType" : 5126,
            "count" : 1222,
            "type" : "VEC2"
        },
        {
            "bufferView" : 3,
            "componentType" : 5123,
            "count" : 1674,
            "type" : "SCALAR"
        }
    ],
    "bufferViews" : [
        {
            "buffer" : 0,
            "byteLength" : 14664,
            "byteOffset" : 0
        },
        {
            "buffer" : 0,
            "byteLength" : 14664,
            "byteOffset" : 14664
        },
        {
            "buffer" : 0,
            "byteLength" : 9776,
            "byteOffset" : 29328
        },
        {
            "buffer" : 0,
            "byteLength" : 3348,
            "byteOffset" : 39104
        }
    ],
    "buffers" : [
        {
            "byteLength" : 42452,
            "uri" : "data:application/octet-stream;base64,"
        }
    ]
}
