{
    "asset" : {
        "generator" : "Khronos glTF Blender I/O v1.4.40",
        "version" : "2.0"
    },
    "scene" : 0,
    "scenes" : [
        {
            "name" : "Scene",
            "nodes" : [
                0
            ]
        }
    ],
    "nodes" : [
        {
            "mesh" : 0,
            "name" : "Montanha verde",
            "scale" : [
                4.212122440338135,
                11.422260284423828,
                10.180171012878418
            ]
        }
    ],
    "materials" : [
        {
            "doubleSided" : true,
            "name" : "Montanha Verde.001",
            "pbrMetallicRoughness" : {
                "baseColorFactor" : [
                    0.011698220856487751,
                    0.015960894525051117,
                    0.009136139415204525,
                    1
                ],
                "metallicFactor" : 0
            }
        }
    ],
    "meshes" : [
        {
            "name" : "Cubo.041",
            "primitives" : [
                {
                    "attributes" : {
                        "POSITION" : 0,
                        "NORMAL" : 1,
                        "TEXCOORD_0" : 2
                    },
                    "indices" : 3,
                    "material" : 0
                }
            ]
        }
    ],
    "accessors" : [
        {
            "bufferView" : 0,
            "componentType" : 5126,
            "count" : 1122,
            "max" : [
                5.01780891418457,
                1.109197974205017,
                1.0414620637893677
            ],
            "min" : [
                -3.957505702972412,
                -1.441100835800171,
                -3.500519275665283
            ],
            "type" : "VEC3"
        },
        {
            "bufferView" : 1,
            "componentType" : 5126,
            "count" : 1122,
            "type" : "VEC3"
        },
        {
            "bufferView" : 2,
            "componentType" : 5126,
            "count" : 1122,
            "type" : "VEC2"
        },
        {
            "bufferView" : 3,
            "componentType" : 5123,
            "count" : 1458,
            "type" : "SCALAR"
        }
    ],
    "bufferViews" : [
        {
            "buffer" : 0,
            "byteLength" : 13464,
            "byteOffset" : 0
        },
        {
            "buffer" : 0,
            "byteLength" : 13464,
            "byteOffset" : 13464
        },
        {
            "buffer" : 0,
            "byteLength" : 8976,
            "byteOffset" : 26928
        },
        {
            "buffer" : 0,
            "byteLength" : 2916,
            "byteOffset" : 35904
        }
    ],
    "buffers" : [
        {
            "byteLength" : 38820,
            "uri" : "data:application/octet-stream;base64,"
        }
    ]
}
