{
    "asset" : {
        "generator" : "Khronos glTF Blender I/O v1.4.40",
        "version" : "2.0"
    },
    "scene" : 0,
    "scenes" : [
        {
            "name" : "Scene",
            "nodes" : [
                0,
                1,
                2
            ]
        }
    ],
    "nodes" : [
        {
            "mesh" : 0,
            "name" : "Balde"
        },
        {
            "name" : "Sun",
            "rotation" : [
                0.1136474534869194,
                -0.260505348443985,
                -0.38337254524230957,
                0.8787757158279419
            ],
            "translation" : [
                7.877986431121826,
                0,
                4.703275203704834
            ]
        },
        {
            "name" : "C\u00e2mera",
            "rotation" : [
                0.4881593883037567,
                0.19194212555885315,
                -0.11099646985530853,
                0.8441199064254761
            ],
            "translation" : [
                5.044907569885254,
                8.451663970947266,
                10.585881233215332
            ]
        }
    ],
    "materials" : [
        {
            "doubleSided" : true,
            "name" : "Materiais",
            "pbrMetallicRoughness" : {
                "baseColorFactor" : [
                    0.09905118495225906,
                    0.0375424325466156,
                    0.017433157190680504,
                    1
                ],
                "metallicFactor" : 0
            }
        },
        {
            "doubleSided" : true,
            "name" : "Materiais.001",
            "pbrMetallicRoughness" : {
                "baseColorFactor" : [
                    0.14517448842525482,
                    0.14517448842525482,
                    0.14517448842525482,
                    1
                ],
                "metallicFactor" : 0,
                "roughnessFactor" : 0.5
            }
        },
        {
            "doubleSided" : true,
            "name" : "Materiais.002",
            "pbrMetallicRoughness" : {
                "baseColorFactor" : [
                    0.13067291676998138,
                    0.2847640812397003,
                    0.8000000715255737,
                    1
                ],
                "metallicFactor" : 0,
                "roughnessFactor" : 0.29527556896209717
            }
        }
    ],
    "meshes" : [
        {
            "name" : "C\u00edrculo.001",
            "primitives" : [
                {
                    "attributes" : {
                        "POSITION" : 0,
                        "NORMAL" : 1,
                        "TEXCOORD_0" : 2
                    },
                    "indices" : 3,
                    "material" : 0
                },
                {
                    "attributes" : {
                        "POSITION" : 4,
                        "NORMAL" : 5,
                        "TEXCOORD_0" : 6
                    },
                    "indices" : 7,
                    "material" : 1
                },
                {
                    "attributes" : {
                        "POSITION" : 8,
                        "NORMAL" : 9,
                        "TEXCOORD_0" : 10
                    },
                    "indices" : 11,
                    "material" : 2
                }
            ]
        }
    ],
    "accessors" : [
        {
            "bufferView" : 0,
            "componentType" : 5126,
            "count" : 360,
            "max" : [
                1.2941724061965942,
                1.9824906587600708,
                1.284822940826416
            ],
            "min" : [
                -1.2941722869873047,
                -0.18335041403770447,
                -1.2934225797653198
            ],
            "type" : "VEC3"
        },
        {
            "bufferView" : 1,
            "componentType" : 5126,
            "count" : 360,
            "type" : "VEC3"
        },
        {
            "bufferView" : 2,
            "componentType" : 5126,
            "count" : 360,
            "type" : "VEC2"
        },
        {
            "bufferView" : 3,
            "componentType" : 5123,
            "count" : 558,
            "type" : "SCALAR"
        },
        {
            "bufferView" : 4,
            "componentType" : 5126,
            "count" : 534,
            "max" : [
                1.4866231679916382,
                3.6585607528686523,
                0.18919803202152252
            ],
            "min" : [
                -1.4921897649765015,
                1.3527833223342896,
                -0.1891983151435852
            ],
            "type" : "VEC3"
        },
        {
            "bufferView" : 5,
            "componentType" : 5126,
            "count" : 534,
            "type" : "VEC3"
        },
        {
            "bufferView" : 6,
            "componentType" : 5126,
            "count" : 534,
            "type" : "VEC2"
        },
        {
            "bufferView" : 7,
            "componentType" : 5123,
            "count" : 1248,
            "type" : "SCALAR"
        },
        {
            "bufferView" : 8,
            "componentType" : 5126,
            "count" : 16,
            "max" : [
                0.9865537285804749,
                1.431413173675537,
                0.9865537881851196
            ],
            "min" : [
                -0.9865536689758301,
                1.431413173675537,
                -0.9868186116218567
            ],
            "type" : "VEC3"
        },
        {
            "bufferView" : 9,
            "componentType" : 5126,
            "count" : 16,
            "type" : "VEC3"
        },
        {
            "bufferView" : 10,
            "componentType" : 5126,
            "count" : 16,
            "type" : "VEC2"
        },
        {
            "bufferView" : 11,
            "componentType" : 5123,
            "count" : 42,
            "type" : "SCALAR"
        }
    ],
    "bufferViews" : [
        {
            "buffer" : 0,
            "byteLength" : 4320,
            "byteOffset" : 0
        },
        {
            "buffer" : 0,
            "byteLength" : 4320,
            "byteOffset" : 4320
        },
        {
            "buffer" : 0,
            "byteLength" : 2880,
            "byteOffset" : 8640
        },
        {
            "buffer" : 0,
            "byteLength" : 1116,
            "byteOffset" : 11520
        },
        {
            "buffer" : 0,
            "byteLength" : 6408,
            "byteOffset" : 12636
        },
        {
            "buffer" : 0,
            "byteLength" : 6408,
            "byteOffset" : 19044
        },
        {
            "buffer" : 0,
            "byteLength" : 4272,
            "byteOffset" : 25452
        },
        {
            "buffer" : 0,
            "byteLength" : 2496,
            "byteOffset" : 29724
        },
        {
            "buffer" : 0,
            "byteLength" : 192,
            "byteOffset" : 32220
        },
        {
            "buffer" : 0,
            "byteLength" : 192,
            "byteOffset" : 32412
        },
        {
            "buffer" : 0,
            "byteLength" : 128,
            "byteOffset" : 32604
        },
        {
            "buffer" : 0,
            "byteLength" : 84,
            "byteOffset" : 32732
        }
    ],
    "buffers" : [
        {
            "byteLength" : 32816,
            "uri" : "data:application/octet-stream;base64,"
        }
    ]
}
