# Blender v2.91.0 OBJ File: 'Baú.blend'
# www.blender.org
mtllib Baú.mtl
o Cubo_Cubo.001
v 1.520244 0.854188 -0.458328
v 1.520244 0.854188 0.001121
v 1.520244 0.854188 0.460570
v 1.520244 1.772002 0.003755
v 1.520244 1.714984 -0.458328
v 1.520244 1.714984 0.460570
v 1.520244 1.184835 0.920453
v 1.520244 0.854188 -0.918211
v 1.520244 1.184835 -0.918211
v 1.520244 0.854188 0.920453
v 1.520244 0.854188 -0.743268
v 1.520244 1.518302 -0.743268
v 1.520244 1.518302 0.745510
v 1.520244 0.854188 0.745510
v 1.585724 0.799863 0.983719
v 1.582867 1.170472 0.983719
v 1.582867 1.175747 -0.981479
v 1.582867 1.771030 0.487948
v 1.582867 1.175747 0.983719
v 1.582867 1.554096 -0.800602
v 1.582867 1.516285 -0.743749
v 1.582867 1.708348 -0.465912
v 1.582867 1.517590 0.732916
v 1.582867 1.176789 0.902315
v 1.582867 1.175747 -0.910118
v 1.582867 1.493423 -0.748484
v 1.582867 1.696779 0.487709
v 0.173413 0.874567 1.015169
v 0.173413 0.874567 0.876107
v 0.093269 0.549674 1.015169
v 0.124956 0.963965 1.015169
v 0.093269 0.549674 0.876107
v 0.124956 0.963965 0.876107
v 0.050984 0.795727 -1.000610
v 0.050984 1.783949 0.499775
v 0.050984 1.790767 -0.497209
v 0.050984 1.560965 -0.815617
v 0.050430 0.802589 -0.899730
v 0.050430 1.168455 -0.901453
v 0.050430 1.753706 -0.001296
v 0.050430 1.693468 0.459223
v 0.050430 1.494098 0.724748
v 0.050430 1.155930 0.899611
v 0.050430 0.790887 0.907433
v 0.050430 1.706867 -0.449158
v 0.050430 1.509106 -0.739016
v 0.803688 1.844319 -0.000124
v 0.880767 0.791362 0.997431
v 0.880767 1.844319 -0.000124
v 0.880767 0.802159 -0.989729
v 0.803688 0.791362 0.997431
v 0.803688 0.802159 -0.989729
v 0.880767 1.779640 0.494348
v 0.803688 1.779640 0.494348
v 0.880767 1.555912 0.801835
v 0.803688 1.555912 0.801835
v 0.880767 1.179725 0.990825
v 0.803688 1.179725 0.990825
v 0.880767 1.786384 -0.491799
v 0.803688 1.786384 -0.491799
v 0.880767 1.559079 -0.806747
v 0.803688 1.559079 -0.806747
v 0.880767 1.188611 -0.991550
v 0.803688 1.188611 -0.991550
v 0.803688 1.168455 -0.901453
v 0.803688 0.802589 -0.899730
v 0.880767 0.802589 -0.899730
v 0.880767 1.168455 -0.901453
v 0.803688 1.693468 0.459223
v 0.803688 1.753706 -0.001296
v 0.880767 1.753706 -0.001296
v 0.880767 1.693468 0.459223
v 0.803688 1.494098 0.724748
v 0.880767 1.494098 0.724748
v 0.803688 1.155930 0.899611
v 0.880767 1.155930 0.899611
v 0.803688 0.790887 0.907433
v 0.880767 0.790887 0.907433
v 0.803688 1.706867 -0.449158
v 0.880767 1.706867 -0.449158
v 0.803688 1.509106 -0.739016
v 0.880767 1.509106 -0.739016
v -1.520244 0.854188 -0.458328
v -1.520244 0.854188 0.001121
v -1.520244 0.854188 0.460570
v -1.520244 1.714984 0.460570
v -1.520244 1.772002 0.003755
v -1.520244 1.714984 -0.458328
v -1.520244 0.854188 0.920453
v -1.520244 1.184835 0.920453
v -1.520244 0.854188 -0.918211
v -1.520244 1.184835 -0.918211
v -1.520244 0.854188 -0.743268
v -1.520244 1.518302 -0.743268
v -1.520244 1.518302 0.745510
v -1.520244 0.854188 0.745510
v -1.582867 1.763921 0.492188
v -1.582867 1.833879 0.001120
v -1.582867 1.776330 -0.491008
v 1.582867 1.776330 -0.491008
v 1.582867 1.833879 0.003770
v 1.582867 1.763921 0.492188
v -1.585724 0.799863 0.983719
v -1.582867 1.170472 0.983719
v -1.592097 0.805138 -0.981479
v 1.592097 0.805138 -0.981479
v -1.582867 1.549517 -0.809385
v 1.582867 1.549517 0.796737
v -1.582867 1.545277 0.791776
v -1.582867 1.771030 0.487948
v 1.582867 1.769970 -0.489948
v -1.582867 1.769970 -0.489948
v 1.582867 1.833879 0.001120
v -1.582867 1.833879 0.003770
v -1.582867 1.175747 0.983719
v -1.582867 1.175747 -0.981479
v 1.582867 1.549517 -0.809385
v -1.582867 1.554096 -0.800602
v 1.582867 1.545277 0.791776
v -1.582867 1.549517 0.796737
v -1.582867 1.516285 -0.743749
v -1.582867 1.708348 -0.465912
v -1.585724 0.799863 0.912358
v 1.585724 0.799863 0.912358
v 1.582867 1.170472 0.912358
v -1.582867 1.170472 0.912358
v -1.582867 1.517590 0.732916
v -1.582867 1.176789 0.902315
v 1.592097 0.805138 -0.910118
v -1.592097 0.805138 -0.910118
v -1.582867 1.175747 -0.910118
v -1.582867 1.709381 -0.459116
v -1.582867 1.764386 0.000154
v 1.582867 1.764386 0.000154
v 1.582867 1.709381 -0.459116
v -1.582867 1.765658 0.004630
v -1.582867 1.697721 0.486582
v 1.582867 1.697721 0.486582
v 1.582867 1.765658 0.004630
v -1.582867 1.181978 -0.910027
v -1.582867 1.493423 -0.748484
v 1.582867 1.181978 -0.910027
v -1.582867 1.696779 0.487709
v -1.582867 1.524680 0.726320
v 1.582867 1.524680 0.726320
v 0.000000 0.874567 1.015169
v -0.173413 0.874567 1.015169
v -0.173413 0.874567 0.876107
v -0.093269 0.549674 1.015169
v -0.124956 0.963965 1.015169
v -0.093269 0.549674 0.876107
v -0.124956 0.963965 0.876107
v 0.000000 0.549674 0.876107
v 0.000000 0.985944 0.876107
v 0.000000 0.549674 1.015169
v 0.000000 0.985944 1.015169
v 0.050984 1.849339 -0.000131
v -0.050984 0.784812 1.008386
v -0.050984 1.849339 -0.000131
v -0.050984 0.795727 -1.000610
v 0.050984 0.784812 1.008386
v -0.050984 1.783949 0.499775
v -0.050984 1.557763 0.810641
v 0.050984 1.557763 0.810641
v -0.050984 1.177442 1.001707
v 0.050984 1.177442 1.001707
v -0.050984 1.790767 -0.497209
v -0.050984 1.560965 -0.815617
v -0.050984 1.186426 -1.002451
v 0.050984 1.186426 -1.002451
v -0.050430 0.802589 -0.899730
v -0.050430 1.168455 -0.901453
v -0.050430 1.753706 -0.001296
v -0.050430 1.693468 0.459223
v -0.050430 1.494098 0.724748
v -0.050430 1.155930 0.899611
v -0.050430 0.790887 0.907433
v -0.050430 1.706867 -0.449158
v -0.050430 1.509106 -0.739016
v -0.761194 1.844319 -0.000124
v -0.838273 0.791362 0.997431
v -0.838273 1.844319 -0.000124
v -0.838273 0.802159 -0.989729
v -0.761194 0.791362 0.997431
v -0.761194 0.802159 -0.989729
v -0.838273 1.779640 0.494348
v -0.761194 1.779640 0.494348
v -0.838273 1.555912 0.801835
v -0.761194 1.555912 0.801835
v -0.838273 1.179725 0.990825
v -0.761194 1.179725 0.990825
v -0.838273 1.786384 -0.491799
v -0.761194 1.786384 -0.491799
v -0.838273 1.559079 -0.806747
v -0.761194 1.559079 -0.806747
v -0.838273 1.188611 -0.991550
v -0.761194 1.188611 -0.991550
v -0.761194 1.168455 -0.901453
v -0.761194 0.802589 -0.899730
v -0.838273 0.802589 -0.899730
v -0.838273 1.168455 -0.901453
v -0.761194 1.693468 0.459223
v -0.761194 1.753706 -0.001296
v -0.838273 1.753706 -0.001296
v -0.838273 1.693468 0.459223
v -0.761194 1.494098 0.724748
v -0.838273 1.494098 0.724748
v -0.761194 1.155930 0.899611
v -0.838273 1.155930 0.899611
v -0.761194 0.790887 0.907433
v -0.838273 0.790887 0.907433
v -0.761194 1.706867 -0.449158
v -0.838273 1.706867 -0.449158
v -0.761194 1.509106 -0.739016
v -0.838273 1.509106 -0.739016
v -1.511552 -0.242274 0.927796
v -1.511552 0.907929 0.927796
v -1.511552 -0.242274 -0.908499
v -1.511552 0.907929 -0.908499
v 1.499886 -0.242274 0.927796
v 1.499886 0.907929 0.927796
v 1.499886 -0.242274 -0.908499
v 1.499886 0.907929 -0.908499
vt 0.573310 0.225362
vt 0.348111 0.226009
vt 0.362101 0.338097
vt 0.573310 0.338097
vt 0.573310 0.408012
vt 0.410360 0.408012
vt 0.492181 0.450938
vt 0.573310 0.450938
vt 0.573310 0.112628
vt 0.362101 0.112628
vt 0.573310 0.042712
vt 0.410360 0.042712
vt 0.573310 -0.000213
vt 0.492181 -0.000213
vt 0.518675 0.991351
vt 0.656937 0.991351
vt 0.648375 0.964881
vt 0.530618 0.970419
vt 0.379930 0.962029
vt 0.520358 0.962029
vt 0.507807 0.937723
vt 0.379930 0.938051
vt 0.125952 0.961874
vt 0.207252 0.961874
vt 0.207252 0.946220
vt 0.125952 0.946220
vt 0.106392 0.998019
vt 0.223365 0.998019
vt 0.210519 0.980601
vt 0.117734 0.980081
vt 0.005989 0.967629
vt 0.124423 0.967629
vt 0.119594 0.947492
vt 0.013851 0.947751
vt 0.328572 0.182759
vt 0.328572 0.005904
vt 0.302175 0.002976
vt 0.304107 0.179270
vt 0.252577 0.004414
vt 0.252577 0.135810
vt 0.277874 0.135810
vt 0.277874 0.004414
vt 0.253836 0.235359
vt 0.253836 0.262358
vt 0.295700 0.262358
vt 0.295700 0.235359
vt 0.296182 0.419758
vt 0.296182 0.391155
vt 0.253540 0.391155
vt 0.253540 0.419758
vt 0.253836 0.137696
vt 0.295700 0.137696
vt 0.321280 0.450066
vt 0.287483 0.450250
vt 0.287483 0.487845
vt 0.321280 0.487661
vt 0.213167 0.621576
vt 0.233044 0.658241
vt 0.284302 0.667255
vt 0.284302 0.621576
vt 0.246043 0.488327
vt 0.284302 0.488327
vt 0.214202 0.903879
vt 0.213573 0.931912
vt 0.220784 0.931517
vt 0.221484 0.905455
vt 0.250278 0.860768
vt 0.227993 0.876798
vt 0.234101 0.881377
vt 0.253138 0.867244
vt 0.357311 0.904015
vt 0.344115 0.877200
vt 0.338626 0.880873
vt 0.350092 0.905259
vt 0.321469 0.860668
vt 0.285998 0.856293
vt 0.286044 0.863121
vt 0.318005 0.866640
vt 0.357028 0.931912
vt 0.349827 0.931382
vt 0.286656 0.754422
vt 0.286656 0.759926
vt 0.314244 0.759926
vt 0.314244 0.754422
vt 0.250504 0.987860
vt 0.250504 0.993364
vt 0.285652 0.993364
vt 0.285652 0.987860
vt 0.229053 0.987860
vt 0.229053 0.993364
vt 0.286509 0.754423
vt 0.286509 0.748919
vt 0.259396 0.748919
vt 0.259396 0.754422
vt 0.314244 0.754423
vt 0.314244 0.748919
vt 0.320871 0.993364
vt 0.320871 0.987860
vt 0.343852 0.993364
vt 0.343852 0.987860
vt 0.260573 0.754422
vt 0.260573 0.759926
vt 0.292142 0.709155
vt 0.292142 0.703651
vt 0.285716 0.703651
vt 0.285716 0.709155
vt 0.249712 0.733674
vt 0.227320 0.750037
vt 0.232178 0.753577
vt 0.252791 0.739333
vt 0.214398 0.733810
vt 0.213762 0.761538
vt 0.220188 0.761610
vt 0.220901 0.735548
vt 0.214282 0.776568
vt 0.214576 0.804161
vt 0.221002 0.804092
vt 0.220724 0.777969
vt 0.356471 0.804089
vt 0.355835 0.776362
vt 0.349332 0.778099
vt 0.350045 0.804161
vt 0.250103 0.691185
vt 0.228053 0.707030
vt 0.233531 0.711476
vt 0.252575 0.697353
vt 0.355951 0.734017
vt 0.342913 0.707486
vt 0.338055 0.711026
vt 0.349509 0.735418
vt 0.342181 0.749581
vt 0.320130 0.733737
vt 0.317658 0.739905
vt 0.336703 0.754027
vt 0.285720 0.698055
vt 0.285331 0.703559
vt 0.292147 0.703559
vt 0.292147 0.698055
vt 0.320521 0.691122
vt 0.285438 0.686777
vt 0.285483 0.693247
vt 0.317442 0.696782
vt 0.355657 0.761610
vt 0.349231 0.761541
vt 0.284795 0.729328
vt 0.284750 0.735799
vt 0.573307 0.678026
vt 0.573307 0.565855
vt 0.363154 0.565855
vt 0.349233 0.677383
vt 0.573307 0.496289
vt 0.573307 0.453578
vt 0.492584 0.453578
vt 0.411171 0.496289
vt 0.573307 0.790197
vt 0.363154 0.790197
vt 0.573307 0.859762
vt 0.411171 0.859762
vt 0.573307 0.902474
vt 0.492583 0.902474
vt 0.212969 0.459974
vt 0.164630 0.459974
vt 0.164630 0.943130
vt 0.212969 0.943130
vt 0.106858 0.459974
vt 0.106858 0.943130
vt 0.163328 0.943130
vt 0.163328 0.459974
vt 0.001675 0.943130
vt 0.059168 0.943130
vt 0.059168 0.459974
vt 0.001675 0.459974
vt 0.002385 0.000807
vt 0.002385 0.459406
vt 0.055775 0.459406
vt 0.055775 0.000807
vt 0.181552 0.000807
vt 0.110407 0.000807
vt 0.110407 0.459406
vt 0.181552 0.459406
vt 0.252115 0.000807
vt 0.182132 0.000807
vt 0.182132 0.459406
vt 0.252115 0.459406
vt 0.108943 0.459406
vt 0.108943 0.000807
vt 0.105333 0.459974
vt 0.060730 0.459974
vt 0.060730 0.943130
vt 0.105333 0.943130
vt 0.657784 0.917847
vt 0.812529 0.917847
vt 0.812529 0.904244
vt 0.657784 0.904244
vt 0.502436 0.904407
vt 0.502575 0.922414
vt 0.657459 0.922414
vt 0.657459 0.904407
vt 0.997803 0.961390
vt 0.843070 0.961390
vt 0.843070 0.978173
vt 0.997803 0.978173
vt 0.688075 0.960227
vt 0.688524 0.978237
vt 0.843070 0.978237
vt 0.843070 0.960227
vt 0.688973 0.960227
vt 0.843070 0.960227
vt 0.843070 0.937876
vt 0.688973 0.937876
vt 0.843070 0.961115
vt 0.997803 0.961115
vt 0.997803 0.937726
vt 0.843070 0.937726
vt 0.657784 0.993381
vt 0.812529 0.993381
vt 0.812529 0.978395
vt 0.657784 0.978395
vt 0.657784 0.929470
vt 0.812529 0.929470
vt 0.812529 0.917962
vt 0.657784 0.917962
vt 0.812529 0.992096
vt 0.812529 0.995930
vt 0.997803 0.995930
vt 0.997803 0.992096
vt 0.812662 0.906137
vt 0.812662 0.910303
vt 0.997846 0.910303
vt 0.997846 0.906137
vt 0.627600 0.933744
vt 0.627600 0.937800
vt 0.812451 0.937800
vt 0.812451 0.933744
vt 0.685277 0.962218
vt 0.673333 0.941286
vt 0.555577 0.935748
vt 0.547015 0.962218
vt 0.507034 0.993383
vt 0.507034 0.969404
vt 0.379157 0.969077
vt 0.366606 0.993382
vt 0.997803 0.999462
vt 0.997803 0.996166
vt 0.812529 0.996166
vt 0.812529 0.999462
vt 0.004440 0.968895
vt 0.004440 0.989304
vt 0.110434 0.989304
vt 0.110434 0.968895
vt 0.327705 0.495200
vt 0.347885 0.482439
vt 0.347300 0.378052
vt 0.327705 0.363600
vt 0.353796 0.000508
vt 0.329236 0.003727
vt 0.328776 0.168591
vt 0.353796 0.177110
vt 0.812529 0.926672
vt 0.812529 0.930454
vt 0.997803 0.930454
vt 0.997803 0.926672
vt 0.347612 0.186500
vt 0.323244 0.194797
vt 0.323692 0.355364
vt 0.347612 0.358498
vt 0.812529 0.922760
vt 0.812529 0.926672
vt 0.997803 0.926672
vt 0.997803 0.922760
vt 0.812529 0.918801
vt 0.812529 0.922760
vt 0.997803 0.922760
vt 0.997803 0.918801
vt 0.301206 0.001250
vt 0.278306 0.010591
vt 0.279312 0.132933
vt 0.302669 0.138272
vt 0.812529 0.983142
vt 0.812529 0.987420
vt 0.997803 0.987420
vt 0.997803 0.983142
vt 0.812529 0.914818
vt 0.812529 0.918801
vt 0.997803 0.918801
vt 0.997803 0.914818
vt 0.322908 0.182760
vt 0.298443 0.186250
vt 0.296512 0.362543
vt 0.322908 0.359616
vt 0.812529 0.978389
vt 0.812529 0.983142
vt 0.997803 0.983142
vt 0.997803 0.978389
vt 0.627600 0.929579
vt 0.627600 0.933744
vt 0.812451 0.933744
vt 0.812451 0.929579
vt 0.812361 0.997727
vt 0.812361 0.993551
vt 0.627087 0.993551
vt 0.627087 0.997727
vt 0.997846 0.914468
vt 0.997846 0.910303
vt 0.812995 0.910303
vt 0.812995 0.914468
vt 0.500980 0.924774
vt 0.500980 0.900796
vt 0.376435 0.900796
vt 0.376435 0.924774
vt 0.997803 0.937532
vt 0.997803 0.934079
vt 0.812529 0.934079
vt 0.812529 0.937532
vt 0.997803 0.991587
vt 0.997803 0.987420
vt 0.812529 0.987420
vt 0.812529 0.991587
vt 0.812529 0.930454
vt 0.812529 0.934079
vt 0.997803 0.934079
vt 0.997803 0.930454
vt 0.253540 0.291671
vt 0.296185 0.291671
vt 0.296185 0.264168
vt 0.253540 0.264168
vt 0.253540 0.448360
vt 0.296182 0.448360
vt 0.253540 0.391155
vt 0.296185 0.391155
vt 0.253686 0.450066
vt 0.253686 0.487661
vt 0.355437 0.621576
vt 0.335560 0.658241
vt 0.322562 0.488327
vt 0.284815 0.964952
vt 0.312706 0.964952
vt 0.312706 0.957671
vt 0.284815 0.957671
vt 0.249478 0.950390
vt 0.285012 0.950390
vt 0.285012 0.943109
vt 0.249478 0.943109
vt 0.227792 0.950390
vt 0.227792 0.943109
vt 0.284666 0.950390
vt 0.257255 0.950390
vt 0.257255 0.957671
vt 0.284666 0.957671
vt 0.312706 0.950390
vt 0.312706 0.957671
vt 0.320619 0.950390
vt 0.320619 0.943109
vt 0.343852 0.950390
vt 0.343852 0.943109
vt 0.258445 0.964952
vt 0.258445 0.957671
vt 0.356912 0.861127
vt 0.349631 0.862702
vt 0.350331 0.888764
vt 0.357542 0.889159
vt 0.320837 0.818015
vt 0.317977 0.824491
vt 0.337014 0.838624
vt 0.343122 0.834045
vt 0.213804 0.861263
vt 0.221023 0.862506
vt 0.232489 0.838120
vt 0.226999 0.834447
vt 0.249646 0.817915
vt 0.253109 0.823887
vt 0.285070 0.820369
vt 0.285116 0.813540
vt 0.214087 0.889159
vt 0.221287 0.888630
vt 0.278413 0.710904
vt 0.285615 0.710904
vt 0.285655 0.703696
vt 0.278374 0.703696
vt 0.286656 0.765430
vt 0.314244 0.765430
vt 0.314244 0.759926
vt 0.286656 0.759926
vt 0.250504 0.987860
vt 0.285652 0.987860
vt 0.285652 0.982357
vt 0.250504 0.982357
vt 0.229053 0.987860
vt 0.229053 0.982357
vt 0.286509 0.743415
vt 0.259396 0.743415
vt 0.259396 0.748919
vt 0.286509 0.748919
vt 0.314244 0.743415
vt 0.314244 0.748919
vt 0.320871 0.987860
vt 0.320871 0.982357
vt 0.343852 0.987860
vt 0.343852 0.982357
vt 0.260573 0.765430
vt 0.260573 0.759926
vt 0.298634 0.705197
vt 0.292208 0.705197
vt 0.292208 0.710701
vt 0.298634 0.710701
vt 0.321076 0.775377
vt 0.317998 0.781037
vt 0.338611 0.795281
vt 0.343468 0.791741
vt 0.356249 0.944763
vt 0.349746 0.946501
vt 0.350459 0.972563
vt 0.356885 0.972490
vt 0.356507 0.818272
vt 0.350065 0.819673
vt 0.349787 0.845796
vt 0.356213 0.845865
vt 0.214317 0.845793
vt 0.220743 0.845865
vt 0.221457 0.819803
vt 0.214954 0.818065
vt 0.320544 0.902138
vt 0.318072 0.908306
vt 0.337116 0.922429
vt 0.342595 0.917983
vt 0.214696 0.944970
vt 0.221137 0.946371
vt 0.232592 0.921978
vt 0.227734 0.918439
vt 0.228608 0.791285
vt 0.234086 0.795731
vt 0.253130 0.781608
vt 0.250658 0.775441
vt 0.279212 0.703590
vt 0.285639 0.703590
vt 0.285639 0.698086
vt 0.279212 0.698086
vt 0.250126 0.902075
vt 0.253205 0.907735
vt 0.285164 0.904200
vt 0.285209 0.897730
vt 0.214990 0.972563
vt 0.221416 0.972494
vt 0.285993 0.771032
vt 0.286038 0.777503
vt 0.790229 0.904033
vt 1.000326 0.904033
vt 1.000326 0.554374
vt 0.790229 0.554374
vt 0.999569 0.001736
vt 0.789472 0.001736
vt 0.789472 0.551915
vt 0.999569 0.551915
vt 0.578519 0.904033
vt 0.792890 0.904033
vt 0.792890 0.554374
vt 0.578519 0.554374
vt 0.789472 0.001736
vt 0.575101 0.001736
vt 0.575101 0.551915
vt 0.789472 0.551915
vn 1.0000 0.0000 0.0000
vn 1.0000 0.0077 0.0000
vn 0.9997 0.0249 0.0000
vn 0.8792 0.4765 0.0000
vn 0.0000 -1.0000 0.0000
vn 0.9709 -0.2395 0.0000
vn 0.1732 0.9849 0.0000
vn 0.0000 0.0000 1.0000
vn 1.0000 -0.0001 -0.0055
vn 1.0000 -0.0045 -0.0033
vn 1.0000 -0.0026 0.0052
vn 1.0000 -0.0060 0.0007
vn 1.0000 0.0000 0.0055
vn 1.0000 -0.0024 -0.0048
vn 1.0000 -0.0058 -0.0008
vn 1.0000 -0.0050 0.0035
vn 0.0000 -0.0047 -1.0000
vn 0.0000 0.9916 0.1297
vn 0.0000 0.8086 0.5883
vn 0.0000 0.4489 0.8936
vn 0.0000 0.0170 0.9999
vn 0.0000 0.9931 -0.1170
vn 0.0000 0.8109 -0.5852
vn 0.0000 0.4464 -0.8948
vn 0.0000 -1.0000 0.0048
vn -1.0000 0.0000 0.0000
vn 0.0000 -1.0000 0.0053
vn 0.0000 0.8212 -0.5706
vn 0.0000 0.4474 0.8943
vn 0.0000 0.0000 -1.0000
vn 0.0000 0.9932 -0.1161
vn 0.0000 0.9917 0.1287
vn 0.0000 0.4182 -0.9083
vn 0.0000 0.8078 0.5895
vn 0.0000 -0.8226 0.5686
vn 0.0000 -0.4451 -0.8955
vn 0.0000 -0.9929 0.1189
vn 0.0000 -0.9902 -0.1396
vn 0.0000 -0.4604 0.8877
vn 0.0000 -0.8111 -0.5850
vn 0.0000 -0.9539 0.3002
vn 0.0000 -0.0139 0.9999
vn 0.0000 -0.8327 -0.5538
vn -1.0000 0.0077 0.0000
vn 0.0000 0.8943 -0.4474
vn 0.0000 0.0666 -0.9978
vn 0.0000 -0.4301 -0.9028
vn 0.0000 -0.0186 0.9998
vn 0.0000 -0.0126 -0.9999
vn 0.0000 -0.9999 -0.0128
vn 0.0000 1.0000 0.0000
vn 0.0000 -0.9962 0.0869
vn -0.9997 0.0249 0.0000
vn 0.0000 0.7355 0.6775
vn 0.0000 0.3634 0.9316
vn -0.8792 0.4765 0.0000
vn -0.9709 -0.2395 0.0000
vn -0.1732 0.9849 0.0000
vn -1.0000 -0.0001 -0.0055
vn -1.0000 -0.0045 -0.0033
vn -1.0000 -0.0026 0.0052
vn -1.0000 -0.0060 0.0007
vn -1.0000 0.0000 0.0055
vn -1.0000 -0.0024 -0.0048
vn -1.0000 -0.0058 -0.0008
vn 0.0000 -0.9977 0.0679
vn -1.0000 -0.0050 0.0035
usemtl Materiais.002
s off
f 2/1/1 4/2/1 6/3/1 3/4/1
f 14/5/1 13/6/1 7/7/1 10/8/1
f 1/9/1 5/10/1 4/2/1 2/1/1
f 11/11/1 12/12/1 5/10/1 1/9/1
f 8/13/1 9/14/1 12/12/1 11/11/1
f 3/4/1 6/3/1 13/6/1 14/5/1
f 17/15/1 117/16/1 26/17/1 142/18/1
f 108/19/1 19/20/1 24/21/1 23/22/1
f 16/23/2 15/24/2 124/25/2 125/26/2
f 102/27/1 119/28/1 145/29/1 27/30/1
f 20/31/1 111/32/1 22/33/1 21/34/1
f 101/35/1 18/36/1 138/37/1 139/38/1
f 106/39/3 17/40/3 25/41/3 129/42/3
f 29/43/4 33/44/4 31/45/4 28/46/4
f 153/47/5 32/48/5 30/49/5 155/50/5
f 32/51/6 29/43/6 28/46/6 30/52/6
f 33/53/7 154/54/7 156/55/7 31/56/7
f 28/57/8 31/58/8 156/59/8 146/60/8
f 30/61/8 28/57/8 146/60/8 155/62/8
f 166/63/9 161/64/9 44/65/9 43/66/9
f 35/67/10 164/68/10 42/69/10 41/70/10
f 170/71/11 37/72/11 46/73/11 39/74/11
f 36/75/12 157/76/12 40/77/12 45/78/12
f 34/79/13 170/71/13 39/74/13 38/80/13
f 164/68/14 166/63/14 43/66/14 42/69/14
f 157/76/15 35/67/15 41/70/15 40/77/15
f 37/72/16 36/75/16 45/78/16 46/73/16
f 64/81/17 63/82/17 50/83/17 52/84/17
f 54/85/18 53/86/18 49/87/18 47/88/18
f 56/89/19 55/90/19 53/86/19 54/85/19
f 58/91/20 57/92/20 55/93/20 56/94/20
f 51/95/21 48/96/21 57/92/21 58/91/21
f 47/88/22 49/87/22 59/97/22 60/98/22
f 60/98/23 59/97/23 61/99/23 62/100/23
f 62/101/24 61/102/24 63/82/24 64/81/24
f 52/103/25 50/104/25 67/105/25 66/106/25
f 60/107/26 62/108/26 81/109/26 79/110/26
f 57/111/1 48/112/1 78/113/1 76/114/1
f 64/115/26 52/116/26 66/117/26 65/118/26
f 51/119/26 58/120/26 75/121/26 77/122/26
f 53/123/1 55/124/1 74/125/1 72/126/1
f 63/127/1 61/128/1 82/129/1 68/130/1
f 56/131/26 54/132/26 69/133/26 73/134/26
f 62/108/26 64/115/26 65/118/26 81/109/26
f 48/135/27 51/136/27 77/137/27 78/138/27
f 59/139/1 49/140/1 71/141/1 80/142/1
f 50/143/1 63/127/1 68/130/1 67/144/1
f 47/145/26 60/107/26 79/110/26 70/146/26
f 55/124/1 57/111/1 76/114/1 74/125/1
f 49/140/1 53/123/1 72/126/1 71/141/1
f 58/120/26 56/131/26 73/134/26 75/121/26
f 54/132/26 47/145/26 70/146/26 69/133/26
f 61/128/1 59/139/1 80/142/1 82/129/1
f 84/147/26 85/148/26 86/149/26 87/150/26
f 96/151/26 89/152/26 90/153/26 95/154/26
f 83/155/26 84/147/26 87/150/26 88/156/26
f 93/157/26 83/155/26 88/156/26 94/158/26
f 91/159/26 93/157/26 94/158/26 92/160/26
f 85/148/26 96/151/26 95/154/26 86/149/26
f 118/161/28 112/162/28 111/163/28 20/164/28
f 103/165/8 15/166/8 16/167/8 104/168/8
f 120/169/29 115/170/29 19/171/29 108/172/29
f 106/173/30 105/174/30 116/175/30 17/176/30
f 99/177/31 98/178/31 113/179/31 100/180/31
f 114/181/32 110/182/32 18/183/32 101/184/32
f 116/175/33 107/185/33 117/186/33 17/176/33
f 97/187/34 109/188/34 119/189/34 102/190/34
f 121/191/35 21/192/35 22/193/35 122/194/35
f 123/195/30 126/196/30 125/197/30 124/198/30
f 127/199/36 23/200/36 24/201/36 128/202/36
f 129/203/8 25/204/8 131/205/8 130/206/8
f 132/207/37 135/208/37 134/209/37 133/210/37
f 136/211/38 139/212/38 138/213/38 137/214/38
f 140/215/39 142/216/39 26/217/39 141/218/39
f 143/219/40 27/220/40 145/221/40 144/222/40
f 109/223/41 144/224/41 145/225/41 119/226/41
f 103/227/5 123/228/5 124/229/5 15/230/5
f 98/231/42 133/232/42 134/233/42 113/234/42
f 116/235/26 140/236/26 141/237/26 107/238/26
f 120/239/26 127/240/26 128/241/26 115/242/26
f 20/243/43 21/244/43 121/245/43 118/246/43
f 104/247/44 126/248/44 123/249/44 103/250/44
f 97/251/26 143/252/26 144/253/26 109/254/26
f 113/255/1 134/256/1 135/257/1 100/258/1
f 108/259/45 23/260/45 127/261/45 120/262/45
f 99/263/26 132/264/26 133/265/26 98/266/26
f 102/267/46 27/268/46 143/269/46 97/270/46
f 100/271/47 135/272/47 132/273/47 99/274/47
f 118/275/26 121/276/26 122/277/26 112/278/26
f 110/279/48 137/280/48 138/281/48 18/282/48
f 101/283/49 139/284/49 136/285/49 114/286/49
f 114/287/26 136/288/26 137/289/26 110/290/26
f 115/291/50 128/292/50 24/293/50 19/294/50
f 16/295/51 125/296/51 126/297/51 104/298/51
f 17/299/52 142/300/52 140/301/52 116/302/52
f 116/303/51 131/304/51 25/305/51 17/306/51
f 105/307/53 130/308/53 131/309/53 116/310/53
f 107/311/54 141/312/54 26/313/54 117/314/54
f 106/315/5 129/316/5 130/317/5 105/318/5
f 112/319/55 122/320/55 22/321/55 111/322/55
f 148/323/56 147/324/56 150/325/56 152/326/56
f 153/47/5 155/50/5 149/327/5 151/328/5
f 151/329/57 149/330/57 147/324/57 148/323/57
f 152/331/58 150/332/58 156/55/58 154/54/58
f 147/333/8 146/60/8 156/59/8 150/334/8
f 149/335/8 155/62/8 146/60/8 147/333/8
f 170/336/17 34/337/17 160/338/17 169/339/17
f 35/340/18 157/341/18 159/342/18 162/343/18
f 164/344/19 35/340/19 162/343/19 163/345/19
f 166/346/20 164/347/20 163/348/20 165/349/20
f 161/350/21 166/346/21 165/349/21 158/351/21
f 157/341/22 36/352/22 167/353/22 159/342/22
f 36/352/23 37/354/23 168/355/23 167/353/23
f 37/356/24 170/336/24 169/339/24 168/357/24
f 165/358/59 176/359/59 177/360/59 158/361/59
f 162/362/60 174/363/60 175/364/60 163/365/60
f 169/366/61 172/367/61 179/368/61 168/369/61
f 167/370/62 178/371/62 173/372/62 159/373/62
f 160/374/63 171/375/63 172/367/63 169/366/63
f 163/365/64 175/364/64 176/359/64 165/358/64
f 159/373/65 173/372/65 174/363/65 162/362/65
f 38/376/66 171/377/66 160/378/66 34/379/66
f 168/369/67 179/368/67 178/371/67 167/370/67
f 197/380/17 185/381/17 183/382/17 196/383/17
f 187/384/18 180/385/18 182/386/18 186/387/18
f 189/388/19 187/384/19 186/387/19 188/389/19
f 191/390/20 189/391/20 188/392/20 190/393/20
f 184/394/21 191/390/21 190/393/21 181/395/21
f 180/385/22 193/396/22 192/397/22 182/386/22
f 193/396/23 195/398/23 194/399/23 192/397/23
f 195/400/24 197/380/24 196/383/24 194/401/24
f 185/402/25 199/403/25 200/404/25 183/405/25
f 193/406/1 212/407/1 214/408/1 195/409/1
f 190/410/26 209/411/26 211/412/26 181/413/26
f 197/414/1 198/415/1 199/416/1 185/417/1
f 184/418/1 210/419/1 208/420/1 191/421/1
f 186/422/26 205/423/26 207/424/26 188/425/26
f 196/426/26 201/427/26 215/428/26 194/429/26
f 189/430/1 206/431/1 202/432/1 187/433/1
f 195/409/1 214/408/1 198/415/1 197/414/1
f 181/434/27 211/435/27 210/436/27 184/437/27
f 192/438/26 213/439/26 204/440/26 182/441/26
f 183/442/26 200/443/26 201/427/26 196/426/26
f 180/444/1 203/445/1 212/407/1 193/406/1
f 188/425/26 207/424/26 209/411/26 190/410/26
f 182/441/26 204/440/26 205/423/26 186/422/26
f 191/421/1 208/420/1 206/431/1 189/430/1
f 187/433/1 202/432/1 203/445/1 180/444/1
f 194/429/26 215/428/26 213/439/26 192/438/26
f 216/446/26 217/447/26 219/448/26 218/449/26
f 218/450/30 219/451/30 223/452/30 222/453/30
f 222/454/1 223/455/1 221/456/1 220/457/1
f 220/458/8 221/459/8 217/460/8 216/461/8
